<svg xmlns="http://www.w3.org/2000/svg" viewBox="0 0 191.35 40"><symbol id="a7446a76-6cbb-454a-9b78-c6f674fa819f" viewBox="0 0 191.35 40"><path d="M98.85 20l-.07-1.69-.2-1.65H83.07l-2.36 3.7-2.36 3.7H90.3c-.71 2.41-2.07 4.49-3.92 5.97s-4.19 2.36-6.88 2.36c-3.37 0-6.4-1.41-8.58-3.67a12.58 12.58 0 0 1-3.53-8.77c0-3.4 1.36-6.41 3.56-8.64 2.21-2.23 5.26-3.63 8.66-3.63 1.48 0 2.85.23 4.11.66 1.26.42 2.41 1.04 3.45 1.81l2.08-3.31 2.08-3.32c-1.59-1.12-3.38-2-5.34-2.6S81.91.01 79.66.01c-2.99 0-5.7.55-8.11 1.54s-4.52 2.43-6.3 4.21c-4.25 4.25-5.44 8.54-6.29 12.48-.85 3.95-1.36 7.55-4.23 10.42-1.2 1.21-2.53 2.12-3.99 2.74-1.45.62-3.03.93-4.73.93-3.48 0-6.62-1.43-8.88-3.69-2.27-2.26-3.66-5.35-3.66-8.7s1.4-6.36 3.66-8.61c2.27-2.25 5.4-3.69 8.88-3.72 1.45.03 2.81.25 4.05.65a11.33 11.33 0 0 1 3.4 1.76l2.11-3.32 2.11-3.31C56.09 2.27 54.3 1.42 52.34.85s-4.08-.86-6.33-.86a20.61 20.61 0 0 0-9.48 2.29c-2.81 1.46-5.21 3.54-7.01 6.04-.71-2.19-2.18-4.07-4.19-5.4S20.78.81 17.9.81H0v38.36h19.78c2.49 0 4.71-.59 6.56-1.61s3.33-2.47 4.34-4.2a20.07 20.07 0 0 0 6.63 4.83c2.55 1.15 5.4 1.79 8.44 1.79 3.59 0 6.86-.84 9.7-2.33s5.23-3.64 7.07-6.27c1.75 2.6 4.15 4.75 7.01 6.25s6.17 2.35 9.76 2.35c5.51 0 10.4-2.25 13.91-5.87s5.65-8.62 5.65-14.13h0zM8.33 16.33V7.95h9.48c1.21 0 2.27.44 3.04 1.18s1.23 1.78 1.23 2.99-.47 2.26-1.23 3.01c-.77.75-1.84 1.21-3.04 1.21H8.33zm0 15.72v-8.71h11.34c1.26 0 2.4.47 3.22 1.24s1.33 1.86 1.33 3.09a4.31 4.31 0 0 1-1.33 3.12c-.82.79-1.96 1.27-3.22 1.27H8.33zm109.43 2.46c.02.07.03.16.04.27 0 .11.02.23.02.34 0 1.21-.43 2.28-1.16 3.04s-1.78 1.23-3.01 1.23-2.33-.49-3.12-1.29-1.27-1.91-1.27-3.15a4.45 4.45 0 0 1 1.3-3.15c.81-.8 1.92-1.29 3.16-1.29a4.82 4.82 0 0 1 1.44.2 3.91 3.91 0 0 1 1.23.6l-.36.56-.36.56c-.29-.22-.59-.38-.92-.48a3.6 3.6 0 0 0-1.05-.15 2.98 2.98 0 0 0-2.17.91c-.55.57-.88 1.36-.88 2.25s.32 1.69.86 2.26 1.29.92 2.15.92c.79 0 1.43-.25 1.9-.68.47-.42.78-1.02.89-1.7h-2.89l.39-.62.4-.62h3.41zm14.44 4.88c1.25 0 2.37-.5 3.18-1.3s1.31-1.91 1.31-3.14-.5-2.33-1.31-3.14c-.81-.8-1.93-1.3-3.18-1.3a4.48 4.48 0 0 0-3.17 1.3c-.81.8-1.3 1.91-1.3 3.14s.5 2.33 1.3 3.14a4.5 4.5 0 0 0 3.17 1.3h0zm7.7-8.7v5.22c0 .62.21 1.17.59 1.57s.92.64 1.57.64 1.18-.24 1.56-.64.59-.95.59-1.57v-5.22h1.35v5.23c0 1-.37 1.86-1 2.48s-1.5.98-2.51.98-1.89-.37-2.52-.98c-.63-.62-1.01-1.48-1.01-2.48v-5.23h1.37zm-16.7 0c.89 0 1.61.3 2.12.79s.79 1.18.79 1.95c0 .64-.18 1.2-.5 1.63-.33.44-.8.75-1.4.91l1.01 1.62 1.02 1.62h-1.59l-.94-1.54-.94-1.54h-1.63v3.08h-1.38V30.7h3.44zm28.2 0c.9 0 1.64.3 2.16.8s.81 1.19.81 1.97-.29 1.47-.81 1.97-1.26.8-2.16.8h-1.93v2.97h-1.37v-8.51h3.31zm-19.2 7.42a3.01 3.01 0 0 1-2.18-.92 3.22 3.22 0 0 1-.9-2.24c0-.88.34-1.67.9-2.24a3.01 3.01 0 0 1 2.18-.92 3.05 3.05 0 0 1 2.19.92c.56.57.9 1.36.9 2.24a3.2 3.2 0 0 1-.9 2.25 3.04 3.04 0 0 1-2.19.91h0zm19.2-3.09c.44 0 .83-.15 1.11-.41.28-.27.45-.65.45-1.13s-.17-.85-.45-1.11c-.28-.27-.67-.42-1.11-.42h-1.93v3.08h1.93zm-28.2-.12c.43 0 .81-.14 1.07-.39.27-.25.42-.62.42-1.08s-.16-.82-.42-1.08c-.27-.26-.64-.4-1.07-.4h-2.07v2.95h2.07zm68.09-15.32c.02.07.03.16.04.27 0 .11.02.23.02.34 0 1.21-.43 2.28-1.16 3.04-.74.76-1.78 1.23-3.01 1.23s-2.33-.49-3.12-1.29-1.27-1.91-1.27-3.15a4.41 4.41 0 0 1 1.3-3.14 4.45 4.45 0 0 1 3.16-1.29c.51 0 .99.06 1.44.19a3.91 3.91 0 0 1 1.23.6l-.36.56-.36.56c-.29-.22-.59-.38-.92-.48a3.6 3.6 0 0 0-1.05-.15 2.98 2.98 0 0 0-2.17.91c-.55.57-.88 1.36-.88 2.25s.32 1.69.86 2.26a2.92 2.92 0 0 0 2.14.92c.79 0 1.43-.25 1.9-.68.47-.42.78-1.02.89-1.7h-2.9l.4-.62.4-.62h3.4zm-44.05-3.82v5.22c0 .62.21 1.17.59 1.57s.92.64 1.58.64 1.18-.24 1.56-.64.59-.95.59-1.57v-5.22h1.35v5.23c0 1-.37 1.86-1 2.48s-1.51.99-2.51.99-1.89-.37-2.52-.99-1.01-1.48-1.01-2.48v-5.23h1.37zm-6.34 8.7c.96 0 1.71-.27 2.22-.73s.78-1.11.78-1.86c0-.81-.32-1.33-.8-1.7s-1.13-.58-1.79-.78c-.55-.16-1.01-.3-1.33-.5s-.5-.45-.5-.85c0-.34.12-.65.36-.87s.61-.35 1.11-.35a2.9 2.9 0 0 1 .96.17c.32.11.63.27.95.48l.34-.54.34-.54c-.34-.24-.73-.44-1.16-.58s-.91-.22-1.42-.22c-.9 0-1.61.26-2.1.71s-.75 1.08-.75 1.83c0 .81.31 1.33.79 1.7s1.13.58 1.8.78c.55.17 1.01.3 1.33.5s.51.45.51.85c0 .36-.14.67-.41.9s-.68.36-1.21.36c-.43 0-.83-.08-1.22-.23-.39-.14-.76-.35-1.13-.58l-.34.54-.34.54c.36.26.78.51 1.28.68.49.18 1.06.29 1.74.29h0zm-18.6 0c1.25 0 2.37-.5 3.18-1.3s1.31-1.91 1.31-3.14-.5-2.33-1.31-3.14c-.81-.8-1.93-1.3-3.18-1.3s-2.37.5-3.17 1.3c-.81.8-1.3 1.91-1.3 3.14s.5 2.33 1.3 3.14c.81.81 1.93 1.3 3.17 1.3h0zm-13.03-4.44c0 1.23.5 2.34 1.31 3.14s1.94 1.29 3.2 1.29c.61 0 1.12-.09 1.58-.25s.87-.4 1.26-.7l-.35-.55-.35-.55c-.33.26-.66.45-1.02.59-.36.13-.75.2-1.19.2a2.94 2.94 0 0 1-2.15-.92c-.55-.57-.89-1.36-.89-2.26s.34-1.69.89-2.26 1.31-.92 2.15-.92c.44 0 .83.07 1.19.2a3.65 3.65 0 0 1 1.02.59l.35-.55.35-.55c-.4-.3-.8-.53-1.26-.7-.46-.16-.97-.25-1.58-.25-1.26 0-2.39.49-3.2 1.29s-1.31 1.91-1.31 3.14h0zm61.58-4.26v8.51h-1.37v-8.51h1.37zm4.73 0l1.99 3.22 1.99 3.22v-6.43h1.31v8.51h-1.59l-2.04-3.3-2.04-3.3v6.59h-1.31v-8.51h1.69zm-45.14 0l1.99 3.22 1.99 3.22v-6.43h1.31v8.51h-1.59l-2.04-3.3-2.04-3.3v6.59h-1.31v-8.51h1.69zm26.29 7.25h4.2v1.27h-5.57v-8.51h1.37v7.25h0zm10.69-7.25v1.27h-2.68v7.25h-1.39v-7.25h-2.66v-1.27h6.73zm-45.11 7.42a3.01 3.01 0 0 1-2.18-.92c-.56-.57-.9-1.36-.9-2.24s.34-1.67.9-2.24a3.01 3.01 0 0 1 2.18-.92 3.05 3.05 0 0 1 2.19.92c.56.57.9 1.36.9 2.24a3.2 3.2 0 0 1-.9 2.25 3.05 3.05 0 0 1-2.19.92h0zm-.24-13.66c1.25 0 2.37-.5 3.18-1.3s1.31-1.91 1.31-3.14-.5-2.33-1.31-3.14c-.81-.8-1.93-1.3-3.18-1.3a4.48 4.48 0 0 0-3.17 1.3c-.81.8-1.3 1.91-1.3 3.14s.5 2.33 1.3 3.14a4.5 4.5 0 0 0 3.17 1.3h0zm8.84 0c.95 0 1.7-.27 2.22-.73.51-.46.79-1.11.79-1.86 0-.81-.32-1.33-.8-1.7s-1.13-.58-1.79-.79c-.55-.16-1.01-.3-1.33-.5s-.5-.45-.5-.85c0-.34.12-.64.36-.86s.61-.35 1.11-.35a2.9 2.9 0 0 1 .96.17c.31.11.63.27.95.48l.34-.54.34-.54c-.34-.24-.73-.44-1.16-.58s-.9-.22-1.42-.22c-.9 0-1.62.26-2.1.71-.49.45-.75 1.09-.75 1.83 0 .81.31 1.33.79 1.7s1.13.58 1.8.78c.55.17 1.01.3 1.33.5s.51.45.51.85a1.13 1.13 0 0 1-.41.9c-.27.23-.68.36-1.21.36a3.57 3.57 0 0 1-1.22-.23c-.39-.14-.76-.35-1.13-.58l-.34.54-.34.54a5.26 5.26 0 0 0 1.27.68c.49.18 1.07.29 1.74.29h0zm16.39 0c1.25 0 2.37-.5 3.18-1.3s1.31-1.91 1.31-3.14-.5-2.33-1.31-3.14c-.81-.8-1.93-1.3-3.18-1.3s-2.37.5-3.17 1.3c-.81.8-1.3 1.91-1.3 3.14s.5 2.33 1.3 3.14a4.5 4.5 0 0 0 3.17 1.3h0zM113.07.82c.75 0 1.4.24 1.87.64s.75.97.75 1.63c0 .37-.1.71-.27 1a2.22 2.22 0 0 1-.74.72c.41.2.75.49.98.85.23.35.36.77.36 1.22 0 .69-.28 1.3-.76 1.74s-1.16.71-1.96.71h-3.6V.82h3.38zm28.86 0v1.26h-2.68v7.25h-1.39V2.09h-2.66V.82h6.73zm13.47 0l1.99 3.22 1.99 3.22V.82h1.31v8.51h-1.59l-2.04-3.3-2.04-3.3v6.59h-1.31V.82h1.69zm-33.35 7.42a3.01 3.01 0 0 1-2.18-.92 3.22 3.22 0 0 1-.9-2.24c0-.88.34-1.67.9-2.24s1.33-.92 2.18-.92a3.07 3.07 0 0 1 2.19.92c.56.57.9 1.36.9 2.24a3.2 3.2 0 0 1-.9 2.25 3.04 3.04 0 0 1-2.19.91h0zm25.23 0a3.01 3.01 0 0 1-2.18-.92c-.56-.57-.9-1.36-.9-2.24s.34-1.67.9-2.24 1.32-.92 2.18-.92a3.05 3.05 0 0 1 2.19.92c.56.57.9 1.36.9 2.24a3.2 3.2 0 0 1-.9 2.25 3.04 3.04 0 0 1-2.19.91h0zm-34-.12c.38 0 .71-.14.95-.37s.38-.54.38-.89a1.2 1.2 0 0 0-.38-.89c-.24-.23-.57-.36-.95-.36h-2.21v2.51h2.21zm-.22-3.7c.36 0 .66-.13.88-.34a1.16 1.16 0 0 0 .35-.85 1.16 1.16 0 0 0-.35-.85c-.22-.21-.52-.34-.88-.34h-2v2.38h2z"></path></symbol><use href="#a7446a76-6cbb-454a-9b78-c6f674fa819f"></use></svg>