<svg xmlns="http://www.w3.org/2000/svg" viewBox="0 0 136 54" data-gtm-click_text="Logo (Navigation)" data-gtm-click_url="https://www.blackstone.com" data-gtm-event_name="header_navigation">
									<path fill="#FFF" d="M136 0v54H0V0z" data-gtm-click_text="Logo (Navigation)" data-gtm-click_url="https://www.blackstone.com" data-gtm-event_name="header_navigation"></path>
									<path fill="#000" d="M135 1H1v52h134z" data-gtm-click_text="Logo (Navigation)" data-gtm-click_url="https://www.blackstone.com" data-gtm-event_name="header_navigation"></path>
									<g fill="#FFF" data-gtm-click_text="Logo (Navigation)" data-gtm-click_url="https://www.blackstone.com" data-gtm-event_name="header_navigation">
										<path d="M14.37 27.26c3.27 0 6.49.78 6.49 4 0 2.63-2.56 4.02-4.1 4.43 2.91.26 5.85 1.79 5.85 4.63 0 3.27-3.01 5.16-6.35 5.13h-9.2v-.64l1.5-.1c.84-.1 1-.21 1.03-1.22.03-1.4.03-2.26.03-3.65v-6.97c0-1.39 0-2.25-.03-3.66-.02-1-.19-1.17-1.04-1.21l-1.49-.1v-.64h7.31Zm-2.06.76v7.52s1 .05 1.73.05c2.5 0 4.05-1.22 4.05-3.84 0-2.32-1.5-3.8-3.98-3.8-.85 0-1.8.07-1.8.07m0 8.33v6.19c0 1.86.9 2.2 3 2.2 2.92 0 4.43-1.68 4.43-4.35 0-3.15-2.72-4.04-5.63-4.04h-1.8Z" data-gtm-click_text="Logo (Navigation)" data-gtm-click_url="https://www.blackstone.com" data-gtm-event_name="header_navigation"></path>
										<path d="M28.2 39.86c0 1.39 0 2.25.02 3.66.02 1 .18 1.12 1.04 1.22l.94.1v.61h-6.46v-.62l.95-.1c.85-.09 1.02-.2 1.04-1.21.02-1.41.02-2.27.02-3.66v-10.9c0-1.16-.35-1.44-1.35-1.51l-1.1-.07v-.55c1.67-.2 3.33-.5 4.96-.91 0 0-.07 2.5-.07 5.25v8.7Z" data-gtm-click_text="Logo (Navigation)" data-gtm-click_url="https://www.blackstone.com" data-gtm-event_name="header_navigation"></path>
										<path d="M37.96 44.1a6 6 0 0 1-3.43 1.54 3.09 3.09 0 0 1-3.06-2.98c0-2.75 3.4-3.66 6.44-3.99v-2.89c0-1.34-.52-1.98-1.64-1.98a1.76 1.76 0 0 0-1.7 1.15c-.5.93-.93 1.48-1.61 1.48a.94.94 0 0 1-.97-.96c0-1.21 2.88-2.43 4.59-2.43 2.65 0 3.86.83 3.86 2.91 0 .96-.12 5.88-.12 6.71 0 .84.42 1.27 1.13 1.27a2.97 2.97 0 0 0 1.47-.6l.24.53c-1.16.95-2.18 1.76-3.31 1.76a2.17 2.17 0 0 1-1.9-1.53m-.05-4.72c-1.91.14-4.19.72-4.19 2.46a2.41 2.41 0 0 0 2.3 2.33c.7.02 1.37-.22 1.9-.69v-4.1Z" data-gtm-click_text="Logo (Navigation)" data-gtm-click_url="https://www.blackstone.com" data-gtm-event_name="header_navigation"></path>
										<path d="M53.93 34.75a1.08 1.08 0 0 1-1.09 1.15c-.7 0-1.09-.6-1.54-1.12a2.37 2.37 0 0 0-1.82-.98c-1.87 0-3.31 1.91-3.31 4.66 0 3.03 1.49 5.44 4.52 5.44a4.6 4.6 0 0 0 3.08-1.29l.33.48c-1.52 1.6-2.96 2.6-4.76 2.6-3.17 0-5.44-2.86-5.44-6.13 0-3.63 2.22-6.52 6.08-6.52 2.06 0 3.96.88 3.96 1.72" data-gtm-click_text="Logo (Navigation)" data-gtm-click_url="https://www.blackstone.com" data-gtm-event_name="header_navigation"></path>
										<path d="M59.45 39.89c0 1.38 0 2.22.02 3.63.03 1 .2 1.12 1.04 1.22l.83.1v.61H55v-.62l.95-.1c.85-.09 1.01-.2 1.04-1.21.02-1.41.02-2.27.02-3.66v-10.9c0-1.16-.35-1.44-1.35-1.51l-1.11-.07v-.55c1.67-.2 3.34-.5 4.97-.91 0 0-.07 2.5-.07 5.25v7.88l4.42-4.25c.4-.4.27-.79-.28-.8l-1.09-.08v-.64h5.37v.62a3.43 3.43 0 0 0-2.65.9l-3.76 3.5 5.09 5.53c.42.6 1.1.96 1.82.98l.28.02v.63h-5.98v-.63l.82-.07c.36-.02.38-.28.22-.5l-2.01-2.39c-.7-.85-1.46-1.67-2.25-2.43v.45Z" data-gtm-click_text="Logo (Navigation)" data-gtm-click_url="https://www.blackstone.com" data-gtm-event_name="header_navigation"></path>
										<path d="M71.12 45.31c-.32.03-.64.1-.95.21h-.1l-.25-4.17h.64c.5 2.53 1.63 3.55 3.48 3.55 1.51 0 2.39-.83 2.39-1.97 0-1.08-.48-1.53-2.77-2.49-1.71-.72-3.43-1.55-3.43-3.78 0-2.43 2.24-3.63 4.23-3.63.88.03 1.75.13 2.61.3.29-.07.57-.16.83-.3h.1l.07 3.95h-.7c-.13-1.91-.96-3.16-2.9-3.16-1.28 0-2.25.72-2.25 1.86 0 1.2.76 1.58 2.89 2.56 2.03.96 3.52 1.67 3.52 3.56 0 2.53-2.17 3.9-4.59 3.9a19.3 19.3 0 0 1-2.81-.4" data-gtm-click_text="Logo (Navigation)" data-gtm-click_url="https://www.blackstone.com" data-gtm-event_name="header_navigation"></path>
										<path d="M81.43 42.9c0-1.96.1-5.18.16-8.38h-1.56v-.39a17.51 17.51 0 0 0 3.7-3.8H84v3.09h3.74v1.07H84v7.83c0 1.39.66 1.94 1.7 1.94a3.33 3.33 0 0 0 2.01-.9l.29.47c-1.33 1.2-2.4 1.86-3.76 1.86a2.7 2.7 0 0 1-2.82-2.8" data-gtm-click_text="Logo (Navigation)" data-gtm-click_url="https://www.blackstone.com" data-gtm-event_name="header_navigation"></path>
										<path d="M88.87 39.39a6.34 6.34 0 1 1 12.69-.08 6.34 6.34 0 0 1-12.7.08m9.97.23c0-3.34-1.34-5.77-3.76-5.77-2.41 0-3.48 2.36-3.48 5.25 0 3.34 1.35 5.78 3.76 5.78 2.42 0 3.48-2.36 3.48-5.26" data-gtm-click_text="Logo (Navigation)" data-gtm-click_url="https://www.blackstone.com" data-gtm-event_name="header_navigation"></path>
										<path d="M112.66 37.48c0-1.77-.83-2.82-2.41-2.82-1.06-.04-2.1.3-2.94.95v4.25c0 1.39 0 2.25.02 3.66.03 1 .2 1.12 1.04 1.22l.95.1v.61h-6.53v-.62l.95-.1c.85-.09 1.01-.2 1.04-1.21.02-1.41.02-2.27.02-3.66V36.5c0-1.34-.28-1.8-1.37-1.9l-.8-.06v-.6a22.9 22.9 0 0 0 4.68-1.05v2.1a7.15 7.15 0 0 1 4.47-1.96c2.13 0 3.39 1.34 3.39 3.8v3.03c0 1.39 0 2.25.02 3.66.03 1 .2 1.12 1.04 1.21l.95.1v.62h-6.53v-.62l.94-.1c.86-.1 1.02-.21 1.05-1.21.02-1.41.02-2.27.02-3.66v-2.38Z" data-gtm-click_text="Logo (Navigation)" data-gtm-click_url="https://www.blackstone.com" data-gtm-event_name="header_navigation"></path>
										<path d="M118.06 39.48c0-3.22 1.98-6.45 5.51-6.45 3.1 0 4.9 2.06 5.1 5.14h-8.34c-.1 3.22 1.4 5.7 4.62 5.7 1.29 0 2.53-.48 3.5-1.33l.31.5c-1.61 1.6-3.29 2.65-5.2 2.65-3.37 0-5.5-2.86-5.5-6.2m2.34-2.1h5.66c0-1.82-.9-3.59-2.7-3.59-1.84 0-2.77 1.77-2.95 3.58" data-gtm-click_text="Logo (Navigation)" data-gtm-click_url="https://www.blackstone.com" data-gtm-event_name="header_navigation"></path>
									</g>
								</svg>