<svg xmlns="http://www.w3.org/2000/svg" width="402" height="101" viewBox="0 0 402 101" fill="none">
  <path d="M290.7 25.0195V36.7695C290.7 38.1495 290.15 39.3795 289.24 40.2895C288.33 41.1995 287.1 41.7495 285.72 41.7495C284.34 41.7495 283.11 41.1995 282.2 40.2895C281.29 39.3795 280.74 38.1495 280.74 36.7695V25.0195H276.39V36.7695C276.39 41.9295 280.57 46.0995 285.72 46.0995C290.88 46.0995 295.05 41.9195 295.05 36.7695V25.0195H290.7Z" fill="#0C2569"/>
  <path d="M201.01 62.1094V73.8594C201.01 75.2394 200.46 76.4694 199.55 77.3794C198.64 78.2894 197.41 78.8394 196.03 78.8394C194.65 78.8394 193.42 78.2894 192.51 77.3794C191.6 76.4694 191.05 75.2394 191.05 73.8594V62.1094H186.7V73.8594C186.7 79.0194 190.88 83.1894 196.03 83.1894C201.19 83.1894 205.36 79.0094 205.36 73.8594V62.1094H201.01Z" fill="#0C2569"/>
  <path d="M317.3 45.7499V33.9999C317.3 28.8399 313.12 24.6699 307.97 24.6699C302.81 24.6699 298.64 28.8499 298.64 33.9999V45.7499H302.99V33.9999C302.99 32.6199 303.54 31.3899 304.45 30.4799C305.36 29.5699 306.59 29.0199 307.97 29.0199C309.35 29.0199 310.58 29.5699 311.49 30.4799C312.4 31.3899 312.95 32.6199 312.95 33.9999V45.7499H317.3Z" fill="#0C2569"/>
  <path d="M370.93 45.7491V34.3691C370.93 32.9891 371.48 31.7591 372.39 30.8491C373.3 29.9391 374.53 29.3891 375.91 29.3891H377.95V25.0391H375.91C370.75 25.0391 366.58 29.2191 366.58 34.3691V45.7491H370.93Z" fill="#0C2569"/>
  <path d="M152.06 45.7491V34.3691C152.06 32.9891 152.61 31.7591 153.52 30.8491C154.43 29.9391 155.66 29.3891 157.04 29.3891H159.08V25.0391H157.04C151.88 25.0391 147.71 29.2191 147.71 34.3691V45.7491H152.06Z" fill="#0C2569"/>
  <path d="M153.49 82.7198V71.3398C153.49 69.9598 154.04 68.7298 154.95 67.8198C155.86 66.9098 157.09 66.3598 158.47 66.3598H160.51V62.0098H158.47C153.31 62.0098 149.14 66.1898 149.14 71.3398V82.7198H153.49Z" fill="#0C2569"/>
  <path d="M330.84 42.3196C327.22 42.3196 324.85 39.5096 324.85 35.4496C324.85 31.3896 327.22 28.6196 330.84 28.6196C334.46 28.6196 336.83 31.4296 336.83 35.5296C336.83 39.6296 334.46 42.3196 330.84 42.3196ZM336.79 28.0096C335.46 26.1996 333.25 24.9196 330.12 24.9196C324.53 24.9196 320.4 29.0996 320.4 35.4496C320.4 41.7996 324.54 45.9796 330.12 45.9796C333.38 45.9796 335.5 44.4496 336.83 42.6396L337.35 45.7296H341.13V17.5996H336.79V28.0096Z" fill="#0C2569"/>
  <path d="M359.06 45.7399V42.4499C357.69 44.5399 355.6 45.9899 352.27 45.9899C347.77 45.9899 344.63 43.7799 344.63 39.9599C344.63 35.7399 347.68 33.3699 353.43 33.3699H358.61V32.1199C358.61 29.8299 356.96 28.4199 354.11 28.4199C351.54 28.4199 349.81 29.6199 349.49 31.4299H345.23C345.67 27.4099 349.13 24.9199 354.31 24.9199C359.77 24.9199 362.91 27.5299 362.91 32.3899V45.7299M358.61 36.5699H353.23C350.54 36.5699 349.05 37.5699 349.05 39.6599C349.05 41.3899 350.5 42.5899 352.87 42.5899C356.49 42.5899 358.58 40.4599 358.62 37.2899V36.5699H358.61Z" fill="#0C2569"/>
  <path d="M388.58 45.7095L387.78 47.7195C387.14 49.4095 386.73 49.8095 385.05 49.8095H382V53.6295H386.66C389.67 53.6295 390.56 52.1395 391.84 48.8095L401.16 25.0195H396.54L390.95 40.6495L385.2 25.0195H380.58L388.58 45.7095Z" fill="#0C2569"/>
  <path d="M132.79 82.9588C137.26 82.9588 140.15 80.9488 141.52 78.9388L141.92 82.7188H145.5V67.3088H133.27V71.2088H141.08V71.8888C140.84 76.4388 137.34 78.8888 132.99 78.8888C127.6 78.8888 124.22 74.6588 124.22 68.6288C124.22 62.5988 127.68 58.3688 133.03 58.3688C136.93 58.3688 139.63 60.5388 140.47 64.1188H145.26C144.42 58.1588 139.67 54.2988 133.15 54.2988C124.78 54.2988 119.47 60.0488 119.47 68.6188C119.47 77.1888 124.9 82.9388 132.79 82.9388V82.9588Z" fill="#0C2569"/>
  <path d="M171.43 42.2999C167.77 42.2999 165.39 39.4399 165.39 35.4599C165.39 31.4799 167.77 28.6199 171.43 28.6199C175.09 28.6199 177.51 31.4799 177.51 35.4599C177.51 39.4399 175.1 42.2999 171.43 42.2999ZM171.43 45.9999C177.71 45.9999 181.93 41.7799 181.93 35.4599C181.93 29.1399 177.71 24.9199 171.43 24.9199C165.15 24.9199 160.93 29.1799 160.93 35.4599C160.93 41.7399 165.16 45.9999 171.43 45.9999Z" fill="#0C2569"/>
  <path d="M184.44 38.9687C184.56 43.4387 188.34 46.0087 193.85 46.0087C198.84 46.0087 202.58 43.5187 202.58 39.5687C202.58 34.9787 198.76 34.0187 194.05 33.4487C191.07 33.1287 189.1 32.8887 189.1 30.9487C189.1 29.2987 190.79 28.2487 193.37 28.2487C195.95 28.2487 197.72 29.5787 197.96 31.4687H202.23C201.95 27.2487 198.37 24.9087 193.3 24.9087C188.35 24.8687 184.85 27.3987 184.85 31.3087C184.85 35.5787 188.55 36.5787 193.26 37.1387C196.44 37.5387 198.33 37.6987 198.33 39.9187C198.33 41.5687 196.56 42.6187 193.86 42.6187C190.72 42.6187 188.87 41.0887 188.71 38.9587H184.45L184.44 38.9687Z" fill="#0C2569"/>
  <path d="M205.71 38.9687C205.83 43.4387 209.61 46.0087 215.12 46.0087C220.11 46.0087 223.85 43.5187 223.85 39.5687C223.85 34.9787 220.03 34.0187 215.32 33.4487C212.34 33.1287 210.37 32.8887 210.37 30.9487C210.37 29.2987 212.06 28.2487 214.64 28.2487C217.22 28.2487 218.99 29.5787 219.23 31.4687H223.5C223.22 27.2487 219.64 24.9087 214.57 24.9087C209.62 24.8687 206.12 27.3987 206.12 31.3087C206.12 35.5787 209.82 36.5787 214.53 37.1387C217.71 37.5387 219.6 37.6987 219.6 39.9187C219.6 41.5687 217.83 42.6187 215.13 42.6187C211.99 42.6187 210.14 41.0887 209.98 38.9587H205.72L205.71 38.9687Z" fill="#0C2569"/>
  <path d="M239.19 33.3698C242.77 33.3698 244.86 34.8998 244.86 37.6798C244.86 40.2998 242.89 41.8598 239.19 41.8598H233.07V33.3698H239.19ZM238.91 21.4598C242.13 21.4598 243.9 22.9898 243.9 25.4798C243.9 27.9698 242.09 29.5398 238.91 29.5398H233.08V21.4498H238.91V21.4598ZM228.45 45.7598H239.16C245.96 45.7598 249.62 42.6998 249.62 37.7098C249.62 33.6898 247.04 31.7098 243.7 31.1898C246.64 30.3898 248.53 28.3698 248.53 25.0298C248.53 20.3998 244.99 17.5898 238.79 17.5898H228.45V45.7598Z" fill="#0C2569"/>
  <path d="M262.81 42.2999C259.15 42.2999 256.77 39.4399 256.77 35.4599C256.77 31.4799 259.15 28.6199 262.81 28.6199C266.47 28.6199 268.89 31.4799 268.89 35.4599C268.89 39.4399 266.48 42.2999 262.81 42.2999ZM262.81 45.9999C269.09 45.9999 273.31 41.7799 273.31 35.4599C273.31 29.1399 269.09 24.9199 262.81 24.9199C256.53 24.9199 252.31 29.1799 252.31 35.4599C252.31 41.7399 256.54 45.9999 262.81 45.9999Z" fill="#0C2569"/>
  <path d="M229.8 72.4189C229.8 78.7789 225.7 82.9589 220.06 82.9589C216.88 82.9589 214.67 81.6689 213.38 79.8189V90.7689H209.03V62.1189H212.81L213.33 65.1789C214.7 63.3689 216.83 61.8789 220.05 61.8789C225.68 61.8789 229.79 65.8189 229.79 72.4189H229.8ZM225.37 72.4189C225.37 68.3589 222.96 65.5789 219.33 65.5789C215.7 65.5789 213.33 68.3589 213.33 72.3389C213.33 76.3189 215.7 79.2989 219.33 79.2989C222.96 79.2989 225.37 76.4389 225.37 72.4189Z" fill="#0C2569"/>
  <path d="M162.35 72.4189C162.35 66.1389 166.57 61.8789 172.85 61.8789C179.13 61.8789 183.35 66.1389 183.35 72.4189C183.35 78.6989 179.12 82.9589 172.85 82.9589C166.58 82.9589 162.35 78.7389 162.35 72.4189ZM178.93 72.4189C178.93 68.4389 176.52 65.5789 172.85 65.5789C169.18 65.5789 166.81 68.4389 166.81 72.4189C166.81 76.3989 169.18 79.2589 172.85 79.2589C176.52 79.2589 178.93 76.3989 178.93 72.4189Z" fill="#0C2569"/>
  <path d="M132.79 46.0096C139.35 46.0096 144.14 42.1496 145.02 36.1896H140.23C139.34 39.7696 136.65 41.9396 132.75 41.9396C127.44 41.9396 124.22 37.6696 124.22 31.6796C124.22 25.6896 127.52 21.4196 132.87 21.4196C136.69 21.4196 139.35 23.6296 140.27 27.1696H145.06C144.13 21.2096 139.51 17.3496 133.07 17.3496C124.74 17.3496 119.47 23.0996 119.47 31.6696C119.47 40.2396 124.58 45.9896 132.79 45.9896V46.0096Z" fill="#0C2569"/>
  <path d="M50.04 100.08C77.6763 100.08 100.08 77.6763 100.08 50.04C100.08 22.4037 77.6763 0 50.04 0C22.4037 0 0 22.4037 0 50.04C0 77.6763 22.4037 100.08 50.04 100.08Z" fill="#0C2569"/>
  <path d="M91.6602 72.1105C92.2954 72.1105 92.8102 71.5957 92.8102 70.9605C92.8102 70.3254 92.2954 69.8105 91.6602 69.8105C91.0251 69.8105 90.5103 70.3254 90.5103 70.9605C90.5103 71.5957 91.0251 72.1105 91.6602 72.1105Z" fill="white"/>
  <path d="M90.9799 65.7293C91.7255 65.7293 92.3299 65.1249 92.3299 64.3793C92.3299 63.6337 91.7255 63.0293 90.9799 63.0293C90.2343 63.0293 89.6299 63.6337 89.6299 64.3793C89.6299 65.1249 90.2343 65.7293 90.9799 65.7293Z" fill="white"/>
  <path d="M89.1901 59.0492C90.0462 59.0492 90.7401 58.3553 90.7401 57.4992C90.7401 56.6432 90.0462 55.9492 89.1901 55.9492C88.3341 55.9492 87.6401 56.6432 87.6401 57.4992C87.6401 58.3553 88.3341 59.0492 89.1901 59.0492Z" fill="white"/>
  <path d="M86.2903 52.2993C87.2623 52.2993 88.0503 51.5113 88.0503 50.5393C88.0503 49.5673 87.2623 48.7793 86.2903 48.7793C85.3183 48.7793 84.5303 49.5673 84.5303 50.5393C84.5303 51.5113 85.3183 52.2993 86.2903 52.2993Z" fill="white"/>
  <path d="M82.2901 45.67C83.3726 45.67 84.2501 44.7925 84.2501 43.71C84.2501 42.6275 83.3726 41.75 82.2901 41.75C81.2076 41.75 80.3301 42.6275 80.3301 43.71C80.3301 44.7925 81.2076 45.67 82.2901 45.67Z" fill="white"/>
  <path d="M77.1702 39.4001C78.3632 39.4001 79.3302 38.433 79.3302 37.2401C79.3302 36.0471 78.3632 35.0801 77.1702 35.0801C75.9773 35.0801 75.0103 36.0471 75.0103 37.2401C75.0103 38.433 75.9773 39.4001 77.1702 39.4001Z" fill="white"/>
  <path d="M70.9401 33.7102C72.2435 33.7102 73.3001 32.6536 73.3001 31.3502C73.3001 30.0468 72.2435 28.9902 70.9401 28.9902C69.6367 28.9902 68.5801 30.0468 68.5801 31.3502C68.5801 32.6536 69.6367 33.7102 70.9401 33.7102Z" fill="white"/>
  <path d="M63.5903 28.8095C65.0041 28.8095 66.1503 27.6633 66.1503 26.2495C66.1503 24.8356 65.0041 23.6895 63.5903 23.6895C62.1764 23.6895 61.0303 24.8356 61.0303 26.2495C61.0303 27.6633 62.1764 28.8095 63.5903 28.8095Z" fill="white"/>
  <path d="M55.1301 24.9399C56.6544 24.9399 57.8901 23.7042 57.8901 22.1799C57.8901 20.6556 56.6544 19.4199 55.1301 19.4199C53.6058 19.4199 52.3701 20.6556 52.3701 22.1799C52.3701 23.7042 53.6058 24.9399 55.1301 24.9399Z" fill="white"/>
  <path d="M8.25996 30.6488C8.97793 30.6488 9.55996 30.0668 9.55996 29.3488C9.55996 28.6308 8.97793 28.0488 8.25996 28.0488C7.54199 28.0488 6.95996 28.6308 6.95996 29.3488C6.95996 30.0668 7.54199 30.6488 8.25996 30.6488Z" fill="white"/>
  <path d="M13.1197 26.7307C14.02 26.7307 14.7497 26.0009 14.7497 25.1007C14.7497 24.2005 14.02 23.4707 13.1197 23.4707C12.2195 23.4707 11.4897 24.2005 11.4897 25.1007C11.4897 26.0009 12.2195 26.7307 13.1197 26.7307Z" fill="white"/>
  <path d="M19.7098 23.6207C20.7867 23.6207 21.6598 22.7477 21.6598 21.6707C21.6598 20.5937 20.7867 19.7207 19.7098 19.7207C18.6328 19.7207 17.7598 20.5937 17.7598 21.6707C17.7598 22.7477 18.6328 23.6207 19.7098 23.6207Z" fill="white"/>
  <path d="M27.81 21.6689C29.0637 21.6689 30.08 20.6526 30.08 19.3989C30.08 18.1452 29.0637 17.1289 27.81 17.1289C26.5564 17.1289 25.54 18.1452 25.54 19.3989C25.54 20.6526 26.5564 21.6689 27.81 21.6689Z" fill="white"/>
  <path d="M37.2101 21.1898C38.6405 21.1898 39.8001 20.0302 39.8001 18.5998C39.8001 17.1694 38.6405 16.0098 37.2101 16.0098C35.7797 16.0098 34.6201 17.1694 34.6201 18.5998C34.6201 20.0302 35.7797 21.1898 37.2101 21.1898Z" fill="white"/>
  <path d="M42.9717 26.6741C43.0979 25.2548 42.0496 24.002 40.6303 23.8758C39.211 23.7497 37.9581 24.7979 37.832 26.2172C37.7058 27.6365 38.7541 28.8894 40.1734 29.0156C41.5927 29.1417 42.8455 28.0934 42.9717 26.6741Z" fill="white"/>
  <path d="M37.7882 34.4282C37.9066 33.097 36.9233 31.9218 35.592 31.8035C34.2607 31.6851 33.0856 32.6684 32.9672 33.9997C32.8489 35.3309 33.8321 36.5061 35.1634 36.6244C36.4947 36.7428 37.6699 35.7595 37.7882 34.4282Z" fill="white"/>
  <path d="M34.0144 42.8561C34.1249 41.6129 33.2066 40.5154 31.9634 40.4049C30.7201 40.2944 29.6226 41.2127 29.5121 42.4559C29.4016 43.6992 30.3199 44.7966 31.5631 44.9071C32.8064 45.0177 33.9039 44.0994 34.0144 42.8561Z" fill="white"/>
  <path d="M31.514 51.6747C31.6167 50.5194 30.7634 49.4997 29.6082 49.397C28.4529 49.2943 27.4332 50.1475 27.3305 51.3028C27.2278 52.458 28.081 53.4778 29.2363 53.5805C30.3915 53.6832 31.4113 52.8299 31.514 51.6747Z" fill="white"/>
  <path d="M28.2598 62.3995C29.3313 62.3995 30.1998 61.531 30.1998 60.4595C30.1998 59.3881 29.3313 58.5195 28.2598 58.5195C27.1884 58.5195 26.3198 59.3881 26.3198 60.4595C26.3198 61.531 27.1884 62.3995 28.2598 62.3995Z" fill="white"/>
  <path d="M29.9556 69.4699C30.0426 68.4907 29.3194 67.6264 28.3402 67.5393C27.361 67.4523 26.4966 68.1755 26.4096 69.1547C26.3225 70.1339 27.0458 70.9983 28.025 71.0853C29.0042 71.1724 29.8685 70.4492 29.9556 69.4699Z" fill="white"/>
  <path d="M30.6808 77.9076C30.76 77.0164 30.1018 76.2298 29.2106 76.1505C28.3194 76.0713 27.5327 76.7296 27.4535 77.6207C27.3743 78.5119 28.0325 79.2986 28.9237 79.3778C29.8149 79.457 30.6015 78.7988 30.6808 77.9076Z" fill="white"/>
  <path d="M32.2551 85.6793C32.3265 84.8761 31.7333 84.1671 30.9301 84.0957C30.1269 84.0243 29.418 84.6176 29.3466 85.4207C29.2752 86.2239 29.8684 86.9329 30.6715 87.0043C31.4747 87.0757 32.1837 86.4825 32.2551 85.6793Z" fill="white"/>
  <path d="M34.5892 92.533C34.6527 91.8178 34.1245 91.1866 33.4094 91.123C32.6942 91.0594 32.063 91.5876 31.9994 92.3028C31.9358 93.0179 32.464 93.6492 33.1792 93.7128C33.8943 93.7763 34.5256 93.2481 34.5892 92.533Z" fill="white"/>
  <path d="M76.28 12.5102C76.9979 12.5102 77.58 11.9281 77.58 11.2102C77.58 10.4922 76.9979 9.91016 76.28 9.91016C75.562 9.91016 74.98 10.4922 74.98 11.2102C74.98 11.9281 75.562 12.5102 76.28 12.5102Z" fill="white"/>
  <path d="M69.8502 12.2502C70.7504 12.2502 71.4802 11.5205 71.4802 10.6202C71.4802 9.72001 70.7504 8.99023 69.8502 8.99023C68.95 8.99023 68.2202 9.72001 68.2202 10.6202C68.2202 11.5205 68.95 12.2502 69.8502 12.2502Z" fill="white"/>
  <path d="M62.5101 13.6793C63.587 13.6793 64.4601 12.8062 64.4601 11.7293C64.4601 10.6523 63.587 9.7793 62.5101 9.7793C61.4331 9.7793 60.5601 10.6523 60.5601 11.7293C60.5601 12.8062 61.4331 13.6793 62.5101 13.6793Z" fill="white"/>
  <path d="M54.6201 16.9209C55.8738 16.9209 56.8901 15.9046 56.8901 14.6509C56.8901 13.3972 55.8738 12.3809 54.6201 12.3809C53.3664 12.3809 52.3501 13.3972 52.3501 14.6509C52.3501 15.9046 53.3664 16.9209 54.6201 16.9209Z" fill="white"/>
  <path d="M46.5402 22.1195C47.9706 22.1195 49.1302 20.9599 49.1302 19.5295C49.1302 18.099 47.9706 16.9395 46.5402 16.9395C45.1098 16.9395 43.9502 18.099 43.9502 19.5295C43.9502 20.9599 45.1098 22.1195 46.5402 22.1195Z" fill="white"/>
</svg>