<svg xmlns="http://www.w3.org/2000/svg" viewBox="0 0 315 29"><symbol xmlns="http://www.w3.org/2000/svg" id="4254e8c4-0712-4678-96da-95f160cdccfa" viewBox="0 0 315 29">
            <path d="M50.987 24.25h4.454c3.082 0 4.729-1.25 5.584-2.502 1.312-1.891 1.676-3.843 1.676-5.886 0-2.045-.364-3.997-1.676-5.889-.855-1.251-2.502-2.501-5.584-2.501h-4.454V24.25zM47.936 4.846h7.324c2.044.064 4.209.215 5.978 1.344 3.203 2.045 4.668 5.491 4.668 9.672 0 4.179-1.465 7.626-4.668 9.669-1.769 1.131-3.934 1.283-5.978 1.343h-7.324V4.846zm21.631 22.028V4.848h13.819V7.47H72.618v6.868h10.249v2.62H72.618v7.292h11.013v2.624H69.567m37.066-22.026v22.026h-3.783L91.716 8.172h-.063v18.702h-2.715V4.848h4.18l10.739 18.211h.06V4.848h2.716m5.766 22.026V4.848h3.052v9.457h10.463V4.848h3.051v22.026h-3.051v-9.947h-10.463v9.947h-3.052m26.115-8.36h8.207l-3.996-10.647-4.211 10.647zm-6.56 8.36l9.276-22.028h3.264l8.907 22.028h-3.325l-2.38-5.737h-10.219l-2.381 5.737h-3.142zm44.691-19.83h-.059l-7.048 19.83h-2.865l-7.048-19.83h-.062v19.83h-3.049V4.848h5.461L168.318 23h.063l6.223-18.152h5.094v22.026h-3.053V7.044m30.357 3.478c-.15-2.105-2.41-3.509-4.667-3.509-5.431 0-6.436 4.974-6.436 8.849 0 4.544 1.373 8.845 6.163 8.845 2.348 0 4.483-1.159 4.848-3.508h3.205c-.307 3.691-4.028 6.133-8.33 6.133-6.498 0-9.093-5.308-9.093-11.47 0-5.401 2.383-11.687 9.765-11.473 4.24.122 7.413 2.197 7.748 6.133h-3.203m11.168 7.992h8.203l-3.994-10.647-4.209 10.647zm-6.561 8.36l9.273-22.028h3.265l8.91 22.028h-3.328l-2.378-5.737h-10.22l-2.381 5.737h-3.141zm32.275-12.325c.367 0 3.968.183 3.968-3.54 0-3.72-3.601-3.537-3.968-3.537h-4.788v7.077h4.788zm-7.841-9.703h7.385c4.088-.18 7.628 1.344 7.628 6.163 0 4.608-3.754 6.071-7.812 6.163h-4.148v9.702h-3.053V4.846zm18.672 22.028h3.052V4.848h-3.052zm13.577-19.402h-7.383V4.846h17.816v2.626h-7.383v19.402h-3.05V7.472m15.376 11.042h8.208l-3.997-10.647-4.211 10.647zm-6.558 8.36l9.275-22.028h3.264l8.909 22.028h-3.327l-2.379-5.737h-10.221l-2.38 5.737h-3.141zm24.586 0V4.848h3.052V24.25H315v2.624h-13.304M26.693.526L0 21.372V.526h26.693m1.78 1.778V29H17.542L28.473 2.304"></path>
        </symbol><use href="#4254e8c4-0712-4678-96da-95f160cdccfa"></use></svg>