<svg xmlns="http://www.w3.org/2000/svg" xmlns:xlink="http://www.w3.org/1999/xlink" version="1.1" id="Layer_1" x="0px" y="0px" viewBox="0 0 2944 757.4" style="enable-background:new 0 0 2944 757.4;" xml:space="preserve">
<style type="text/css">
	.st0{fill:#231F20;}
	.st1{fill:#F89921;}
</style>
<rect x="1091.2" y="63" class="st0" width="0" height="0"/>
<g>
	<path class="st1" d="M708.2,172.3l0-0.1c-0.1-3.3-1.5-6.6-4.1-9c-5.2-4.8-13.2-4.5-18,0.7L644.3,209c-2.1,2.3-2.4,5.8-0.6,8.5   c2.1,3.1,6.3,3.8,9.4,1.7l19-13.1c-5.9,14.7-16.6,42.1-34,86.9c-35.4,90.8-94.7,242.8-99.5,249.9l-1.7,1.6   c-5.3,5.1-11.3,10.9-16.2,18c-9.8,14.4-14.4,32.2-12.9,49.5c-15,18.6-31.2,34.2-48.3,46.5c-8.4,6.3-18,12.2-29.3,18.1   c-2.5,1.3-5.1,2.6-7.7,3.8c-2.6,1.2-4.8,2.2-7.1,3.1c-4.7,1.8-9.3,2.9-13.3,3.3c-4.2,0.4-7.1-0.2-8.5-0.8c-0.6-0.3-1.1-0.6-1.7-1.2   c-0.4-0.3-0.8-1.1-1.4-2.3c-1.2-2.4-2.2-6.6-3.5-11.4l-0.8-3.2c-0.7-2.4-1.5-4.9-2.3-7.4l-1.8-5c-1.1-2.8-2.2-5.6-3.5-8.3   c-6.1-13-13.3-24.4-20.2-35.4c-6.4-10.2-12.5-19.9-16.8-29.6c-4.7-10.4-6.9-19.5-6.6-28c0.1-7.7,2.1-16.3,4.4-26.4l1.5-6.8   c1.3-6.1,2.7-13.4,3.2-21.4c0.3-4.6,0.2-8.4-0.1-12c-0.1-2.2-0.4-4.3-0.8-6.3l-0.3-1.7c-0.3-1.5-0.5-2.9-0.9-4.3   c-2.1-8.4-5.4-15.8-8-21.4c-3.2-6.3-6.5-12.2-9.7-17.6c-5.9-9.9-12-20.2-14.6-29.2c-1.2-4.4-1.6-8.3-1.4-12c0.2-2,0.4-4.2,0.7-6.5   c0.4-3.9,1-8.3,1.2-13c0.1-3.4,0.2-8.1-0.8-13.5l-1.7-6.3c-0.3-0.7-0.6-1.5-1.1-2.5l-1.1-2.3c-0.4-0.7-0.9-1.5-1.6-2.5   c-0.5-0.8-1.1-1.5-1.8-2.5c-0.7-0.8-1.4-1.5-2.2-2.2c-0.8-0.7-1.5-1.4-2.5-2.2c-0.8-0.6-1.6-1.1-2.5-1.6c-0.9-0.5-1.7-1-3-1.6   l-2.2-0.8c-3.8-1.5-8.2-1.9-11-1.9c-3.9,0.1-6.8,0.5-8.7,0.8c-0.3,0-0.5,0.1-0.8,0.1c-0.5-0.4-1.1-1.1-1.8-1.9l-1.6-1.9   c-1.5-1.8-3.3-3.9-5.4-6.1c-1.7-1.7-3.7-3.5-5.9-5.1c-2.2-1.6-4.8-3-8-4.3c-5.2-2.1-11.4-2.9-17.3-2.4c-5.6,0.5-10.1,1.8-13.5,2.9   c-5,1.8-9.4,3.7-13.2,5.5c-1.8,0.8-3.5,1.6-5.2,2.3c-2.4,1.1-4.4,1.7-6.4,2.3c-2.3,0.6-4.4,1-6.4,1.2c-4.4,0.5-9,0.3-13.8-0.5   c-9.4-1.6-18.9-5.5-27.7-11.4c-8.1-5.4-16.1-12.7-24.5-22.2c-7.8-8.8-15.2-18.7-22.4-28.3c-2.9-3.9-6.1-8.4-7.4-11.8   c-0.6-1.5-0.8-2.6-0.8-3.7c0-1.3,0.2-3,0.7-4.8c0.7-2.6,1.9-5.7,3.2-9.2c0.9-2.2,1.8-4.6,2.7-7.2c1-2.8,2.3-7,3.1-11.9   c0.7-4.4,0.8-8.8,0.5-12.9c-0.4-5.8-1.4-10.9-2.3-15.4c-0.3-1.6-0.6-3.2-0.9-4.7c-1.1-5.8-1.3-10-0.7-12.8c0.3-1.5,0.7-2.7,1.5-4.2   c0.9-1.6,2.2-3.4,3.8-5.2c2.3-2.7,5.2-5.7,8-8.7L165,92.3c3.4-3.7,6.6-7.1,9.8-9.7c3.6-3,6.8-4.7,11.7-6.2c3.5-1.1,7.6-2,11.8-3   l60.5-14.2c11.6-2.7,22.5-5.3,31.1-3c3.4,0.9,6.8,3.2,9.1,6.1c2,2.7,2.8,5.5,2,8c-1.5,4.5,0.2,9.5,4.3,12.1   c11.2,7.3,22.7,14.1,34.2,20.2c5.8,3.1,11.7,6.1,17.7,9.1l2.3,1.1c2.2,1.1,4.5,2.2,7.3,3.3c2.8,1,8.7,3.1,15.5,1c3-1,5.9-3,7.9-5.3   c1.5-1.7,2.4-3.3,3.7-5.3c0.7-1.1,1.2-2,1.8-2.7c0.2-0.2,0.4-0.4,0.9-0.6c2.2-1,7.2-0.5,11.6,0l61.9,6.1c6.1,0.6,11.8,1.2,16.7,3.2   c4.2,1.6,7.7,5.1,10.5,10.3c1.9,3.6,3.6,7.5,5.4,11.7c0.8,1.9,1.6,3.8,2.4,5.6l31,71.4l7.4-3l-27.9-72.7c-0.7-1.9-1.4-3.7-2.1-5.6   c-1.6-4.2-3.2-8.5-5.3-12.9c-1.9-4-3.9-7-6.3-9.5c-2.6-3-6.1-5.4-9.9-7.2c-6.5-3-13.4-4-19.4-4.9l-62.2-8.9   c-2.2-0.3-4.4-0.6-6.9-0.9c-3.9-0.3-8.4-0.5-13.4,1.4c-2.7,1-5.2,2.7-7.1,4.7c-1.7,1.8-2.9,3.5-4,5.2c-0.5,0.8-1.4,2.1-1.9,2.7   c-0.4,0-1.7-0.1-3.5-0.9c-1.8-0.8-3.8-1.9-5.9-3l-2-1.1c-5.6-3-11.1-6.1-16.6-9.4c-8.8-5.2-17.6-10.9-26.2-16.8   c0.1-2.2-0.1-4.4-0.5-6.5c-0.8-4.5-2.7-8.7-5.4-12.8c-5-7.3-12.4-12.7-20.8-15.3c-6.8-2.1-14.3-2.8-23.1-2c-6.8,0.6-13,1.9-19,3.1   l-56,11.4c-1.9,0.4-3.7,0.8-5.6,1.1c-4.3,0.9-8.7,1.7-13.6,3c-4.2,1.1-7.8,2.5-11.1,4.1c-3.4,1.7-6.8,3.8-10.4,6.6   c-4.8,3.8-8.6,7.6-12.3,11.4L85.5,133c-3,3-6,6-9.2,9.6c-3,3.3-5.4,6.6-7.3,9.8c-2.4,3.9-4.2,8.6-5.3,13.3c-2,9.1-1,17.4,0,24.4   l0.8,5.1c0.8,4.5,1.4,8.4,1.6,11.9c0.2,4.2-0.3,6.9-2.1,12c-0.6,1.7-1.4,3.5-2.2,5.4c-1.6,3.8-3.4,8.1-4.9,13.3   c-1.4,4.8-2.1,9.3-2.1,13.6c-0.1,4.7,0.8,10,2.5,14.7c3,8.5,7.5,14.8,11.2,20l0.8,1c7.2,10,14.7,20.3,23.2,30.4   c10.2,11.9,20.2,21.2,30.7,28.5c12.8,8.9,26.6,14.7,41,17.5c8,1.5,15.9,1.9,23.5,1.2c3.9-0.3,7.9-1,12.1-2.1   c3.8-1,7.8-2.4,11.2-3.8c2.2-0.9,4.3-1.8,6.3-2.7c3.6-1.6,6.9-3,9.8-3.9c1.9-0.6,3.6-1,4.7-1.1c0.6,0,0.9,0,1.1,0l0.4,0.2   c0.3,0.2,0.6,0.5,1.1,1.1c1,1,2.1,2.3,3.4,4l2.1,2.5c2.4,2.7,5.6,6.4,10.9,9.8c3.5,2.1,6.7,3.4,9.7,4c3,0.7,6.4,1,10.1,0.8   c1-0.1,1.9-0.2,2.7-0.3c0,0.3,0,0.6,0,1c-0.1,2.9-0.5,6-1,9.5c-0.3,2.6-0.7,5.4-1,8.4c-0.7,8,0.1,16.5,2.5,25.2   c3.9,13.6,10.3,24.7,15.9,34.5l2,3.6c2.5,4.3,5.6,9.9,8.2,15.2c2.6,5.5,4.2,9.9,5.1,13.7c1,4.7,1.3,8.7,1,13   c-0.3,4.2-1,9.2-2.5,15.6c-0.5,2.5-1.1,5-1.8,7.7c-2.3,9.6-4.8,20.5-5.2,32.8c-0.1,2.8,0.1,5.6,0.3,8.3c0.1,1.1,0.2,2.3,0.3,3.8   c0.5,3.8,1.2,7.7,2.1,11.6l0.8,2.9c0.7,2.7,1.5,5.4,2.4,7.8l1.9,5.2c0.5,1.1,0.9,2.2,1.4,3.3l0.7,1.7c5.6,12.5,12.3,23.3,18.8,33.7   l0.8,1.3c7.1,11.4,12.9,20.9,17.3,30.4c0.8,1.7,1.5,3.5,2.2,5.2l0.8,1.9c0.3,1,0.7,2.1,1,3.1c0.5,1.4,1,2.9,1.4,4.4   c0.3,1.3,0.7,2.6,1,4c1.2,4.7,2.6,10.5,5.6,17.1c2.4,5.2,5.5,9.6,8.9,13c3.5,3.8,8.2,7,13.8,9.5c4.3,1.9,9.1,3.1,15,3.8   c1.6,0.2,3.3,0.2,5,0.2c2.7,0,5.4-0.2,8.5-0.6c7.8-1.1,15.3-3.2,22.9-6.4c3-1.3,6.2-2.8,9.8-4.8c3.1-1.6,6-3.3,8.9-5.1   c10.9-6.4,21.6-14.3,32.7-24.2c20.5-18.5,36.9-40.8,47.6-64.4l0.3-0.7c0.9-1.9,1.2-4,0.9-6c-2.1-13.3,1.2-27.8,8.8-38.8   c3.6-5.3,8.8-10.3,14.2-15.5l0.9-0.8c3.3-3.2,23.8-53.9,95.5-236c17.3-44,33.9-86.1,42.2-106.6l5.5,23.2c0.7,3,3.5,5.3,6.8,5.2   c3.7-0.1,6.7-3.2,6.6-6.9L708.2,172.3z"/>
	<g>
		<g>
			<path d="M1086.9,624.4l14.2,0c10.2,0,17,3.5,17,13.6c0,9.7-7,14.3-17,14.3l-8.3,0l0,18.3l-5.9,0L1086.9,624.4z M1100.3,647.5     c8.1,0,12-3,12-9.5c0-6.7-4-8.9-12-8.9l-7.5,0l0,18.4L1100.3,647.5z"/>
		</g>
		<g>
			<path d="M1149.7,647.3c0-14.8,8.2-23.7,19.8-23.7c11.6,0,19.7,9,19.7,23.7c0,14.9-8.2,24.2-19.7,24.2     C1157.9,671.5,1149.7,662.2,1149.7,647.3z M1183.2,647.3c0-11.5-5.4-18.6-13.7-18.6c-8.3,0-13.7,7.1-13.7,18.6     c0,11.6,5.4,19,13.7,19C1177.8,666.3,1183.2,658.9,1183.2,647.3z"/>
		</g>
		<g>
			<path d="M1219,624.4l6.1,0l4.9,25.1c0.9,5,1.8,9.9,2.7,14.9l0.3,0c1-5,2.1-10,3.2-14.9l6.4-25.1l5.4,0l6.4,25.2     c1.1,4.9,2.2,9.9,3.3,14.9l0.3,0c0.9-5,1.8-10,2.6-14.9l4.9-25.1l5.7,0l-9.6,46.2l-7.1,0l-7-27.8c-0.8-3.6-1.5-6.9-2.2-10.5     l-0.3,0c-0.8,3.6-1.5,6.9-2.3,10.5l-6.9,27.8l-7,0L1219,624.4z"/>
		</g>
		<g>
			<path d="M1304.1,624.5l26.6,0l0,4.9l-20.7,0l0,14.5l17.5,0l0,5l-17.5,0l0,16.8l21.4,0l0,5l-27.3,0L1304.1,624.5z"/>
		</g>
		<g>
			<path d="M1391.5,670.7l-11.1-19.5l-8.3,0l0,19.5l-5.9,0l0-46.2l14.5,0c9.4,0,16.1,3.4,16.1,13c0,7.2-4.1,11.5-10.4,13.1     l11.8,20.2L1391.5,670.7z M1372.1,646.4l7.8,0c7.2,0,11.1-3,11.1-8.9c0-6.1-3.9-8.2-11.1-8.2l-7.8,0L1372.1,646.4z"/>
		</g>
		<g>
			<path d="M1432.1,624.5l5.9,0l0,46.2l-5.9,0L1432.1,624.5z"/>
		</g>
		<g>
			<path d="M1475.6,624.5l6.1,0l16.7,29l5,9.6l0.3,0c-0.3-4.7-0.8-9.9-0.8-14.7l0-23.9l5.6,0l0,46.2l-6,0l-16.7-29.1l-5-9.5l-0.3,0     c0.3,4.7,0.7,9.6,0.7,14.4l0,24.2l-5.6,0L1475.6,624.5z"/>
		</g>
		<g>
			<path d="M1564.8,623.7c6.3,0,10.5,2.9,13.2,5.7l-3.4,3.7c-2.3-2.5-5.2-4.3-9.8-4.3c-9.4,0-15.4,7.2-15.4,18.7     c0,11.6,5.5,19,15.4,19c3.3,0,6.5-1.1,8.4-2.7l0-12l-9.8,0l0-4.9l15.1,0l0,19.4c-3,3-8.2,5.4-14.4,5.3c-12.1,0-20.8-8.9-20.8-24     C1543.4,632.8,1552.4,623.7,1564.8,623.7z"/>
		</g>
		<g>
			<path d="M1675.2,656.7l-16.8,0l-4.4,14.1l-6,0l15.7-46.2l6.6,0l15.6,46.2l-6.2,0L1675.2,656.7z M1673.8,652l-2.2-7     c-1.6-5.1-3.1-10.2-4.6-15.6l-0.3,0c-1.5,5.4-3,10.4-4.6,15.6l-2.3,7L1673.8,652z"/>
		</g>
		<g>
			<path d="M1717.4,624.6l26.7,0l0,4.9l-20.8,0l0,15.6l17.6,0l0,4.9l-17.6,0l0,20.7l-5.9,0L1717.4,624.6z"/>
		</g>
		<g>
			<path d="M1802.5,670.9l-11.1-19.5l-8.3,0l0,19.5l-5.9,0l0-46.2l14.5,0c9.4,0,16.1,3.4,16.1,13c0,7.2-4.1,11.5-10.4,13.1     l11.8,20.2L1802.5,670.9z M1783,646.6l7.8,0c7.2,0,11.1-3,11.1-8.9c0-6.1-3.9-8.2-11.1-8.2l-7.8,0L1783,646.6z"/>
		</g>
		<g>
			<path d="M1843,624.7l5.9,0l0,46.2l-5.9,0L1843,624.7z"/>
		</g>
		<g>
			<path d="M1904.5,623.9c5.5,0,9.9,2.7,12.6,5.7l-3.3,3.7c-2.5-2.6-5.4-4.3-9.2-4.3c-8.8,0-14.7,7.2-14.7,18.7     c0,11.6,5.6,19,14.4,19c4.4,0,7.6-1.8,10.6-5.1l3.3,3.6c-3.6,4.2-8.2,6.7-14,6.7c-11.6,0-20.3-8.9-20.3-24     C1883.9,632.9,1892.7,623.9,1904.5,623.9z"/>
		</g>
		<g>
			<path d="M1972.9,656.9l-16.8,0l-4.4,14.1l-6,0l15.7-46.2l6.6,0l15.6,46.2l-6.2,0L1972.9,656.9z M1971.4,652.1l-2.2-7     c-1.6-5.1-3.1-10.2-4.6-15.6l-0.3,0c-1.5,5.4-3,10.4-4.6,15.6l-2.3,7L1971.4,652.1z"/>
		</g>
		<g>
			<path d="M2009.4,637.9c3.5-2.3,5.3-4.7,5.3-8.8c-0.2,0.1-0.4,0.1-0.6,0.1c-2,0-3.7-1.3-3.7-3.5c0-2.5,1.6-3.9,3.7-3.9     c2.7,0,4.4,2.3,4.4,6.4c0,5.6-2.7,9.6-7.5,12.5L2009.4,637.9z"/>
		</g>
		<g>
			<path d="M2054.2,660.9c3.3,3.5,7.9,5.8,12.8,5.8c6.1,0,9.7-3,9.7-7.5c0-4.7-3.4-6.2-7.7-8.2l-6.6-2.9c-4.3-1.8-9.4-5.1-9.4-11.9     c0-7,6.2-12.3,14.6-12.3c5.5,0,10.3,2.3,13.6,5.7l-3.1,3.8c-2.8-2.7-6.3-4.4-10.5-4.4c-5.2,0-8.7,2.6-8.7,6.8     c0,4.4,4.1,6.1,7.7,7.7l6.6,2.8c5.3,2.3,9.5,5.5,9.5,12.3c0,7.3-6.1,13.2-15.8,13.2c-6.5,0-12.1-2.7-16.1-6.8L2054.2,660.9z"/>
		</g>
		<g>
			<path d="M2174.8,624c6.3,0,10.5,2.9,13.2,5.7l-3.4,3.7c-2.3-2.5-5.2-4.3-9.8-4.3c-9.4,0-15.4,7.2-15.4,18.7     c0,11.6,5.5,19,15.4,19c3.3,0,6.5-1.1,8.4-2.7l0-12l-9.8,0l0-4.9l15.1,0l0,19.4c-3,3-8.2,5.4-14.4,5.3c-12.1,0-20.8-8.9-20.8-24     C2153.4,633.1,2162.4,624,2174.8,624z"/>
		</g>
		<g>
			<path d="M2249.9,671.1l-11.1-19.5l-8.3,0l0,19.5l-5.9,0l0-46.2l14.5,0c9.4,0,16.1,3.4,16.1,13c0,7.2-4.1,11.5-10.4,13.1     l11.8,20.2L2249.9,671.1z M2230.5,646.8l7.8,0c7.2,0,11.1-3,11.1-8.9c0-6.1-3.9-8.2-11.1-8.2l-7.8,0L2230.5,646.8z"/>
		</g>
		<g>
			<path d="M2287.8,647.8c0-14.8,8.2-23.7,19.8-23.7c11.5,0,19.7,9,19.7,23.7c0,14.9-8.2,24.2-19.7,24.2     C2295.9,671.9,2287.8,662.6,2287.8,647.8z M2321.2,647.8c0-11.5-5.4-18.6-13.6-18.6c-8.3,0-13.7,7.1-13.7,18.6     c0,11.6,5.4,19,13.7,19C2315.8,666.8,2321.2,659.3,2321.2,647.8z"/>
		</g>
		<g>
			<path d="M2357.1,624.9l6.1,0l4.9,25.2c0.9,5,1.8,9.9,2.7,14.9l0.3,0c1-5,2.1-10,3.2-14.9l6.4-25.1l5.4,0l6.4,25.2     c1.1,4.9,2.2,9.9,3.3,14.9l0.3,0c0.9-5,1.8-10,2.6-14.9l4.9-25.1l5.7,0l-9.6,46.2l-7.1,0l-7-27.8c-0.8-3.6-1.5-6.9-2.2-10.5     l-0.3,0c-0.8,3.6-1.5,6.9-2.3,10.5l-6.9,27.8l-7,0L2357.1,624.9z"/>
		</g>
		<g>
			<path d="M2451.8,629.9l-14,0l0-4.9l33.9,0l0,4.9l-14,0l0,41.3l-5.8,0L2451.8,629.9z"/>
		</g>
		<g>
			<path d="M2504.9,625l5.9,0l0,19.4l21.5,0l0-19.4l5.9,0l0,46.2l-5.9,0l0-21.8l-21.5,0l0,21.8l-5.9,0L2504.9,625z"/>
		</g>
	</g>
	<g>
		<g>
			<rect x="735.6" y="641.4" class="st1" width="300.1" height="7.9"/>
		</g>
		<g>
			<rect x="2589.2" y="641.4" class="st1" width="300.1" height="7.9"/>
		</g>
	</g>
	<g>
		<path d="M980.2,401.2c0,39.4-10.7,70.8-32.1,94.3c-21.4,23.5-50.5,35.2-87.4,35.2c-35.9,0-65.6-12.1-89.2-36.2    c-23.6-24.2-35.4-54.7-35.4-91.7c0-36.5,11.7-67,35.2-91.4c23.5-24.4,52.8-36.6,88.1-36.6c22.6,0,42.6,4.2,59.8,12.7    c17.3,8.4,31.6,20.9,42.9,37.5l-20.5,16.4c-8.8-13.2-20.2-23.3-34.1-30.3c-13.9-7-29.5-10.5-46.8-10.5c-28.1,0-51.4,9.8-69.7,29.4    c-18.3,19.6-27.5,44.4-27.5,74.3c0,28.4,9.3,52.2,28,71.5c18.6,19.3,41.7,29,69.2,29c24.3,0,44.9-7.4,61.7-22.3    c16.8-14.9,26-33.6,27.7-56.1h-76.9v-25.3H980.2z"/>
		<path d="M1195,525.7h-92.9v-246h27.4v220.8h65.5V525.7z"/>
		<path d="M1535.9,402.7c0,36-12.4,66.3-37.3,91c-24.9,24.6-55.4,37-91.6,37c-36.3,0-66.9-12.3-91.7-37    c-24.8-24.7-37.2-55-37.2-90.9c0-36.4,12.3-66.9,36.9-91.3c24.6-24.4,55.3-36.6,92-36.6c36.6,0,67.3,12.2,91.9,36.6    C1523.6,335.9,1535.9,366.3,1535.9,402.7z M1508.5,402.7c0-28.8-9.7-53-29.2-72.6c-19.4-19.6-43.5-29.5-72.3-29.5    c-30.5,0-55,10-73.6,30c-18.6,20-27.9,44-27.9,72.2c0,28.8,9.7,53,29,72.6c19.3,19.6,43.5,29.5,72.5,29.5    c28.7,0,52.7-9.9,72.2-29.6C1498.7,455.6,1508.5,431.4,1508.5,402.7z"/>
		<path d="M1801.4,456.3c0,23.4-7.2,40.8-21.5,52.3c-14.3,11.5-36.1,17.2-65.3,17.2h-56.7v-246h49.5c22.8,0,40.7,5.6,53.5,16.9    c12.8,11.3,19.3,26.7,19.3,46.4c0,13.7-3.1,25-9.3,33.9c-6.2,8.9-14.9,14.6-26.2,17c17,2.1,30.7,9,41.1,20.6    C1796.2,426.1,1801.4,440,1801.4,456.3z M1752.8,345.2c0-13.9-3.8-24.1-11.3-30.6c-7.5-6.5-19.3-9.7-35.4-9.7h-20.9v80.5h16.6    c17,0,29.7-3.3,38.2-10C1748.5,368.8,1752.8,358.7,1752.8,345.2z M1774,456.3c0-15.1-5.5-26.7-16.4-34.8    c-10.9-8.1-26.7-12.2-47.3-12.2h-25v91.3h30.3c20.7,0,35.6-3.6,44.8-10.8C1769.4,482.6,1774,471.5,1774,456.3z"/>
		<path d="M2052.5,525.7h-124.6v-246h124.6v25.8h-97.2v74.7h97.2v25.6h-97.2v94h97.2V525.7z"/>
		<path d="M2279.9,525.7H2187v-246h27.4v220.8h65.5V525.7z"/>
		<path d="M2518.8,525.7h-124.6v-246h124.6v25.8h-97.2v74.7h97.2v25.6h-97.2v94h97.2V525.7z"/>
		<path d="M2889.3,525.7h-32.7l-19-20.6c-11.2,8.3-23.4,14.6-36.7,19c-13.3,4.4-27.2,6.5-41.5,6.5c-36.3,0-66.9-12.3-91.7-37    c-24.8-24.7-37.2-55-37.2-90.9c0-36.4,12.3-66.9,36.9-91.3s55.3-36.6,92-36.6c36.6,0,67.3,12.2,91.9,36.6    c24.6,24.4,37,54.9,37,91.3c0,16.2-2.8,31.8-8.5,46.5c-5.7,14.8-13.8,28-24.5,39.7L2889.3,525.7z M2860.9,402.7    c0-28.8-9.7-53-29.2-72.6c-19.4-19.6-43.5-29.5-72.3-29.5c-30.5,0-55,10-73.4,29.9c-18.5,19.9-27.7,44-27.7,72.2    c0,28.8,9.6,53,28.8,72.6c19.2,19.6,43.3,29.5,72.3,29.5c11,0,21.7-1.6,31.9-4.9s19.7-8,28.4-14.4l-53.5-58h32.5l38.5,41.7    c7.6-9.1,13.5-19.4,17.5-30.7S2860.9,415.3,2860.9,402.7z"/>
	</g>
</g>
</svg>