<svg xmlns="http://www.w3.org/2000/svg" id="Layer_1" data-name="Layer 1" viewBox="0 0 146.3 34.8">
  <defs>
    <style>
      .cls-1, .cls-2 {
        fill: #000;
      }

      .cls-1, .cls-3, .cls-4 {
        stroke-width: 0px;
      }

      .cls-5 {
        stroke-width: .1px;
      }

      .cls-5, .cls-2 {
        stroke: #000;
      }

      .cls-5, .cls-4 {
        fill: #fff;
      }

      .cls-2 {
        stroke-width: .2px;
      }

      .cls-3 {
        fill: #9a122f;
      }
    </style>
  </defs>
  <g id="Layer_1-2" data-name="Layer 1">
    <g>
      <path class="cls-1" d="M37.8,2.1h1.5v3h2.4v-3h1.5v7.4h-1.5v-3h-2.4v3h-1.5V2.1Z"/>
      <path class="cls-1" d="M47.3,2h1.5l2.7,7.5h-1.6l-.6-1.6h-2.6l-.5,1.6h-1.6l2.7-7.5ZM48.8,6.5l-.8-2.4-.8,2.4h1.6Z"/>
      <path class="cls-1" d="M52.8,2.1h2.8c.9,0,1.6.2,2,.7.4.4.6,1,.6,1.7h0c0,1.1-.6,1.8-1.4,2.2l1.6,2.8h-1.8l-1.4-2.4h-1v2.4h-1.5V2.1h.1ZM55.5,5.7c.8,0,1.2-.4,1.2-1.1h0c0-.7-.5-1.1-1.2-1.1h-1.1v2.2h1.1Z"/>
      <path class="cls-1" d="M59.2,2.1h1.7l1.6,5.1,1.6-5.1h1.6l-2.5,7.5h-1.4l-2.6-7.5Z"/>
      <path class="cls-1" d="M68.3,2h1.5l2.7,7.5h-1.6l-.6-1.6h-2.6l-.5,1.6h-1.6l2.7-7.5ZM69.8,6.5l-.8-2.4-.8,2.4h1.6Z"/>
      <path class="cls-1" d="M73.8,2.1h2.8c.9,0,1.6.2,2,.7.4.4.6,1,.6,1.7h0c0,1.1-.6,1.8-1.4,2.2l1.6,2.8h-1.8l-1.4-2.4h-1v2.4h-1.5V2.1h.1ZM76.5,5.7c.8,0,1.2-.4,1.2-1.1h0c0-.7-.5-1.1-1.2-1.1h-1.1v2.2h1.1Z"/>
      <path class="cls-1" d="M80.9,2.1h2.4c2.2,0,3.6,1.5,3.6,3.7v.1c0,2.2-1.4,3.7-3.6,3.7h-2.4V2.1ZM82.5,3.5v4.7h.9c1.2,0,2-.8,2-2.3v-.1c0-1.5-.8-2.3-2-2.3h-.9Z"/>
      <path class="cls-1" d="M91.1,5.8h0c0-2.4,1.4-3.9,3.4-3.9,1.1,0,1.8.4,2.4,1l-.9,1.2c-.4-.5-.9-.7-1.5-.7-1,0-1.7.9-1.7,2.4h0c0,1.5.8,2.4,1.8,2.4.6,0,1-.3,1.5-.8l.9,1.1c-.7.7-1.4,1.1-2.5,1.1-2.1,0-3.4-1.5-3.4-3.8Z"/>
      <path class="cls-1" d="M98.4,2.1h4.8v1.4h-3.3v1.6h2.9v1.4h-2.9v1.7h3.3v1.4h-4.8V2.1Z"/>
      <path class="cls-1" d="M104.9,2.1h1.4l2.9,4.3V2.1h1.5v7.4h-1.3l-2.9-4.5v4.5h-1.5V2.1h-.1Z"/>
      <path class="cls-1" d="M114,3.5h-1.9v-1.4h5.3v1.4h-1.9v6h-1.5V3.5h0Z"/>
      <path class="cls-1" d="M118.9,2.1h4.8v1.4h-3.3v1.6h2.9v1.4h-2.9v1.7h3.3v1.4h-4.8V2.1Z"/>
      <path class="cls-1" d="M125.4,2.1h2.8c.9,0,1.6.2,2,.7.4.4.6,1,.6,1.7h0c0,1.1-.6,1.8-1.4,2.2l1.6,2.8h-1.8l-1.4-2.4h-1v2.4h-1.5V2.1h.1ZM128.1,5.7c.8,0,1.2-.4,1.2-1.1h0c0-.7-.5-1.1-1.2-1.1h-1.1v2.2h1.1Z"/>
      <path class="cls-1" d="M37.8,13.1h4.8v1.4h-3.3v1.7h2.9v1.4h-2.9v2.9h-1.5v-7.4Z"/>
      <path class="cls-1" d="M43.8,16.9v-.1c0-2.2,1.4-3.8,3.4-3.8s3.4,1.6,3.4,3.8v.1c0,2.2-1.4,3.8-3.4,3.8-2-.1-3.4-1.6-3.4-3.8ZM48.9,16.8h0c0-1.5-.7-2.5-1.8-2.5-1,0-1.8.9-1.8,2.4v.1c0,1.5.8,2.4,1.8,2.4s1.8-.9,1.8-2.4Z"/>
      <path class="cls-1" d="M51.8,13.1h2.8c.9,0,1.6.2,2,.7.4.4.6,1,.6,1.7h0c0,1.1-.6,1.8-1.4,2.2l1.6,2.8h-1.8l-1.4-2.4h-1v2.4h-1.5v-7.4h.1ZM54.5,16.7c.8,0,1.2-.4,1.2-1.1h0c0-.7-.5-1.1-1.2-1.1h-1.1v2.2s1.1,0,1.1,0Z"/>
      <path class="cls-1" d="M62.6,13.1h1.5v7.4h-1.5v-7.4Z"/>
      <path class="cls-1" d="M66.2,13.1h1.4l2.9,4.3v-4.3h1.5v7.4h-1.4l-2.9-4.5v4.5h-1.5v-7.4Z"/>
      <path class="cls-1" d="M75.2,14.5h-1.9v-1.4h5.3v1.4h-1.9v6h-1.5v-6h0Z"/>
      <path class="cls-1" d="M80.2,13.1h4.8v1.4h-3.3v1.6h2.9v1.4h-2.9v1.7h3.3v1.4h-4.8v-7.5Z"/>
      <path class="cls-1" d="M86.7,13.1h2.8c.9,0,1.6.2,2,.7.4.4.6,1,.6,1.7h0c0,1.1-.6,1.8-1.4,2.2l1.6,2.8h-1.7l-1.4-2.4h-1v2.4h-1.5v-7.4ZM89.4,16.7c.8,0,1.2-.4,1.2-1.1h0c0-.7-.5-1.1-1.2-1.1h-1.1v2.2s1.1,0,1.1,0Z"/>
      <path class="cls-1" d="M93.9,13.1h1.4l2.9,4.3v-4.3h1.5v7.4h-1.3l-2.9-4.5v4.5h-1.5v-7.4h-.1Z"/>
      <path class="cls-1" d="M103.8,13h1.5l2.7,7.5h-1.6l-.6-1.6h-2.6l-.5,1.6h-1.6l2.7-7.5ZM105.3,17.5l-.8-2.4-.8,2.4h1.6Z"/>
      <path class="cls-1" d="M109.8,14.5h-1.9v-1.4h5.3v1.4h-1.9v6h-1.5v-6h0Z"/>
      <path class="cls-1" d="M114.8,13.1h1.5v7.4h-1.5v-7.4Z"/>
      <path class="cls-1" d="M118.1,16.9v-.1c0-2.2,1.4-3.8,3.4-3.8s3.4,1.6,3.4,3.8v.1c0,2.2-1.4,3.8-3.4,3.8-2-.1-3.4-1.6-3.4-3.8ZM123.3,16.8h0c0-1.5-.7-2.5-1.8-2.5-1,0-1.8.9-1.8,2.4v.1c0,1.5.8,2.4,1.8,2.4s1.8-.9,1.8-2.4Z"/>
      <path class="cls-1" d="M126.3,13.1h1.4l2.9,4.3v-4.3h1.5v7.4h-1.3l-2.9-4.5v4.5h-1.5v-7.4h-.1Z"/>
      <path class="cls-1" d="M136.2,13h1.5l2.7,7.5h-1.6l-.6-1.6h-2.6l-.5,1.6h-1.6l2.7-7.5ZM137.7,17.5l-.8-2.4-.8,2.4h1.6Z"/>
      <path class="cls-1" d="M141.8,13.1h1.5v6h3v1.4h-4.6v-7.4h.1Z"/>
      <path class="cls-1" d="M37.8,24.1h2.4c2.2,0,3.6,1.5,3.6,3.7v.1c0,2.2-1.4,3.7-3.6,3.7h-2.4v-7.5ZM39.3,25.5v4.7h.9c1.2,0,2-.8,2-2.3v-.1c0-1.5-.8-2.3-2-2.3,0,0-.9,0-.9,0Z"/>
      <path class="cls-1" d="M45.4,24.1h4.8v1.4h-3.3v1.6h2.9v1.4h-2.9v1.7h3.3v1.4h-4.8v-7.5Z"/>
      <path class="cls-1" d="M51.3,24.1h1.7l1.6,5.1,1.6-5.1h1.6l-2.5,7.5h-1.4l-2.6-7.5Z"/>
      <path class="cls-1" d="M59,24.1h4.8v1.4h-3.3v1.6h2.9v1.4h-2.9v1.7h3.3v1.4h-4.8v-7.5Z"/>
      <path class="cls-1" d="M65.5,24.1h1.5v6h3v1.4h-4.6v-7.4h.1Z"/>
      <path class="cls-1" d="M70.7,27.9v-.1c0-2.2,1.4-3.8,3.4-3.8s3.4,1.6,3.4,3.8v.1c0,2.2-1.4,3.8-3.4,3.8-2-.1-3.4-1.6-3.4-3.8ZM75.8,27.8h0c0-1.5-.7-2.5-1.8-2.5-1,0-1.8.9-1.8,2.4v.1c0,1.5.8,2.4,1.8,2.4s1.8-.9,1.8-2.4Z"/>
      <path class="cls-1" d="M78.8,24.1h2.5c1.7,0,2.7,1,2.7,2.6h0c0,1.7-1.2,2.6-2.8,2.6h-.9v2.3h-1.5v-7.5ZM81.2,27.9c.8,0,1.2-.5,1.2-1.2h0c0-.8-.4-1.2-1.3-1.2h-.8v2.4h.9Z"/>
      <path class="cls-1" d="M85.3,24.1h1.6l1.7,3,1.6-3h1.6v7.4h-1.5v-4.8l-1.8,3.1h0l-1.7-3.1v4.7h-1.5v-7.3h0Z"/>
      <path class="cls-1" d="M93.7,24.1h4.8v1.4h-3.3v1.6h2.9v1.4h-2.9v1.7h3.3v1.4h-4.8v-7.5Z"/>
      <path class="cls-1" d="M100.2,24.1h1.4l2.9,4.3v-4.3h1.5v7.4h-1.4l-2.9-4.5v4.5h-1.5v-7.4Z"/>
      <path class="cls-1" d="M109.3,25.5h-1.9v-1.4h5.3v1.4h-1.9v6h-1.5v-6h0Z"/>
    </g>
  </g>
  <g id="Layer_2" data-name="Layer 2">
    <g>
      <path class="cls-3" d="M.3.2h28.9v10.9c0,5-1.9,15.6-14.3,23.5,0,0-13.5-5.6-14.5-23.5-.1,0-.1-5.9-.1-10.9Z"/>
      <path class="cls-1" d="M14.8,34.8h0c-.2-.1-13.7-5.9-14.8-23.7V0h29.3v11.1c0,4.4-1.4,15.4-14.5,23.7h0ZM.5.4v10.7c1,16.7,13.1,22.7,14.3,23.2,12.7-8.1,14.1-18.9,14.1-23.2V.4H.5Z"/>
    </g>
    <path class="cls-4" d="M22.4,14.7s-.3.8-1.4,0l-3.9-.1s-.5.2-.6-.4c0,0,.1-1.1,0-1.2,0,0,0-.3-.5-.3,0,0-.8.1-.8-.6,0,0-.1-.7,1-.7,0,0,.4.2.4-.3v-3.3s.1-.3-.4-.3c0,0-.8.2-.9-.4,0,0,0-.8.5-.8,0,0,.6,0,.7-.1,0,0,.1.1.1-.5v-1s.1-.3.5-.2h.8s.2-.2.2-.3c0,0,.4,0,.4.1,0,0,.6.4,2.7.2,0,0,.3,0,.4.1,0,0,.4.3.6,0,0,0,.4-.1,1.4,0,0,0,1.1.3,1.9-.4h.3s.3.5.6.4c0,0,.7-.1.8.1,0,0,.2.4.1,1.3,0,0-.1.4.5.4,0,0,.8-.1.7.6,0,0,.2.8-1.1.7,0,0-.2.2-.1.4v3s0,.4.5.4c0,0,.7,0,.8.6,0,0,.1.9-1,.7,0,0-.3,0-.4.3v1.2s0,.6-.6.4c-.1,0-3.6.1-4,0,0-.1-.2-.1-.2,0Z"/>
    <path class="cls-4" d="M14.8,18.6s.2-.1.2-.2c0,0,.5,0,.6-.1l1.5.1s1.5.1,2.2-.4c0,0,.2,0,.4.1,0,0,.3.1.4.2h.9s.5.2.5.5v.4s-.1.8.1.9h.7s.6.3.5.6c0,0,0,.5-.5.6,0,0-.5.1-.7.1,0,0-.2.2-.2.5l-.1,3.1s0,.3.4.3c0,0,.7-.1.9.3,0,0,.2.7-.2.8l-.3.1-.6.1s-.3,0-.3.5v.8s0,.6-.4.6h-.7s-.2.1-.5,0c0,0-4,.1-4.1,0l-.5.1s-.5.5-.9.1l-.3-.3h-4.7s-.9.1-1-.2c0,0-.1-1.2-.1-1.3,0,0,0-.4-.2-.4,0,0-.9,0-.9-.1,0,0-.5-.4-.4-.7,0,0,.2-.5.7-.5,0,0,.7.1.7-.1v-3.4s.1-.4-.2-.4c0,0-.3.1-.5,0,0,0-.6,0-.7-.4,0,0-.1-.3,0-.5,0,0,.3-.5,1-.4,0,0,.4.1.5-.2v-1.1s-.1-.3.5-.5c0,0,.7.2,1-.2,0,0,.3-.5.5-.2,0,0,.4.4,1.7.4,0,0,2.1-.2,2.2-.1,0,0,.5.1.7.2l.2.3Z"/>
    <path class="cls-4" d="M8.4,14.7s-.3.8-1.4,0l-3.9-.1s-.5.2-.6-.4c0,0,.1-1.1,0-1.2,0,0,0-.3-.5-.3,0,0-.8.1-.8-.6,0,0-.1-.7,1-.7,0,0,.4.2.4-.3v-3.3s.1-.3-.4-.3c0,0-.8.2-.9-.4,0,0,0-.8.5-.8,0,0,.6,0,.7-.1,0,0,.1.1.1-.5v-1s.1-.3.5-.2h.8s.2-.2.2-.3c0,0,.4,0,.4.1,0,0,.6.4,2.7.2,0,0,.3,0,.4.1,0,0,.4.3.6,0,0,0,.4-.1,1.4,0,0,0,1.1.3,1.9-.4h.3s.3.5.6.4c0,0,.7-.1.8.1,0,0,.2.4.1,1.3,0,0-.1.4.5.4,0,0,.8-.1.7.6,0,0,.2.8-1.1.7,0,0-.2.2-.1.4v3s0,.4.5.4c0,0,.7,0,.8.6,0,0,.1.9-1,.7,0,0-.3,0-.4.3v1.2s0,.6-.6.4c-.1,0-3.6.1-4,0,0,0-.2-.1-.2,0Z"/>
    <path class="cls-2" d="M22.4,14.7s-.3.8-1.4,0l-3.9-.1s-.5.2-.6-.4c0,0,.1-1.1,0-1.2,0,0,0-.3-.5-.3,0,0-.8.1-.8-.6,0,0-.1-.7,1-.7,0,0,.4.2.4-.3v-3.3s.1-.3-.4-.3c0,0-.8.2-.9-.4,0,0,0-.8.5-.8,0,0,.6,0,.7-.1,0,0,.1.1.1-.5v-1s.1-.3.5-.2h.8s.2-.2.2-.3c0,0,.4,0,.4.1,0,0,.6.4,2.7.2,0,0,.3,0,.4.1,0,0,.4.3.6,0,0,0,.4-.1,1.4,0,0,0,1.1.3,1.9-.4h.3s.3.5.6.4c0,0,.7-.1.8.1,0,0,.2.4.1,1.3,0,0-.1.4.5.4,0,0,.8-.1.7.6,0,0,.2.8-1.1.7,0,0-.2.2-.1.4v3s0,.4.5.4c0,0,.7,0,.8.6,0,0,.1.9-1,.7,0,0-.3,0-.4.3v1.2s0,.6-.6.4c-.1,0-3.6.1-4,0,0-.1-.2-.1-.2,0Z"/>
    <path class="cls-5" d="M18,5v.6c0,.1-.1,6.8-.1,6.8,0,0,.1.5-.4.8,0,0-.1,0-.1-.3v-7c.1-.1.1-.9.6-.9Z"/>
    <path class="cls-4" d="M17.2,13.2v-6.7c0-.1,0,.1,0,.1,0,0-.1-1.1.2-1.6,0,0-.1-.4-.6.1v1s0,.5-.5.5c0,0-.6,0-.8.2,0,0-.1.5.4.4,0,0,.8,0,.9.4v3.5s.2.6-.5.6c0,0-.8,0-.8.4,0,0,.2.4.8.3,0,0,.5.1.5.6v.9s0,.4.4.4h3.7s.2,0,.2-.2c0,0,0-.2-.3-.2h-3c-.1-.1-.6,0-.6-.7Z"/>
    <path class="cls-5" d="M17.8,13.3s-.1.3.3.3h2.4l.7.1s.7-.2,0-.5h-2.3s-.4-.1-.5-.1c-.1-.1-.4-.2-.6.2Z"/>
    <path class="cls-4" d="M21.8,13.6s-.4,0-.4.6c0,0,0,.4.5.4,0,0,.4-.1.4-.5,0,0-.3-.6-.5-.5Z"/>
    <path class="cls-5" d="M22.1,13.4s.2-.2.4-.2c0,0,2.3.2,2.7-.1,0,0,.4-.1.4,0,0,0,.4.3.4.4,0,0,0,.2-.4.1h-2.8s-.7.2-.7-.2Z"/>
    <path class="cls-4" d="M22.5,14.1s0-.2.3-.2h3.3s.3.2.3-.4c0,0,.1-2.6.1-5.4v-2.5s-.1-.4-.2-.4c0,0,0-.4.4-.2,0,0,.4,0,.3.6v.8s-.1.4.6.3c0,0,.6.1.7.3,0,0,.2.5-.6.4h-.5s-.2.1-.2.4l-.1,3.4s0,.6.5.6c0,0,.6,0,.7.2,0,0,.4.6-.5.5,0,0-.5,0-.7.1,0,0-.1.1-.2,1.2,0,0,0,.7-.4.6h-3.6c.2-.2-.1-.1-.2-.3Z"/>
    <path class="cls-4" d="M18.3,4.8l-.1,7.5s0,.4.6.4c0,0,.7.1.8,0h1.6s.3.3.3-.1c0,0,.2-6.1.1-7.3,0,0,0-.5-.4-.6,0,0-1.8.1-1.9,0l-.7-.1s-.3,0-.3.2Z"/>
    <path class="cls-4" d="M22,5.2s-.1,3.5,0,3.6v3l-.1,1s.1.2.3.1c0,0,.7-.2,1.2-.1,0,0,1.5.1,1.8-.1,0,0,.2.1.3-.3,0,0,.1-6.6,0-6.7,0,0,.1-.9,0-1,0,0,0-.2-.4,0,0,0,0,.2-2.2.1,0,0-.8,0-.9.4Z"/>
    <path class="cls-5" d="M25.7,5.1v7.4s.2.7.5.6c0,0,0-.1.1-.4l.1-7s-.3-1.2-.7-.6Z"/>
    <path class="cls-1" d="M22.9,7.3c-.1-.2.4-.2.4-.2h.5c.2.3-.1.4-.1.4l-.1.4v2.5c0,.1.2.3.2.3,0,.2-.3.2-.3.2h-.7c-.2,0-.1-.3-.1-.3.2-.1.3-.5.3-.5v-2.3l-.1-.5Z"/>
    <path class="cls-1" d="M19.7,9.5v.7l.2.4c.1.2-.1.3-.1.3l-.7-.1c-.1-.1,0-.3,0-.3.2-.1.2-.4.2-.4v-2.4c0-.1-.2-.3-.2-.3-.2,0-.1-.2-.1-.2,0-.1.4,0,.4,0h1c.9.3.8,1,.8,1,.1.7-.7,1-.7,1v.4l.7,1.1c.1.1.1.2.1.2-.1.3-.5,0-.5,0l-.9-1.5c-.1-.1-.2.1-.2.1ZM19.7,7.6v1.2c.4.4.7-.1.7-.1.6-.6,0-1.1-.1-1.2-.1-.1-.6,0-.6,0v.1Z"/>
    <path class="cls-2" d="M14.8,18.6s.2-.1.2-.2c0,0,.5,0,.6-.1l1.5.1s1.5.1,2.2-.4c0,0,.2,0,.4.1,0,0,.3.1.4.2h.9s.5.2.5.5v.4s-.1.8.1.9h.7s.6.3.5.6c0,0,0,.5-.5.6,0,0-.5.1-.7.1,0,0-.2.2-.2.5l-.1,3.1s0,.3.4.3c0,0,.7-.1.9.3,0,0,.2.7-.2.8l-.3.1-.6.1s-.3,0-.3.5v.8s0,.6-.4.6h-.7s-.2.1-.5,0c0,0-4,.1-4.1,0l-.5.1s-.5.5-.9.1l-.3-.3h-4.7s-.9.1-1-.2c0,0-.1-1.2-.1-1.3,0,0,0-.4-.2-.4,0,0-.9,0-.9-.1,0,0-.5-.4-.4-.7,0,0,.2-.5.7-.5,0,0,.7.1.7-.1v-3.4s.1-.4-.2-.4c0,0-.3.1-.5,0,0,0-.6,0-.7-.4,0,0-.1-.3,0-.5,0,0,.3-.5,1-.4,0,0,.4.1.5-.2v-1.1s-.1-.3.5-.5c0,0,.7.2,1-.2,0,0,.3-.5.5-.2,0,0,.4.4,1.7.4,0,0,2.1-.2,2.2-.1,0,0,.5.1.7.2l.2.3Z"/>
    <path class="cls-4" d="M15.4,27.8s.3-.1.5-.1h2.9s1.2.1,1.4-.1l.3-.1s.1-.1.1-.3v-.8l.1-.2v-6.5s.1-.5-.2-.8c0,0,0-.2.1-.2s0,0,0,0c0,0,.4-.1.5,0,0,0,.2.6,0,.9,0,0,0,.7.3.7,0,0,.1.1.4.1,0,0,.6.1.6.3,0,0,0,.4-.4.4h-.6s-.4.1-.3.5v3.6s0,.4.6.4c0,0,.7,0,.7.2,0,0,.2.5-.3.5,0,0-1,0-.9.3,0,0-.1.7-.1.8,0,0,.1.5,0,.6,0,0-.1.3-.7.3h-4.7c0-.1-.4-.1-.3-.5Z"/>
    <path class="cls-4" d="M14.7,27.4s.4.1.4.4,0,.6-.2.6-.5,0-.6-.3c-.1-.3,0-.6.4-.7Z"/>
    <path class="cls-5" d="M15.1,27.2s.4-.3.6-.2c0,0,2.1.1,2.8,0,.7-.1.3,0,.3,0,0,0,.6,0,.7-.2,0,0,.2,0,.3.1l.4.4s0,.2-.4.2h-3.9c-.1,0-.8.1-.8-.3Z"/>
    <path class="cls-5" d="M9.6,18.9s.2,0,.1.3v7.1s.1.5-.3.8c0,0-.2.3-.2-.1l.1-7.2c-.1-.1,0-.7.3-.9Z"/>
    <path class="cls-4" d="M9.2,18.9s-.3.5-.3.6v7.8s0,.6.4.4c0,0,4.1-.1,4.4,0,0,0,.4.1.2.3,0,0,0,.2-.3.1,0,0-1.9.2-3.7.1,0,0-1.2.1-1.2-.1,0,0-.2,0-.2-.7v-.7s0-.3-.5-.4c0,0-.8.1-.8-.4,0,0,.1-.4.9-.3,0,0,.6.1.5-.4l.1-3.5s.1-.6-.3-.6h-.5s-.7,0-.6-.4c0,0,.2-.4.9-.3,0,0,.5.1.5-.5,0,0,0-1.2.3-1.2-.2.1.4.1.2.2Z"/>
    <path class="cls-5" d="M9.9,26.7s.3.4.9.3h3.2s.4,0,.3.2c0,0,0,.3-.5.2h-4.2s-.3,0,.2-.6l.1-.1Z"/>
    <path class="cls-5" d="M19.7,26.4s.3.5.4.6c0,0,.3.3.2-.2v-6.7s-.1-.2,0-.6l-.3-.5s-.3-.2-.3.1v7.3Z"/>
    <path class="cls-4" d="M14.5,23.2v1.1c0,.3.1,1.7,0,2.4,0,0,0,.2-.5,0,0,0-3,.1-3.1,0,0,0-.8,0-.9-.4,0,0,.1-3.2,0-3.3v-1.9s.1-1.6,0-1.8v-.6s0-.2.4-.1c0,0,.1.3.9.1,0,0,.6.1,1.1,0,0,0,1.2-.1,1.5,0,0,0,.5-.1.6.4v1.5l.1.5.2-.1.1-.4v-1.5s.1-.3.5-.3c0,0,.6-.1.7,0,.1,0,1.4.1,1.7,0,.4-.1.4.2,1.5-.3,0,0,.3,0,.3.2,0,0-.1,2,0,2.4,0,0,0,3.6-.1,3.9v1.2s0,.5-.8.6c0,0,.5.1-2.7,0,0,0-.5,0-1.1.2,0,0-.1,0-.1-.3,0,0,.1-1.1,0-2.2v-1.2l-.3-.1Z"/>
    <path class="cls-1" d="M12.4,21.5s.1,1.7,0,2v.4s.1.3.2.4c0,0,.1.3-.2.3h-.7s-.3,0,0-.4c0,0,.1-.2.1-.6v-2.1s0-.3-.1-.3h-.3l-.2.2s-.1.4-.2,0v-.2l.2-.6h.1l.4.2h1.1l.4-.2s.2,0,.1.2c0,0,.1.5-.2.6,0,0-.2-.1-.3-.3,0,0-.3-.1-.4.4Z"/>
    <path class="cls-1" d="M17.6,20.9s-.9-.1-.9.9c0,0-.1.7.9,1.1,0,0,.7.4.7.8,0,0-.1.8-.9.4,0,0-.4-.2-.4-.4,0,0-.1-.3-.3-.2,0,0-.2,0-.1.8,0,0,0,.3.4,0h.2s.6.5,1.2-.1c0,0,.6-.5.2-1.2,0,0-.3-.5-.8-.7,0,0-.5-.2-.6-.6,0,0,.2-.7.8-.3,0,0,.2.3.4.3,0,0,.2,0,.1-.4v-.4s0-.3-.4,0c-.1,0-.4.1-.5,0Z"/>
    <path class="cls-1" d="M14.8,20.4c.2.1.2.4.2.4.5,1.2.9,3,.9,3,.1.2.3.4.3.4.4.1,0,.3,0,.3-.2.1-.7,0-.7,0-.3,0-.2-.1-.2-.1.1-.1,0-.6,0-.6,0-.2-.2-.5-.2-.5-.1,0-.3.2-.3.2,0,0-.3.1-.3,0s-.2-.2-.2-.2c-.3,0-.4.7-.4.7.2.6,0,.5,0,.5-.1.2-.6,0-.6,0-.2,0-.1-.2-.1-.2.3,0,.3-.3.3-.3.1-.2.9-3.2.9-3.2.1-.2.2-.5.4-.4ZM14.4,21.9c0,.1-.2.8-.2.8l.1.2h.5c.1,0,.2-.1.2-.2s-.3-.8-.3-.8l-.1-.1-.2.1Z"/>
    <path class="cls-2" d="M8.4,14.7s-.3.8-1.4,0l-3.9-.1s-.5.2-.6-.4c0,0,.1-1.1,0-1.2,0,0,0-.3-.5-.3,0,0-.8.1-.8-.6,0,0-.1-.7,1-.7,0,0,.4.2.4-.3v-3.3s.1-.3-.4-.3c0,0-.8.2-.9-.4,0,0,0-.8.5-.8,0,0,.6,0,.7-.1,0,0,.1.1.1-.5v-1s.1-.3.5-.2h.8s.2-.2.2-.3c0,0,.4,0,.4.1,0,0,.6.4,2.7.2,0,0,.3,0,.4.1,0,0,.4.3.6,0,0,0,.4-.1,1.4,0,0,0,1.1.3,1.9-.4h.3s.3.5.6.4c0,0,.7-.1.8.1,0,0,.2.4.1,1.3,0,0-.1.4.5.4,0,0,.8-.1.7.6,0,0,.2.8-1.1.7,0,0-.2.2-.1.4v3s0,.4.5.4c0,0,.7,0,.8.6,0,0,.1.9-1,.7,0,0-.3,0-.4.3v1.2s0,.6-.6.4c-.1,0-3.6.1-4,0,0,0-.2-.1-.2,0Z"/>
    <path class="cls-5" d="M4,5.1v.6c0,.1-.1,6.8-.1,6.8,0,0,.1.5-.4.8,0,0-.1,0-.1-.3v-7c.1-.1.1-1,.6-.9Z"/>
    <path class="cls-4" d="M3.2,13.3v-6.7c0-.1,0,.1,0,.1,0,0-.1-1.1.2-1.6,0,0-.1-.4-.6.1v1s0,.5-.5.5c0,0-.6,0-.8.2,0,0-.1.5.4.4,0,0,.8,0,.9.4v3.5s.2.6-.5.6c0,0-.8,0-.8.4,0,0,.2.4.8.3,0,0,.5.1.5.6v.9s0,.4.4.4h3.6s.2,0,.2-.2c0,0,0-.2-.3-.2h-3c0-.2-.5,0-.5-.7Z"/>
    <path class="cls-5" d="M3.8,13.3s-.1.3.3.3h2.4l.7.1s.7-.2,0-.5h-2.3s-.4-.1-.5-.1c-.1-.1-.4-.2-.6.2Z"/>
    <path class="cls-4" d="M7.8,13.6s-.4,0-.4.6c0,0,0,.4.5.4,0,0,.4-.1.4-.5,0,0-.3-.5-.5-.5Z"/>
    <path class="cls-5" d="M8.2,13.4s.2-.2.4-.2c0,0,2.3.2,2.7-.1,0,0,.4-.1.4,0,0,0,.4.3.4.4,0,0,0,.2-.4.1h-2.8c-.1.1-.8.2-.7-.2Z"/>
    <path class="cls-4" d="M8.5,14.1s0-.2.3-.2h3.3s.3.2.3-.4c0,0,.1-2.6.1-5.4v-2.5s-.1-.4-.2-.4c0,0,0-.4.4-.2,0,0,.4,0,.3.6v.8s-.1.4.6.3c0,0,.6.1.7.3,0,0,.2.5-.6.4h-.5s-.2.1-.2.4l-.1,3.4s0,.6.5.6c0,0,.6,0,.7.2,0,0,.4.6-.5.5,0,0-.5,0-.7.1,0,0-.1.1-.2,1.2,0,0,0,.7-.4.6h-3.6c.2-.1-.1,0-.2-.3Z"/>
    <path class="cls-4" d="M4.3,4.9l-.1,7.5s0,.4.6.4c0,0,.7.1.8,0h1.6s.3.3.3-.1c0,0,.2-6.1.1-7.3,0,0,0-.5-.4-.6,0,0-1.8.1-1.9,0l-.7-.1s-.3,0-.3.2Z"/>
    <path class="cls-5" d="M11.7,5.2v7.4s.2.7.5.6c0,0,0-.1.1-.4l.1-7c0-.1-.3-1.2-.7-.6Z"/>
    <path class="cls-4" d="M8,5.2s-.1,3.5,0,3.6v3l-.1,1s.1.2.3.1c0,0,.7-.2,1.2-.1,0,0,1.5.1,1.8-.1,0,0,.2.1.3-.3,0,0,.1-6.6,0-6.7,0,0,.1-.9,0-1,0,0,0-.2-.4,0,0,0,0,.2-2.2.1,0,.1-.8,0-.9.4Z"/>
    <path class="cls-1" d="M7.3,7.4l-.2.4s-.5,2.3-.8,2.7c0,0,0,.5-.4.1,0,0-.9-2.9-1-3l-.3-.1s-.2-.3.1-.3h.9s.3.2-.1.5c0,0,0,.4.5,1.8,0,0,.1.5.3.1l.5-1.7-.1-.5s-.1-.2.1-.3c-.1.1.4.1.5.3Z"/>
    <path class="cls-1" d="M8.6,7.8v2.6s-.2.3-.1.3c0,0-.2.1,1.5.2,0,0,.7.1.5-.7,0,0-.1-.3-.3.1,0,0-.1.4-.9.3,0,0-.2-.2-.2-.4v-1s0-.3.4-.2c0,0,.4.3.5.2,0,0,.2-.4,0-.6,0,0-.2,0-.2.1,0,0-.1.3-.5.1,0,0-.2-.4-.1-.7,0,0,0-.6.4-.5,0,0,.5.1.5.2,0,0,.1.3.2,0l-.1-.4s-.1-.2-.2-.1c0,0-.8.1-.9,0l-.6.1s-.1.2.2.4c-.1-.2-.1-.1-.1,0Z"/>
  </g>
</svg>