<svg xmlns="http://www.w3.org/2000/svg" viewBox="0 0 315.06 36.9"><defs><style>.cls-1,.cls-2{fill:#221e1f;}.cls-2,.cls-3,.cls-4{fill-rule:evenodd;}.cls-3,.cls-5{fill:#fff;}.cls-4{fill:#b9073e;}</style></defs><g id="Camada_2" data-name="Camada 2"><g id="图层_2" data-name="图层 2"><polygon class="cls-1" points="49.58 25.05 49.58 17.68 44.83 17.68 44.83 25.05 41.53 25.05 41.53 8.54 44.83 8.54 44.83 14.95 49.58 14.95 49.58 8.54 52.95 8.54 52.95 25.05 49.58 25.05"/><path class="cls-1" d="M66,25.05l-1.17-3.92H60l-1.16,3.92H55.37L60.79,8.49h3.59l5.2,16.56Zm-2.88-10c-.17-.76-.67-2.92-.67-2.92s-.47,1.94-.78,3.18-.52,2-.88,3.06H64s-.54-1.73-.9-3.32"/><path class="cls-1" d="M80.05,25.05c-.64-1.09-.9-1.55-1.54-2.71-1.64-3-2.14-3.78-2.74-4a1.52,1.52,0,0,0-.52-.14v6.89H72V8.54h6.15A4.58,4.58,0,0,1,83,13.38c0,2.48-1.64,4.52-3.69,4.57a3,3,0,0,1,.69.68c1,1.19,4,6.42,4,6.42ZM78.32,11.44a5.78,5.78,0,0,0-1.88-.24H75.25v4.47h1.12c1.42,0,2-.15,2.49-.55a2.22,2.22,0,0,0,.64-1.66,1.92,1.92,0,0,0-1.18-2"/><path class="cls-1" d="M93.3,25.17h-3L84.68,8.54h3.63l2.74,8.6c.23.73.49,1.66.76,2.87a30.42,30.42,0,0,1,1-3.3l2.8-8.17h3.49Z"/><path class="cls-1" d="M108.91,25.05l-1.17-3.92H102.9l-1.17,3.92H98.26l5.42-16.56h3.59l5.2,16.56Zm-2.88-10-.66-2.92-.79,3.18c-.31,1.19-.52,2-.88,3.06h3.23s-.54-1.73-.9-3.32"/><path class="cls-1" d="M122.94,25.05c-.64-1.09-.9-1.55-1.54-2.71-1.64-3-2.14-3.78-2.74-4a1.52,1.52,0,0,0-.52-.14v6.89h-3.25V8.54H121a4.58,4.58,0,0,1,4.85,4.84c0,2.48-1.64,4.52-3.69,4.57a3,3,0,0,1,.69.68c1,1.19,4,6.42,4,6.42Zm-1.73-13.61a5.78,5.78,0,0,0-1.88-.24h-1.19v4.47h1.12c1.42,0,2-.15,2.49-.55a2.22,2.22,0,0,0,.64-1.66,1.92,1.92,0,0,0-1.18-2"/><path class="cls-1" d="M140.11,22.58a5.65,5.65,0,0,1-4,2.37c-.62.05-1.4.1-2.38.1h-4V8.54H133c.95,0,2.21.05,2.88.09a5.65,5.65,0,0,1,3.61,1.64c1.52,1.5,2.26,3.61,2.26,6.58a9.44,9.44,0,0,1-1.67,5.73m-2.9-10a2.72,2.72,0,0,0-2.61-1.38h-1.52V22.34h1.78c2.19,0,3.19-1.69,3.19-5.18a9.18,9.18,0,0,0-.84-4.63"/><path class="cls-1" d="M147.2,7.52h3V25.05h-3Zm8.89,17.53-5.9-9.35,5.7-8.18h3.6l-6.08,8.13,6.48,9.4Z"/><path class="cls-1" d="M163.47,19.4v.2c0,1.78.66,3.65,3.16,3.65a4.74,4.74,0,0,0,3.2-1.27l1.08,1.7a6.91,6.91,0,0,1-4.61,1.7c-3.62,0-5.9-2.61-5.9-6.72a7,7,0,0,1,1.6-5,4.85,4.85,0,0,1,3.92-1.72,5,5,0,0,1,3.52,1.31c1.12,1,1.68,2.59,1.68,5.58v.58ZM165.92,14c-1.57,0-2.43,1.24-2.43,3.32h4.74c0-2.08-.91-3.32-2.31-3.32"/><path class="cls-1" d="M181.17,25.05V16.54c0-1.75-.4-2.23-1.47-2.23a4.68,4.68,0,0,0-2.81,1.44v9.3h-2.73V15.63a7.45,7.45,0,0,0-.49-3l2.54-.71a3.78,3.78,0,0,1,.45,1.82,6,6,0,0,1,3.93-1.77c2,0,3.34,1.19,3.34,3.54v9.58Z"/><path class="cls-1" d="M195,25.05V16.54c0-1.75-.4-2.23-1.47-2.23a4.68,4.68,0,0,0-2.81,1.44v9.3H188V15.63a7.63,7.63,0,0,0-.48-3l2.53-.71a3.78,3.78,0,0,1,.46,1.82,5.92,5.92,0,0,1,3.92-1.77c2,0,3.35,1.19,3.35,3.54v9.58Z"/><path class="cls-1" d="M204.12,19.4v.2c0,1.78.66,3.65,3.17,3.65A4.7,4.7,0,0,0,210.48,22l1.09,1.7a6.93,6.93,0,0,1-4.61,1.7c-3.62,0-5.9-2.61-5.9-6.72a7,7,0,0,1,1.59-5,4.89,4.89,0,0,1,3.93-1.72,5,5,0,0,1,3.52,1.31c1.12,1,1.68,2.59,1.68,5.58v.58ZM206.58,14c-1.57,0-2.43,1.24-2.43,3.32h4.74c0-2.08-.92-3.32-2.31-3.32"/><path class="cls-1" d="M222.67,25.05a3.2,3.2,0,0,1-.23-1,4.21,4.21,0,0,1-3.14,1.27c-3.27,0-5.25-2.56-5.25-6.56S216.28,12,219.38,12a3.65,3.65,0,0,1,2.76,1.17s-.08-1-.08-2.1V6.38l2.76.43V20.59a14,14,0,0,0,.41,4.46Zm-.61-9.78a3,3,0,0,0-2.33-1c-1.77,0-2.58,1.42-2.58,4.51,0,2.84.55,4.26,2.66,4.26a2.68,2.68,0,0,0,2.25-1.22Z"/><path class="cls-1" d="M234.42,25.33c-1.06,3.09-2,4.63-5,5.19l-.91-1.8c1.75-.48,2.74-1.21,3.47-3.67h-.89c-.35-1.44-.83-2.84-1.21-4L227,12.43l2.83-.48,2.36,7.8c.2.76.66,2.69.71,2.89,0-.1.48-1.92,1-3.47L236,12.23h3Z"/><path class="cls-1" d="M248.38,25.38a11.2,11.2,0,0,1-5.75-1.57l1.11-2.23A9,9,0,0,0,248.48,23c2.15,0,3.45-1,3.45-2.78,0-1.3-.82-2.11-2.61-2.61l-1.88-.54a5.72,5.72,0,0,1-3.39-2.1,4.42,4.42,0,0,1-.74-2.56c0-3.09,2.43-5.19,6-5.19a9.71,9.71,0,0,1,5.54,1.67L253.5,11a7.56,7.56,0,0,0-4.13-1.34c-1.73,0-2.87.94-2.87,2.38,0,1.09.61,1.65,2.33,2.16l2.08.6c2.54.74,4.31,2.36,4.31,5,0,2.92-2.36,5.63-6.84,5.63"/><path class="cls-1" d="M262.94,25.38c-3.49,0-5.44-2.46-5.44-6.59,0-4.66,2.79-6.89,5.65-6.89a4.71,4.71,0,0,1,3.55,1.39l-1.4,1.85a3.16,3.16,0,0,0-2.15-1,2.18,2.18,0,0,0-2,1.29,8.63,8.63,0,0,0-.53,3.57c0,1.75.28,2.86.86,3.5a2.27,2.27,0,0,0,1.7.73A3.66,3.66,0,0,0,265.73,22l1.32,1.7a5.33,5.33,0,0,1-4.11,1.7"/><path class="cls-1" d="M276.73,25.05V16.33c0-1.59-.56-2-1.62-2A4.76,4.76,0,0,0,272,15.85v9.2h-2.81V9.8A13.33,13.33,0,0,0,269,7l2.81-.61a13.63,13.63,0,0,1,.26,3v2.73c0,.82,0,1.45,0,1.45a5.73,5.73,0,0,1,3.92-1.67A3.46,3.46,0,0,1,279,13.5a4.86,4.86,0,0,1,.43,2.51v9Z"/><path class="cls-1" d="M288.25,25.38c-3.46,0-5.64-2.61-5.64-6.72s2.2-6.73,5.6-6.73c3.64,0,5.72,2.71,5.72,6.76s-2.2,6.69-5.68,6.69m0-11.35c-1.77,0-2.53,1.34-2.53,4.46,0,3.72.93,4.81,2.61,4.81s2.55-1.34,2.55-4.56c0-3.62-1-4.71-2.63-4.71"/><path class="cls-1" d="M301.86,25.38c-3.47,0-5.65-2.61-5.65-6.72s2.2-6.73,5.6-6.73c3.65,0,5.72,2.71,5.72,6.76s-2.2,6.69-5.67,6.69m0-11.35c-1.77,0-2.53,1.34-2.53,4.46,0,3.72.94,4.81,2.61,4.81s2.56-1.34,2.56-4.56c0-3.62-1-4.71-2.64-4.71"/><path class="cls-1" d="M313.39,25.33c-2.81,0-2.81-2.54-2.81-3.62V10.79A20.39,20.39,0,0,0,310.32,7l2.86-.64a15.12,15.12,0,0,1,.23,3.53V20.79c0,1.73.08,2,.28,2.31a.78.78,0,0,0,.91.2l.46,1.72a4.25,4.25,0,0,1-1.67.31"/><path class="cls-2" d="M16.13,36.9S3.5,30.29.84,16.13C-.32,9.91.06,0,.06,0h32s.38,9.91-.79,16.13C28.65,30.29,16.13,36.9,16.13,36.9"/><path class="cls-3" d="M16.11,36.52S3.88,29.65,1.31,15.94C.19,9.92.55.33.55.33h31s.37,9.59-.76,15.61C28.23,29.65,16.11,36.52,16.11,36.52"/><path class="cls-3" d="M16.12,36.42S3.9,29.55,1.33,15.84C.2,9.82.57.22.57.22h31s.36,9.6-.77,15.62C28.24,29.55,16.12,36.42,16.12,36.42"/><path class="cls-1" d="M16.12,36.66,16,36.6c-.12-.07-12.34-7.08-14.9-20.72C0,9.9.36.31.36.22V0H31.78v.2c0,.09.36,9.68-.76,15.66C28.46,29.52,16.35,36.53,16.22,36.6ZM.77.43c0,1.41-.26,9.92.76,15.37,2.4,12.79,13.41,19.67,14.59,20.37,1.18-.7,12.09-7.59,14.49-20.37,1-5.45.81-14,.76-15.37Z"/><polygon class="cls-4" points="9.89 31.59 22.26 31.57 20.88 32.93 19.98 33.67 12.2 33.68 11.2 32.78 9.89 31.59"/><polygon class="cls-4" points="6.55 27.67 25.62 27.67 24.79 28.84 24.12 29.57 8.11 29.59 7.35 28.73 6.55 27.67"/><polygon class="cls-4" points="4.17 23.78 28.02 23.78 26.92 25.68 5.26 25.68 4.59 24.68 4.17 23.78"/><polygon class="cls-4" points="1.35 15.88 1.54 16.92 1.78 17.78 30.45 17.77 30.64 16.82 30.83 15.86 1.35 15.88"/><polygon class="cls-4" points="0.52 0.38 31.59 0.38 31.48 5.04 31.46 9.65 0.67 9.64 0.57 7.81 0.5 4.24 0.52 0.38"/><polygon class="cls-4" points="2.4 19.77 3.05 21.75 29 21.74 29.78 19.77 2.4 19.77"/><polygon class="cls-4" points="0.84 11.79 31.35 11.79 31.28 12.82 31.14 13.87 1.06 13.85 0.87 12.59 0.84 11.79"/><path class="cls-1" d="M16.11,36.76,16,36.7C15.88,36.64,3.67,29.63,1.11,16,0,10,.34.42.34.32V.12H31.76v.2c0,.1.35,9.69-.77,15.66C28.45,29.63,16.33,36.63,16.21,36.7ZM.75.54C.71,2,.5,10.46,1.52,15.9c2.4,12.79,13.4,19.67,14.59,20.38,1.18-.71,12.09-7.59,14.48-20.38,1-5.44.81-13.95.77-15.36Z"/><path class="cls-1" d="M20.06,33.8h-8v-.3h8Zm2.23-2.09H9.88V31.4H22.29Zm1.86-2H8.05V29.4h16.1ZM25.6,27.8H6.5v-.3H25.6Zm1.32-2H5.22V25.5h21.7Zm1.14-1.91h-24v-.3h24Zm1-2H3v-.3H29Zm.78-2H2.36v-.3H29.8Zm.55-2H1.69v-.3H30.35Zm.46-1.9H1.22v-.31H30.81Zm.31-2H.93v-.31H31.12ZM31.31,12H.81v-.3h30.5Zm.1-2.09H.65V9.55H31.41Zm-22.47-2-.52-.6.23-.2.52.6Z"/><rect class="cls-5" x="2.73" y="7.33" width="0.78" height="0.31" transform="matrix(0.68, -0.74, 0.74, 0.68, -4.51, 4.72)"/><path class="cls-3" d="M2.18,2.67s0-.43.16-.59A1,1,0,0,1,2.94,2H5.39c.2,0,.25.17.48.17S6.13,2,6.34,2H9.29s.36,0,.46.12a.75.75,0,0,1,.14.52v.57s.91,0,.93.38S9.89,4,9.89,4V6.34s.93-.12.9.4-.9.41-.9.41V7.6a1.12,1.12,0,0,1-.12.55c-.21.29-.91.21-.91.21H3s-.5.08-.69-.12-.14-.57-.14-.57V7.22s-1,.1-1-.45,1-.46,1-.46V4s-.93.12-1-.43,1-.45,1-.45Z"/><path class="cls-1" d="M2.79,8.57a.87.87,0,0,1-.61-.19A1.1,1.1,0,0,1,2,7.66V7.42a1.18,1.18,0,0,1-.77-.23A.57.57,0,0,1,1,6.77a.54.54,0,0,1,.18-.41A1.26,1.26,0,0,1,2,6.12V4.21A1.17,1.17,0,0,1,1.24,4,.57.57,0,0,1,1,3.59a.56.56,0,0,1,.16-.41A1.28,1.28,0,0,1,2,2.93V2.68a1.06,1.06,0,0,1,.22-.74A1.08,1.08,0,0,1,3,1.77H5.39a.53.53,0,0,1,.32.11.26.26,0,0,0,.15.05A.3.3,0,0,0,6,1.88a.53.53,0,0,1,.33-.11H9.29c.06,0,.47,0,.62.21a1,1,0,0,1,.17.67V3a1.31,1.31,0,0,1,.77.23.49.49,0,0,1,.16.33.48.48,0,0,1-.14.38,1.26,1.26,0,0,1-.79.27V6.13a1.11,1.11,0,0,1,.74.21.53.53,0,0,1,.17.41.56.56,0,0,1-.19.39,1.23,1.23,0,0,1-.72.21V7.6a1.25,1.25,0,0,1-.16.66c-.26.37-1,.3-1.08.29H3ZM2.37,7v.66a.72.72,0,0,0,.09.44A.78.78,0,0,0,3,8.17H8.86c.26,0,.65,0,.75-.13A1,1,0,0,0,9.7,7.6V6.93l.21,0a1.06,1.06,0,0,0,.64-.1.17.17,0,0,0,0-.12.16.16,0,0,0,0-.11,1,1,0,0,0-.65-.09l-.21,0V3.81h.19a1.11,1.11,0,0,0,.7-.16.08.08,0,0,0,0-.09.06.06,0,0,0,0-.06,1.33,1.33,0,0,0-.69-.14l-.2,0V2.6a.68.68,0,0,0-.12-.42.62.62,0,0,0-.27,0h-3a.21.21,0,0,0-.13.05.54.54,0,0,1-.34.12h0a.57.57,0,0,1-.35-.12c-.06,0-.08-.05-.12-.05H2.94a.82.82,0,0,0-.47.07.83.83,0,0,0-.1.45v.66H2.16a1.14,1.14,0,0,0-.7.14.11.11,0,0,0,0,.11.18.18,0,0,0,.06.14,1.1,1.1,0,0,0,.67.11l.22,0V6.52H2.16a1.08,1.08,0,0,0-.69.14.13.13,0,0,0-.05.12.15.15,0,0,0,.05.13A1.08,1.08,0,0,0,2.16,7Z"/><rect class="cls-1" x="5.73" y="2.16" width="0.31" height="5.69"/><path class="cls-3" d="M6,7.86a.47.47,0,1,1-.46.46A.47.47,0,0,1,6,7.86"/><path class="cls-1" d="M6,9a.66.66,0,1,1,.66-.66A.65.65,0,0,1,6,9Zm0-.93a.27.27,0,1,0,0,.54.27.27,0,1,0,0-.54Z"/><path class="cls-1" d="M6.47,8.4l-.11-.29A1.16,1.16,0,0,0,6.52,8a1.23,1.23,0,0,1,.56-.19,4.91,4.91,0,0,1,1.33,0A.89.89,0,0,0,9,7.75a.85.85,0,0,0,.08-.46V2.8a.78.78,0,0,0-.29-.44V6.61s.11.58-.14.82a.94.94,0,0,1-.79.12c-.13,0-.85.08-1.29.16A1.24,1.24,0,0,0,6.09,8L5.93,7.8,5.79,8a1.15,1.15,0,0,0-.45-.27c-.43-.09-1.14-.15-1.29-.17a.93.93,0,0,1-.71,0l-.28.3a1,1,0,0,0,.41,0,5.48,5.48,0,0,1,1.34,0A1.4,1.4,0,0,1,5.36,8l.16.08-.11.29a1.1,1.1,0,0,1-.22-.11.86.86,0,0,0-.44-.14,4.68,4.68,0,0,0-1.24,0c-.06,0-.6.06-.82-.2a1.08,1.08,0,0,1-.16-.68V2.77c0-.44.59-.85.66-.89L3.28,2h.15V6.57a1.32,1.32,0,0,0,.07.64c0,.07.3.06.5,0h0s.85.07,1.35.17A1.4,1.4,0,0,1,6,7.69a1.52,1.52,0,0,1,.52-.28c.5-.09,1.32-.16,1.35-.17h0c.16,0,.44,0,.52,0s.09-.39.06-.57V2h.16l.08-.13c.07.05.66.46.66.89V7.28A1,1,0,0,1,9.2,8c-.23.26-.77.2-.83.19a5.17,5.17,0,0,0-1.24,0,1.14,1.14,0,0,0-.44.14A1,1,0,0,1,6.47,8.4ZM3.12,2.32a.75.75,0,0,0-.28.45V7.24a1.09,1.09,0,0,0,0,.31l.32-.34a2.51,2.51,0,0,1,0-.65Z"/><path class="cls-3" d="M12.15,2.67s0-.43.17-.59.59-.12.59-.12h2.46c.19,0,.24.17.47.17S16.1,2,16.32,2h2.95s.35,0,.45.12a.75.75,0,0,1,.14.52v.57s.91,0,.93.38-.93.46-.93.46V6.34s.93-.12.91.4-.91.41-.91.41V7.6a1.12,1.12,0,0,1-.12.55c-.21.29-.9.21-.9.21H13s-.49.08-.69-.12a1,1,0,0,1-.14-.57V7.22s-1,.1-1-.45,1-.46,1-.46V4s-.92.12-1-.43,1-.45,1-.45Z"/><path class="cls-1" d="M12.76,8.57a.83.83,0,0,1-.6-.19,1.12,1.12,0,0,1-.2-.72V7.42a1.2,1.2,0,0,1-.77-.23A.56.56,0,0,1,11,6.77a.57.57,0,0,1,.17-.41A1.3,1.3,0,0,1,12,6.12V4.21a1.23,1.23,0,0,1-.75-.2.6.6,0,0,1-.2-.42.52.52,0,0,1,.16-.41A1.24,1.24,0,0,1,12,2.93V2.68a1.08,1.08,0,0,1,.23-.74,1.05,1.05,0,0,1,.74-.17h2.44a.53.53,0,0,1,.32.11.23.23,0,0,0,.15.05A.24.24,0,0,0,16,1.88a.54.54,0,0,1,.34-.11h2.95c.06,0,.46,0,.61.21a.92.92,0,0,1,.17.67V3a1.29,1.29,0,0,1,.77.23.45.45,0,0,1,.16.33.48.48,0,0,1-.14.38,1.23,1.23,0,0,1-.78.27V6.13a1.18,1.18,0,0,1,.74.21.54.54,0,0,1,0,.8,1.22,1.22,0,0,1-.71.21V7.6a1.25,1.25,0,0,1-.16.66c-.27.37-1,.3-1.08.29H13ZM12.34,7v.66a.93.93,0,0,0,.09.44.79.79,0,0,0,.52.06h5.89c.26,0,.65,0,.75-.13a1,1,0,0,0,.08-.44V6.93l.21,0a1.05,1.05,0,0,0,.64-.1.17.17,0,0,0,.06-.12.12.12,0,0,0,0-.1,1,1,0,0,0-.65-.1l-.22,0V3.81h.2a1.11,1.11,0,0,0,.7-.16.14.14,0,0,0,0-.09c0-.14-.43-.21-.73-.2l-.2,0V2.6a.58.58,0,0,0-.11-.42.64.64,0,0,0-.27,0h-3a.2.2,0,0,0-.13.05.57.57,0,0,1-.35.12h0a.63.63,0,0,1-.35-.12c-.06,0-.08-.05-.11-.05H12.91a.79.79,0,0,0-.46.07.83.83,0,0,0-.11.45v.66h-.2a1.17,1.17,0,0,0-.71.14.14.14,0,0,0,0,.11.19.19,0,0,0,.07.14,1.08,1.08,0,0,0,.67.11l.21,0V6.52h-.2a1.1,1.1,0,0,0-.7.14.17.17,0,0,0,0,.12.16.16,0,0,0,.06.13,1.16,1.16,0,0,0,.68.13Z"/><rect class="cls-1" x="15.7" y="2.16" width="0.31" height="5.69"/><path class="cls-3" d="M15.93,7.86a.47.47,0,0,1,0,.93.47.47,0,1,1,0-.93"/><path class="cls-1" d="M15.93,9a.66.66,0,1,1,.66-.66A.66.66,0,0,1,15.93,9Zm0-.93a.27.27,0,1,0,.27.27A.27.27,0,0,0,15.93,8.05Z"/><path class="cls-1" d="M16.45,8.4l-.11-.29c.08,0,.11-.06.16-.08a1.13,1.13,0,0,1,.55-.19,5,5,0,0,1,1.34,0c.17,0,.46,0,.55-.09A.76.76,0,0,0,19,7.29V2.8a.78.78,0,0,0-.29-.44V6.61s.12.58-.14.82a.92.92,0,0,1-.78.12c-.14,0-.85.08-1.29.16a1.19,1.19,0,0,0-.45.27L15.9,7.8,15.77,8a1.31,1.31,0,0,0-.45-.27c-.44-.09-1.15-.15-1.29-.17a.93.93,0,0,1-.71,0l-.29.3a1,1,0,0,0,.42,0,5.39,5.39,0,0,1,1.33,0,1.55,1.55,0,0,1,.56.19l.16.08-.11.29a1.1,1.1,0,0,1-.22-.11.92.92,0,0,0-.45-.14,4.68,4.68,0,0,0-1.24,0c-.06,0-.59.06-.82-.2a1,1,0,0,1-.15-.68V2.77c0-.44.6-.85.67-.89l.08.12h.15V6.57a1.45,1.45,0,0,0,.08.64c0,.07.3.06.49,0H14s.84.07,1.34.17a1.38,1.38,0,0,1,.57.31,1.35,1.35,0,0,1,.52-.28c.5-.09,1.31-.16,1.35-.17h0c.17,0,.44,0,.53,0a.81.81,0,0,0,.05-.57V2h.15l.09-.13c.06.05.66.46.66.89V7.28a1.07,1.07,0,0,1-.16.67c-.23.26-.76.2-.82.19a5.19,5.19,0,0,0-1.24,0,1.32,1.32,0,0,0-.45.14A1.19,1.19,0,0,1,16.45,8.4ZM13.1,2.32a.77.77,0,0,0-.29.45V7.24a1.1,1.1,0,0,0,0,.31l.32-.34a2.11,2.11,0,0,1-.05-.65Z"/><path class="cls-3" d="M22.13,2.67s0-.43.16-.59a1,1,0,0,1,.6-.12h2.45c.2,0,.25.17.48.17s.26-.17.47-.17h2.95s.36,0,.45.12a.73.73,0,0,1,.15.52v.57s.9,0,.93.38-.93.46-.93.46V6.34s.93-.12.9.4-.9.41-.9.41V7.6a1.12,1.12,0,0,1-.12.55c-.21.29-.91.21-.91.21H23s-.5.08-.69-.12-.14-.57-.14-.57V7.22s-1,.1-1-.45,1-.46,1-.46V4s-.93.12-1-.43,1-.45,1-.45Z"/><path class="cls-1" d="M22.73,8.57a.86.86,0,0,1-.6-.19,1.19,1.19,0,0,1-.2-.72V7.42a1.15,1.15,0,0,1-.76-.23A.57.57,0,0,1,21,6.77a.54.54,0,0,1,.18-.41,1.25,1.25,0,0,1,.77-.24V4.21a1.14,1.14,0,0,1-.74-.2A.57.57,0,0,1,21,3.59a.56.56,0,0,1,.16-.41,1.24,1.24,0,0,1,.79-.25V2.68a1.13,1.13,0,0,1,.23-.74,1.08,1.08,0,0,1,.75-.17h2.43a.53.53,0,0,1,.32.11.24.24,0,0,0,.15.05A.24.24,0,0,0,26,1.88a.59.59,0,0,1,.34-.11h2.95c.06,0,.47,0,.62.21a1,1,0,0,1,.17.67V3a1.31,1.31,0,0,1,.77.23.49.49,0,0,1,.16.33.48.48,0,0,1-.14.38,1.26,1.26,0,0,1-.79.27V6.13a1.12,1.12,0,0,1,.74.21.53.53,0,0,1,.17.41.56.56,0,0,1-.19.39,1.23,1.23,0,0,1-.72.21V7.6a1.32,1.32,0,0,1-.15.66c-.27.37-1,.3-1.09.29H23A.92.92,0,0,1,22.73,8.57ZM22.32,7v.66a.74.74,0,0,0,.09.44.79.79,0,0,0,.52.06h5.88c.26,0,.66,0,.75-.14a.94.94,0,0,0,.09-.43V6.93l.21,0a1.08,1.08,0,0,0,.64-.1.17.17,0,0,0,.05-.12.16.16,0,0,0,0-.11,1,1,0,0,0-.65-.09l-.21,0V3.81h.19a1.11,1.11,0,0,0,.7-.16.08.08,0,0,0,0-.09.06.06,0,0,0,0-.06,1.31,1.31,0,0,0-.69-.14l-.2,0V2.6a.68.68,0,0,0-.12-.42.64.64,0,0,0-.27,0h-3a.2.2,0,0,0-.13.05.54.54,0,0,1-.34.12h0a.64.64,0,0,1-.36-.12c-.05,0-.07-.05-.11-.05H22.89a.82.82,0,0,0-.47.07.83.83,0,0,0-.1.45v.66h-.21a1.14,1.14,0,0,0-.7.14.11.11,0,0,0,0,.11.18.18,0,0,0,.06.14,1.12,1.12,0,0,0,.67.11l.22,0V6.52h-.21a1.07,1.07,0,0,0-.69.14.13.13,0,0,0-.05.12.15.15,0,0,0,.05.13,1.2,1.2,0,0,0,.69.13Z"/><rect class="cls-1" x="25.68" y="2.16" width="0.31" height="5.69"/><path class="cls-3" d="M25.9,7.86a.47.47,0,1,1-.46.46.47.47,0,0,1,.46-.46"/><path class="cls-1" d="M25.9,9a.66.66,0,1,1,.66-.66A.65.65,0,0,1,25.9,9Zm0-.93a.27.27,0,0,0,0,.54.27.27,0,1,0,0-.54Z"/><path class="cls-1" d="M26.42,8.4l-.11-.29A1.16,1.16,0,0,0,26.47,8,1.23,1.23,0,0,1,27,7.84a4.91,4.91,0,0,1,1.33,0,.89.89,0,0,0,.56-.09A.85.85,0,0,0,29,7.29V2.8a.78.78,0,0,0-.29-.44V6.61s.11.58-.14.82a.94.94,0,0,1-.79.12c-.13,0-.85.08-1.29.16A1.24,1.24,0,0,0,26,8l-.16-.19L25.74,8a1.15,1.15,0,0,0-.45-.27c-.43-.09-1.14-.15-1.29-.17a.93.93,0,0,1-.71,0l-.28.3a1.15,1.15,0,0,0,.41,0,5.41,5.41,0,0,1,1.33,0,1.4,1.4,0,0,1,.56.19l.16.08-.11.29a1.1,1.1,0,0,1-.22-.11.86.86,0,0,0-.44-.14,4.68,4.68,0,0,0-1.24,0c-.06,0-.6.06-.82-.2a1.08,1.08,0,0,1-.16-.68V2.77c0-.44.59-.85.66-.89l.09.12h.15V6.57a1.32,1.32,0,0,0,.07.64c0,.07.3.06.5,0H24s.85.07,1.35.17a1.4,1.4,0,0,1,.56.31,1.52,1.52,0,0,1,.52-.28c.5-.09,1.32-.16,1.35-.17h0c.16,0,.44,0,.53,0s.08-.39.05-.57V2h.16l.08-.13c.07.05.66.46.66.89V7.28a1,1,0,0,1-.15.67c-.23.26-.77.2-.83.19a5.17,5.17,0,0,0-1.24,0,1.14,1.14,0,0,0-.44.14A1,1,0,0,1,26.42,8.4ZM23.07,2.32a.77.77,0,0,0-.29.45V7.24a1.67,1.67,0,0,0,0,.31l.32-.34a2.51,2.51,0,0,1-.05-.65Z"/><path class="cls-2" d="M5.62,3.42v.06c-.14.23-.21,0-.49,1s-.31,1.18-.42,1.18-.2-.59-.41-1.2c-.36-1-.49-.93-.49-1s0,0,0-.06H4.6c0,.06,0,.08,0,.08s-.1.16-.1.35c0,0,.21.74.32.74s.33-.81.33-.84S5.07,3.58,5,3.48V3.42h.61"/><path class="cls-2" d="M7.25,3.34h.28c0,.11.08.22.08.28v.21c-.1,0-.08,0-.08,0-.15,0-.22-.23-.36-.23H6.92a.61.61,0,0,0-.1.37v.17a.17.17,0,0,0,.2.18c.24,0,.29-.23.41-.23s.1.21.1.35,0,.29-.12.29S7.25,4.49,7,4.49a.22.22,0,0,0-.16.18v.57a.24.24,0,0,0,.27.25.55.55,0,0,0,.53-.39h.1a1,1,0,0,1,.06.23v.22a.63.63,0,0,1-.25.12H6.31s-.06-.07-.08-.12.22-.19.22-.35V4c0-.44-.2-.32-.2-.49V3.42c.33,0,.57,0,.81,0a.54.54,0,0,0,.19-.08"/><path class="cls-2" d="M16.51,3.36h1v.15c-.1,0-.28.15-.28.32V5.27c0,.32.28.2.28.35V5.8h-1V5.61c0-.13.27,0,.27-.34V3.83a.38.38,0,0,0-.27-.33V3.36"/><path class="cls-2" d="M27.86,3.32c.05,0,.16.11.16.4,0,.07-.07.06,0,.22h-.13a1.94,1.94,0,0,0-.27-.31h-.27c-.1.17-.08.06-.08.22,0,.39.95.54.95,1.26,0,.31-.27.64-.45.65h-.66a2,2,0,0,1,0-.73c0-.08,0-.14.07-.14s.12.67.53.67A.29.29,0,0,0,28,5.29c0-.55-1-.55-1-1.37a.52.52,0,0,1,.37-.53h.31c.08,0,.1-.07.2-.07"/><path class="cls-2" d="M15.78,5.49H15.7s-.52-.54-.52-.74.56-.27.53-.85a.59.59,0,0,0-.46-.59H13.86a.34.34,0,0,0,0,.17s.31.21.28.43V5.27c0,.08-.22.25-.22.35a.67.67,0,0,1,0,.2h.82a1.05,1.05,0,0,0,0-.18c0-.07-.14-.17-.17-.33a.59.59,0,0,1,0-.32h.11a2.09,2.09,0,0,0,.73.82h.32c0,.06,0-.32,0-.32"/><path class="cls-2" d="M26.67,5.54a2,2,0,0,0,.26.19V5.8h-.82s-.06-.08-.06-.11l.15-.27a3,3,0,0,1-.27-.32,1.37,1.37,0,0,0-.3,0c-.09.08-.06.1-.17.27s0,.09.18.27a.52.52,0,0,1-.06.15H24V5.71c0-.17.26-.11.26-.48V4.05c0-.14,0-.51-.13-.51a.78.78,0,0,0-.4.36h-.09V3.74s0-.55.22-.55a2,2,0,0,0,.45.13h.57s.16-.09.29-.09.13.07.13.18-.1.53-.2.53-.08-.18-.26-.4h-.16a8.25,8.25,0,0,0,0,1.49,1.61,1.61,0,0,0,0,.31c0,.09.06.26.16.26.33,0,.42-.81.58-1.19,0,0,.32-1.16.4-1.39Z"/><path class="cls-3" d="M14.68,3.57H15a.69.69,0,0,1,.26.52.36.36,0,0,1,0,.1c0,.18-.21.25-.24.31h-.28c0-.08-.09-.13-.09-.22,0-.31,0-.29,0-.39s0-.13.06-.32"/><path class="cls-3" d="M25.78,4.23a1.07,1.07,0,0,1,.16.44.4.4,0,0,0,0,.11h-.31c0-.16,0-.13,0-.13a1.91,1.91,0,0,1,.06-.42Z"/></g></g></svg>