<svg width="245" height="30" viewBox="0 0 245 30" fill="none" xmlns="http://www.w3.org/2000/svg">
<g clip-path="url(#clip0_18051_883)">
<path d="M51.5859 22.2947V10.7047H53.8999V22.2267H51.5859V22.2947ZM56.4179 22.2947V10.7047H58.7999L62.2029 18.4087L65.2649 10.7047H67.6469V22.2267H65.3329V15.7497L62.6109 22.3637H61.7939L58.7319 15.7497V22.2947H56.4179ZM70.1649 22.2947V10.7047H73.7719C74.3849 10.7047 74.9289 10.7727 75.4059 10.8407C75.8819 10.9087 76.3583 11.0451 76.8349 11.2497C77.4469 11.5227 77.8549 11.9317 78.1279 12.4767C78.3999 13.0227 78.5359 13.6367 78.5359 14.2497C78.5359 14.5897 78.4679 14.9317 78.3999 15.2727C78.3319 15.6137 78.1959 15.9547 77.9919 16.2267L77.3789 17.0447C77.1069 17.3177 76.8349 17.4547 76.4939 17.5907C76.0859 17.7267 75.6779 17.8637 75.2689 17.9307C74.8609 17.9997 74.4529 17.9997 73.9759 17.9997H72.4109V22.1597H70.1649V22.2947ZM72.4109 16.0907H73.7039C74.0439 16.0907 74.3169 16.0907 74.5889 16.0227C74.8609 15.9547 75.0649 15.9547 75.2689 15.8177C75.6089 15.6817 75.8139 15.4777 75.9499 15.2047C76.0835 14.9404 76.1531 14.6484 76.1531 14.3522C76.1531 14.0561 76.0835 13.7641 75.9499 13.4997C75.8139 13.2267 75.5419 13.0227 75.2009 12.8857C74.9969 12.8177 74.7929 12.7497 74.5889 12.7497C74.3849 12.6817 74.1119 12.6817 73.7719 12.6817H72.4119L72.4109 16.0907ZM80.1699 22.2947V10.7047H88.0639V12.8177H82.4839V15.4777H87.1109V17.5907H82.4829V20.2497H88.4729V22.3637H80.1689L80.1699 22.2947ZM90.1059 22.2947V10.7047H94.7999C95.2769 10.7047 95.7529 10.7727 96.2299 10.8407C96.7059 10.9767 97.1139 11.1137 97.5229 11.3857C97.9309 11.6587 98.2029 11.9997 98.4749 12.4087C98.7479 12.8187 98.8149 13.4317 98.8149 14.1137C98.8149 14.5227 98.7479 14.9317 98.6799 15.3407C98.5429 15.7497 98.4069 16.0907 98.2029 16.3637C97.9989 16.7037 97.7269 16.9764 97.3869 17.1817C97.0469 17.4547 96.6369 17.5907 96.1609 17.7267L99.0879 22.2267H96.4339L93.5749 17.9317H92.2819V22.2267H90.1049L90.1059 22.2947ZM92.4189 15.9547H94.1889C95.0063 15.9547 95.6186 15.8181 96.0259 15.5447C96.4349 15.2727 96.5709 14.8637 96.5709 14.3857C96.5709 13.8407 96.3669 13.4317 96.0259 13.1587C95.6859 12.8854 95.0736 12.7491 94.1889 12.7497H92.4189V15.9547ZM100.722 22.2947V10.7047H103.036V22.2267H100.722V22.2947ZM104.193 22.2947L108.957 10.7727H110.59L115.422 22.2947H112.904L111.951 19.9767H107.528L106.575 22.2947H104.193ZM108.208 17.9997H111.203L109.706 14.1817L108.208 17.9997ZM116.511 22.2947V10.7047H118.825V20.1817H124.61V22.2947H116.511ZM130.463 22.2947L127.808 10.7727H130.122L131.552 17.6587L133.797 10.7727H135.227L137.472 17.6587L138.902 10.7727H141.215L138.561 22.2947H137.064L134.41 14.5227L131.824 22.2947H130.463ZM140.399 22.2947L145.162 10.7727H146.796L151.628 22.2947H149.042L148.089 19.9767H143.665L142.713 22.2947H140.399ZM144.414 17.9997H147.408L145.911 14.1817L144.414 17.9997ZM152.717 22.2947V10.7047H157.412C157.889 10.7047 158.365 10.7727 158.842 10.8407C159.318 10.9767 159.726 11.1137 160.135 11.3857C160.543 11.6587 160.815 11.9997 161.088 12.4087C161.36 12.8187 161.428 13.4317 161.428 14.1137C161.428 14.5227 161.36 14.9317 161.292 15.3407C161.156 15.7497 161.019 16.0907 160.815 16.3637C160.611 16.7037 160.339 16.9764 159.999 17.1817C159.659 17.4547 159.25 17.5907 158.774 17.7267L161.7 22.2267H159.046L156.188 17.9317H154.894V22.2267H152.717V22.2947ZM155.031 15.9547H156.8C157.617 15.9547 158.23 15.8181 158.637 15.5447C159.046 15.2727 159.182 14.8637 159.182 14.3857C159.182 13.8407 158.978 13.4317 158.638 13.1587C158.298 12.8854 157.685 12.7491 156.8 12.7497H155.03V15.9547H155.031ZM166.6 22.2947V10.7047H168.982L172.385 18.4087L175.447 10.7047H177.829V22.2267H175.515V15.7497L172.725 22.2947H171.908L168.846 15.6817V22.2267H166.6V22.2947ZM182.593 18.0677C182.593 18.7497 182.797 19.2947 183.206 19.7727C183.614 20.2497 184.158 20.4547 184.975 20.4547C185.724 20.4547 186.336 20.2497 186.745 19.7727C187.153 19.2947 187.357 18.7497 187.357 18.0677V10.7047H189.671V18.2727C189.671 18.9547 189.535 19.4997 189.331 20.0447C189.058 20.5907 188.786 20.9997 188.31 21.3407C187.901 21.6807 187.357 21.9547 186.812 22.1587C186.268 22.3637 185.656 22.4317 184.975 22.4317C184.363 22.4317 183.75 22.3637 183.137 22.1587C182.593 21.9547 182.049 21.6817 181.64 21.3407C181.232 20.9997 180.892 20.5227 180.62 20.0447C180.347 19.4997 180.28 18.9547 180.28 18.2727V10.7047H182.593V18.0677ZM192.87 19.2267C193.142 19.6367 193.482 19.9767 193.958 20.2497C194.435 20.4547 194.911 20.5897 195.456 20.5897C196.068 20.5897 196.544 20.4547 196.885 20.2497C197.226 20.0447 197.429 19.7047 197.429 19.3637C197.429 19.0907 197.361 18.8857 197.293 18.7497C197.225 18.5447 197.089 18.4097 196.885 18.2047C196.681 18.0677 196.408 17.8637 196.068 17.7267C195.728 17.5897 195.251 17.3867 194.775 17.2497C194.299 17.0447 193.822 16.9097 193.414 16.7047C193.006 16.4997 192.665 16.2947 192.394 16.0227C192.113 15.7463 191.883 15.4231 191.713 15.0677C191.576 14.7277 191.508 14.3187 191.508 13.8407C191.508 13.3637 191.576 12.9547 191.781 12.5447C191.917 12.1357 192.189 11.7947 192.529 11.5227C192.869 11.2497 193.278 11.0447 193.822 10.8407C194.299 10.7047 194.912 10.6357 195.592 10.6357C196.136 10.6357 196.681 10.7047 197.089 10.7727C197.497 10.9087 197.906 11.0447 198.246 11.1817C198.586 11.3864 198.858 11.5907 199.062 11.7947C199.267 12.0677 199.471 12.2727 199.675 12.5447L197.974 13.7727C197.701 13.4317 197.429 13.0907 197.089 12.8857C196.749 12.6137 196.204 12.5457 195.592 12.5457C194.98 12.5457 194.571 12.6817 194.231 12.8857C193.958 13.0907 193.754 13.3637 193.754 13.7047C193.754 14.1141 193.958 14.4547 194.367 14.7267C194.775 14.9997 195.319 15.2727 196.137 15.5447C196.749 15.7497 197.225 15.9547 197.701 16.2267C198.178 16.4317 198.518 16.7047 198.791 17.0447C199.063 17.3177 199.335 17.6587 199.471 18.0677C199.607 18.4777 199.675 18.8857 199.675 19.4317C199.675 19.9767 199.539 20.5217 199.335 20.9317C199.131 21.3417 198.79 21.6817 198.382 21.9547C197.969 22.2387 197.508 22.4463 197.021 22.5677C196.511 22.7071 195.985 22.776 195.456 22.7727C193.346 22.7727 191.916 22.0907 191.032 20.6587L192.87 19.2267ZM201.444 22.2947V10.7047H209.339V12.8177H203.759V15.4777H208.386V17.5907H203.758V20.2497H209.748V22.3637H201.444V22.2947ZM213.626 18.0677C213.626 18.7497 213.831 19.2947 214.239 19.7727C214.647 20.2497 215.192 20.4547 216.009 20.4547C216.757 20.4547 217.369 20.2497 217.778 19.7727C218.187 19.2957 218.39 18.7497 218.39 18.0677V10.7047H220.704V18.2727C220.704 18.9547 220.568 19.4997 220.364 20.0447C220.092 20.5907 219.819 20.9997 219.344 21.3407C218.934 21.6807 218.39 21.9547 217.846 22.1587C217.301 22.3637 216.689 22.4317 216.008 22.4317C215.396 22.4317 214.783 22.3637 214.171 22.1587C213.626 21.9547 213.081 21.6817 212.674 21.3407C212.265 20.9997 211.925 20.5227 211.653 20.0447C211.381 19.4997 211.313 18.9547 211.313 18.2727V10.7047H213.626V18.0677ZM223.018 22.2947V10.7047H225.4L228.803 18.4087L231.865 10.7047H234.247V22.2267H231.933V15.7497L229.143 22.2947H228.326L225.264 15.6817V22.2267H223.018V22.2947ZM237.65 19.2267C237.922 19.6367 238.262 19.9767 238.739 20.2497C239.215 20.4547 239.692 20.5897 240.236 20.5897C240.849 20.5897 241.325 20.4547 241.666 20.2497C242.007 20.0447 242.21 19.7047 242.21 19.3637C242.21 19.0907 242.142 18.8857 242.074 18.7497C242.006 18.5447 241.869 18.4097 241.665 18.2047C241.461 18.0677 241.189 17.8637 240.849 17.7267C240.509 17.5897 240.032 17.3867 239.556 17.2497C239.079 17.0447 238.603 16.9097 238.194 16.7047C237.786 16.4997 237.446 16.2947 237.174 16.0227C236.894 15.7462 236.664 15.423 236.494 15.0677C236.357 14.7277 236.289 14.3187 236.289 13.8407C236.289 13.3637 236.357 12.9547 236.561 12.5447C236.697 12.1357 236.969 11.7947 237.31 11.5227C237.65 11.2497 238.058 11.0447 238.603 10.8407C239.079 10.7047 239.692 10.6357 240.373 10.6357C240.917 10.6357 241.461 10.7047 241.869 10.7727C242.278 10.9087 242.686 11.0447 243.026 11.1817C243.366 11.3864 243.638 11.5907 243.843 11.7947C244.047 12.0677 244.251 12.2727 244.456 12.5447L242.754 13.7727C242.482 13.4317 242.21 13.0907 241.869 12.8857C241.529 12.6137 240.985 12.5457 240.372 12.5457C239.76 12.5457 239.352 12.6817 239.012 12.8857C238.739 13.0907 238.535 13.3637 238.535 13.7047C238.535 14.1141 238.739 14.4547 239.147 14.7267C239.556 14.9997 240.1 15.2727 240.917 15.5447C241.529 15.7497 242.006 15.9547 242.482 16.2267C242.958 16.4317 243.299 16.7047 243.571 17.0447C243.843 17.3177 244.115 17.6587 244.251 18.0677C244.387 18.4777 244.456 18.8857 244.456 19.4317C244.456 19.9767 244.319 20.5217 244.116 20.9317C243.911 21.3407 243.571 21.6817 243.162 21.9547C242.749 22.2386 242.288 22.4462 241.802 22.5677C241.292 22.7072 240.765 22.7761 240.236 22.7727C238.126 22.7727 236.697 22.0907 235.813 20.6587L237.65 19.2267Z" fill="#D31145"/>
<path d="M14.972 6.818L16.81 12.75L18.783 6.818H20.961L22.935 12.75L24.84 6.818H28.107L30.217 0H9.596L11.706 6.818H14.972ZM9.936 3.886H0V29.864H18.103L10.004 4.09L9.936 3.886ZM10.276 22.227H6.67V10.705H10.277V22.227H10.276ZM29.876 3.886L21.642 29.864H46.958V3.886H29.876ZM41.854 22.227H38.52V16.568L35.866 22.295H34.913L32.259 16.568V22.228H28.925V10.704H32.6L35.39 17.044L38.18 10.704H41.855V22.226L41.854 22.227Z" fill="#D31145"/>
<path d="M19.872 11.8643L17.831 18.3413H15.381L17.762 25.9773H22.05L24.432 18.3413H21.982L19.872 11.8643Z" fill="#D31145"/>
</g>
<defs>
<clipPath id="clip0_18051_883">
<rect width="244.456" height="29.864" fill="white"/>
</clipPath>
</defs>
</svg>
