<svg xmlns="http://www.w3.org/2000/svg" xmlns:xlink="http://www.w3.org/1999/xlink" height="66" viewBox="0 0 280 66" width="280" role="img" aria-labelledby="svg-title-oe-generation-logo">
    <title id="svg-title-oe-generation-logo">Octopus Energy Generation logo</title>
    <clipPath id="svg-id-oe-generation-logo-a">
        <path d="m0 0h279.35v65.39h-279.35z"/>
    </clipPath>
    <clipPath id="svg-id-oe-generation-logo-b">
        <path d="m0 0h280v66h-280z"/>
    </clipPath>
    <g clip-path="url(#svg-id-oe-generation-logo-b)">
        <g clip-path="url(#svg-id-oe-generation-logo-a)">
            <g fill="#fff">
                <path d="m11.71 22.98a6.7 6.7 0 0 0 6.64-7c0-3.88-2.47-7-6.64-7s-6.64 3.15-6.64 7a6.69 6.69 0 0 0 6.64 7zm11.72-7.18c0 6.32-4.64 11.44-11.83 11.44a11.31 11.31 0 0 1 -11.59-11.28c0-6.65 5.18-11.29 11.71-11.29s11.71 4.82 11.71 11.13z"/>
                <path d="m68.43 22.98a6.71 6.71 0 0 0 6.65-7c0-3.88-2.48-7-6.65-7s-6.64 3.15-6.64 7a6.69 6.69 0 0 0 6.64 7zm11.71-7.18c0 6.32-4.64 11.44-11.83 11.44a11.3 11.3 0 0 1 -11.58-11.28c0-6.65 5.17-11.29 11.7-11.29s11.71 4.82 11.71 11.13z"/>
                <path d="m106.01 18.05v-10.88c.41-3.13 4.82-1.45 4.82-1.45v11.66c0 3.64 2.49 5.42 5.56 5.42s5.56-1.72 5.56-5.42v-10.2c.41-3.13 4.82-1.45 4.82-1.45v7.5c.62 9.24 9.46 9.93 9.46 9.93 8.8 1.22 8-2.4 8-2.4-.23-1.82-1.59-2.23-3.93-2.53-1.45-.18-2.71-.31-2.71-.31-9.44-.6-8.51-6.82-8.51-6.82.12-5.27 5.75-6.07 5.75-6.07a22.41 22.41 0 0 1 8.49 0c7.75 1.61 3.94 5.28 3.3 5.49 0 0-2.07-1.89-6.89-2.16-5.94-.38-5.84 2.42-5.84 2.42-.19 2.05 2.43 2.42 2.43 2.42l6.37.9c7.52 1 6.6 6.38 6.6 6.38-.49 6.68-8.45 6.73-8.45 6.73-10.87.63-15-5-15-5-1.52 3-4.57 5.06-9.63 5.06-6 0-10.28-3.38-10.28-9.45"/>
                <path d="m35.31 5.03c-8.7.62-10.68 8.71-10.47 11.06-.12 3.55 2.36 11.15 12 11.15a20.592 20.592 0 0 0 3.49-.33v-4.31a22.747 22.747 0 0 1 -3.38.3 6.77 6.77 0 0 1 -7-6.81 6.84 6.84 0 0 1 7-6.81h7.78v10.64s-.56 9 10.83 7.12v-4.29c-6.32 1.36-6-2.62-6-2.62v-10.85h6v-4.25h-6v-5h-4.85v5z"/>
                <path d="m92.98 23c3.84 0 6.58-3.14 6.58-7s-2.46-7-6.58-7-6.57 3.15-6.57 7 2.71 7 6.57 7zm-6.55 10.71c-.41 3.13-4.82 1.45-4.82 1.45v-19.2c.28-6.13 3.94-11.12 11.49-11.29a11 11 0 0 1 11.49 11.13c0 6.7-4.65 11.67-11.59 11.38a8.681 8.681 0 0 1 -6.55-3.26v9.79z"/>
                <path d="m157.08 14.32c.68-5 4-8.2 8.58-8.2a8.122 8.122 0 0 1 6 2.47 9.481 9.481 0 0 1 2.56 5.73zm16.7 8.11a9.582 9.582 0 0 1 -7.51 3.34 8.9 8.9 0 0 1 -6.84-2.91 10.415 10.415 0 0 1 -2.45-7v-.4h18.66v-.17a11.349 11.349 0 0 0 -2.84-7.34 9.419 9.419 0 0 0 -7.12-3c-5.78 0-10 4.6-10 10.95 0 6.5 4.35 11 10.58 11a10.829 10.829 0 0 0 8.41-3.63l.1-.12-.89-.89-.11.13z"/>
                <path d="m195.43 7.68a9.214 9.214 0 0 0 -13.14 0c-1.57 1.68-2.31 3.86-2.31 6.85v11.94h1.27v-11.94a8.387 8.387 0 0 1 2-6.06 7.8 7.8 0 0 1 11.16 0 8.339 8.339 0 0 1 2 6.06v11.94h1.27v-11.94c0-3-.73-5.17-2.31-6.85z"/>
                <path d="m235.15 4.95a9.061 9.061 0 0 0 -6.57 2.73c-1.57 1.68-2.31 3.86-2.31 6.85v11.94h1.27v-11.94a8.388 8.388 0 0 1 2-6.06 7.862 7.862 0 0 1 5.58-2.35h.17v-1.17z"/>
                <path d="m203.36 14.32c.68-5 4-8.2 8.57-8.2a8.122 8.122 0 0 1 6 2.47 9.53 9.53 0 0 1 2.56 5.73zm16.69 8.11a9.551 9.551 0 0 1 -7.5 3.34 8.9 8.9 0 0 1 -6.86-2.88 10.414 10.414 0 0 1 -2.45-7v-.4h18.66v-.17a11.4 11.4 0 0 0 -2.84-7.34 9.442 9.442 0 0 0 -7.13-3c-5.77 0-10 4.6-10 10.95 0 6.5 4.35 11 10.58 11a10.829 10.829 0 0 0 8.41-3.63l.1-.12-.89-.89-.12.13z"/>
                <path d="m277.96 5.41-8.1 17.14-9.09-17.14h-1.35l9.74 18.59-6.53 13.87h1.4l15.33-32.46z"/>
                <path d="m256.16 15.94c0 5.79-3.62 9.83-8.81 9.83a9.83 9.83 0 0 1 0-19.65c5.19 0 8.81 4 8.81 9.82zm-8.81-11a10.669 10.669 0 0 0 -7.77 3.23 11.429 11.429 0 0 0 0 15.55 10.66 10.66 0 0 0 7.77 3.22 9.479 9.479 0 0 0 8.82-5.34v4.52c0 2.54-.09 5.41-1.11 7.22-1.37 2.41-4 3.73-7.26 3.73a10.271 10.271 0 0 1 -8.71-4.35l-.1-.15-1 .77.09.13a11.6 11.6 0 0 0 9.74 4.78c3.78 0 6.66-1.46 8.34-4.22 1.2-2 1.3-5.16 1.3-8v-10.09c0-6.47-4.15-11-10.09-11z"/>
            </g>
            <path d="m70.295 49.64-.241-.6zm2.192-1.346.435.483.009-.008zm1.5-7.264.587-.278zm-3.695-3.444-.241.6zm-5.229 0 .233.607.013-.005zm-3.563 3.414.591.271v-.006zm0 5.2-.593.265zm1.44 2.066.451-.468zm2.129 1.378.247-.6zm-4.477 5.291-.525-.383a.65.65 0 0 0 .132.9zm.595-.814.393-.517a.65.65 0 0 0 -.918.134zm9.33 1.847-.206-.617h-.014zm2.1-1.252-.442-.476-.009.008zm1.346-2.067-.6-.241v.013zm.5-5.761h.65a.65.65 0 0 0 -1.231-.291zm-2.693 3.037.361.541h.006zm-7.139.626-.246.6zm-2.442-1.566-.445.473zm-1.691-2.348-.598.263v.005zm0-6.012.592.269zm1.691-2.38-.445-.473zm2.442-1.565-.241-.6zm5.2-.25.183-.624zm3.469 2.22-.5.418.019.021zm1.159 1.628-.573.307a.65.65 0 0 0 1.223-.307zm0-3.789v-.65a.65.65 0 0 0 -.65.65zm1.033 0h.65a.65.65 0 0 0 -.65-.65zm-.532 16.47-.6-.239zm-1.5 2.348-.46-.46zm-2.474 1.534-.221-.611zm-3.319-6.05a7.667 7.667 0 0 0 2.871-.547l-.483-1.207a6.366 6.366 0 0 1 -2.389.454zm2.871-.547a7.939 7.939 0 0 0 2.385-1.467l-.87-.966a6.64 6.64 0 0 1 -2 1.226zm2.394-1.475a7.4 7.4 0 0 0 1.647-2.263l-1.179-.557a6.1 6.1 0 0 1 -1.359 1.87zm1.647-2.263a6.569 6.569 0 0 0 .621-2.846h-1.3a5.271 5.271 0 0 1 -.5 2.289zm.621-2.846v-.06h-1.3v.063zm0-.063a6.57 6.57 0 0 0 -.626-2.846l-1.175.556a5.271 5.271 0 0 1 .5 2.289zm-.626-2.846a7.4 7.4 0 0 0 -1.647-2.263l-.887.95a6.1 6.1 0 0 1 1.36 1.87zm-1.644-2.263a7.622 7.622 0 0 0 -2.394-1.506l-.483 1.207a6.321 6.321 0 0 1 1.99 1.249zm-2.394-1.506a7.666 7.666 0 0 0 -2.871-.547v1.3a6.366 6.366 0 0 1 2.389.454zm-2.871-.547a7.429 7.429 0 0 0 -2.846.55l.493 1.2a6.129 6.129 0 0 1 2.352-.452zm-2.832.544a6.919 6.919 0 0 0 -2.347 1.485l.9.935a5.617 5.617 0 0 1 1.914-1.207zm-2.347 1.485a7.22 7.22 0 0 0 -1.586 2.269l1.187.531a5.921 5.921 0 0 1 1.3-1.864zm-1.579 2.263a6.726 6.726 0 0 0 -.592 2.839h1.3a5.428 5.428 0 0 1 .473-2.3zm-.592 2.839v.063h1.3v-.063zm0 .063a6.864 6.864 0 0 0 .589 2.833l1.187-.531a5.566 5.566 0 0 1 -.476-2.3zm.589 2.833a7.218 7.218 0 0 0 1.582 2.269l.9-.935a5.921 5.921 0 0 1 -1.3-1.864zm1.582 2.269a7.331 7.331 0 0 0 2.334 1.511l.493-1.2a6.032 6.032 0 0 1 -1.924-1.244zm2.334 1.511a7.429 7.429 0 0 0 2.846.55v-1.3a6.129 6.129 0 0 1 -2.352-.452zm2.971 6.482a10.989 10.989 0 0 1 -6.809-2.31l-.782 1.036a12.288 12.288 0 0 0 7.594 2.574zm-6.677-1.409.595-.814-1.05-.767-.595.814zm-.323-.68a11.319 11.319 0 0 0 7 2.418v-1.3a10.021 10.021 0 0 1 -6.214-2.153zm7 2.418a8.665 8.665 0 0 0 2.944-.476l-.439-1.224a7.371 7.371 0 0 1 -2.5.4zm2.929-.472a6.114 6.114 0 0 0 2.343-1.4l-.9-.936a4.817 4.817 0 0 1 -1.852 1.1zm2.335-1.393a5.958 5.958 0 0 0 1.513-2.314l-1.217-.457a4.662 4.662 0 0 1 -1.18 1.818zm1.507-2.3a8.449 8.449 0 0 0 .548-3.153h-1.3a7.16 7.16 0 0 1 -.454 2.67zm.548-3.153v-2.85h-1.3v2.849zm-1.231-3.14a7.32 7.32 0 0 1 -2.479 2.79l.734 1.073a8.617 8.617 0 0 0 2.907-3.283zm-2.472 2.787a6.738 6.738 0 0 1 -3.835 1.081v1.3a8.034 8.034 0 0 0 4.556-1.3zm-3.835 1.081a7.2 7.2 0 0 1 -2.7-.517l-.483 1.207a8.5 8.5 0 0 0 3.185.61zm-2.7-.515a7.237 7.237 0 0 1 -2.243-1.437l-.891.947a8.539 8.539 0 0 0 2.642 1.694zm-2.243-1.437a6.935 6.935 0 0 1 -1.547-2.149l-1.179.548a8.237 8.237 0 0 0 1.835 2.548zm-1.545-2.144a6.454 6.454 0 0 1 -.568-2.705h-1.3a7.752 7.752 0 0 0 .684 3.238zm-.568-2.705v-.062h-1.3v.063zm0-.063a6.454 6.454 0 0 1 .568-2.705l-1.184-.54a7.752 7.752 0 0 0 -.684 3.243zm.568-2.705a6.833 6.833 0 0 1 1.545-2.175l-.891-.947a8.133 8.133 0 0 0 -1.838 2.582zm1.545-2.175a7.237 7.237 0 0 1 2.243-1.437l-.492-1.2a8.539 8.539 0 0 0 -2.64 1.688zm2.238-1.435a7.2 7.2 0 0 1 2.7-.517v-1.3a8.5 8.5 0 0 0 -3.185.61zm2.7-.517a7.3 7.3 0 0 1 2.071.287l.367-1.247a8.6 8.6 0 0 0 -2.438-.34zm2.071.287a6.812 6.812 0 0 1 1.773.8l.7-1.094a8.107 8.107 0 0 0 -2.109-.953zm1.773.8a6.125 6.125 0 0 1 1.389 1.214l1-.836a7.424 7.424 0 0 0 -1.68-1.475zm1.407 1.239a7.328 7.328 0 0 1 1.065 1.5l1.146-.614a8.628 8.628 0 0 0 -1.252-1.76zm2.288 1.189v-3.792h-1.3v3.789zm-.65-3.139h1.033v-1.3h-1.03zm.383-.65v13.366h1.3v-13.369zm0 13.369a7.742 7.742 0 0 1 -.487 2.861l1.209.478a9.034 9.034 0 0 0 .578-3.339zm-.489 2.866a6.025 6.025 0 0 1 -1.35 2.119l.919.919a7.323 7.323 0 0 0 1.65-2.574zm-1.35 2.119a5.978 5.978 0 0 1 -2.235 1.382l.442 1.222a7.275 7.275 0 0 0 2.712-1.686zm-2.239 1.384a8.505 8.505 0 0 1 -2.968.492v1.3a9.8 9.8 0 0 0 3.419-.573zm23.152-12.383v.65a.65.65 0 0 0 .649-.682zm-.5-2.5-.617.206v.014zm-1.19-2.16-.514.4.015.018zm-1.91-1.534-.3.575.019.01zm-5.1-.063.264.594h.007zm-1.972 1.409-.476-.443zm-1.346 2.16.6.241zm-.564 2.693-.649-.028a.65.65 0 0 0 .649.678zm3.695 8.235-.253.6.016.007zm-2.474-1.66-.466.453.007.007zm-1.691-2.63-.6.246zm-.063-6.7.609.228zm1.565-2.6-.479-.439zm2.411-1.753.269.592zm6.137.094-.307.573.011.006zm2.254 1.847-.512.4.007.008zm1.378 2.661-.624.182v.016zm.47 3.413v.65a.65.65 0 0 0 .65-.65zm-13.683 0v-.65a.65.65 0 0 0 -.649.676zm.626 2.912-.6.256.008.017zm1.5 2.192-.46.46.008.008zm2.1 1.378-.252.6.019.008zm5.824-.376.329.561zm2.38-2.066.4-.51a.65.65 0 0 0 -.919.113zm.751.595.513.4a.65.65 0 0 0 -.11-.909zm-2.693 2.348.321.565h.008zm2.747-7.922a9.268 9.268 0 0 0 -.538-2.693l-1.224.439a7.969 7.969 0 0 1 .464 2.317zm-.534-2.679a7.246 7.246 0 0 0 -1.307-2.371l-1 .832a5.946 5.946 0 0 1 1.073 1.95zm-1.292-2.353a5.966 5.966 0 0 0 -2.14-1.721l-.569 1.169a4.664 4.664 0 0 1 1.68 1.348zm-2.121-1.711a6.133 6.133 0 0 0 -2.9-.67v1.3a4.839 4.839 0 0 1 2.3.52zm-2.9-.67a6.577 6.577 0 0 0 -2.776.592l.543 1.181a5.277 5.277 0 0 1 2.233-.473zm-2.769.588a6.645 6.645 0 0 0 -2.184 1.56l.951.886a5.348 5.348 0 0 1 1.761-1.258zm-2.184 1.56a7.531 7.531 0 0 0 -1.474 2.362l1.207.483a6.236 6.236 0 0 1 1.219-1.959zm-1.474 2.362a8.8 8.8 0 0 0 -.609 2.906l1.3.056a7.5 7.5 0 0 1 .518-2.479zm.04 3.584h12.582v-1.302h-12.586zm6.727 7.498a7.611 7.611 0 0 1 -2.8-.519l-.474 1.211a8.91 8.91 0 0 0 3.274.608zm-2.784-.512a7.046 7.046 0 0 1 -2.267-1.52l-.919.919a8.344 8.344 0 0 0 2.68 1.8zm-2.26-1.514a7.491 7.491 0 0 1 -1.555-2.423l-1.2.491a8.789 8.789 0 0 0 1.826 2.837zm-1.555-2.423a8.3 8.3 0 0 1 -.578-3.167h-1.3a9.6 9.6 0 0 0 .674 3.658zm-.578-3.167v-.063h-1.3v.063zm0-.063a8.461 8.461 0 0 1 .522-3l-1.217-.456a9.76 9.76 0 0 0 -.6 3.453zm.522-3a7.281 7.281 0 0 1 1.437-2.388l-.959-.877a8.58 8.58 0 0 0 -1.694 2.809zm1.436-2.388a6.737 6.737 0 0 1 2.2-1.6l-.539-1.185a8.039 8.039 0 0 0 -2.621 1.906zm2.2-1.6a6.529 6.529 0 0 1 2.737-.568v-1.3a7.827 7.827 0 0 0 -3.275.684zm2.737-.568a5.894 5.894 0 0 1 2.824.643l.613-1.146a7.187 7.187 0 0 0 -3.437-.8zm2.835.649a6.054 6.054 0 0 1 2.039 1.67l1.023-.8a7.355 7.355 0 0 0 -2.47-2.025zm2.045 1.678a6.867 6.867 0 0 1 1.258 2.434l1.248-.364a8.168 8.168 0 0 0 -1.5-2.889zm1.263 2.45a9.381 9.381 0 0 1 .439 2.871h1.3a10.683 10.683 0 0 0 -.5-3.266zm.439 2.871v.344h1.3v-.344zm.65-.306h-13.681v1.3h13.682zm-14.332.676a8.789 8.789 0 0 0 .678 3.142l1.195-.512a7.5 7.5 0 0 1 -.574-2.681zm.686 3.16a8.2 8.2 0 0 0 1.638 2.376l.919-.919a6.906 6.906 0 0 1 -1.373-2.005zm1.638 2.384a7.429 7.429 0 0 0 2.3 1.509l.5-1.2a6.123 6.123 0 0 1 -1.9-1.246zm2.316 1.517a7.655 7.655 0 0 0 2.77.513v-1.3a6.355 6.355 0 0 1 -2.3-.426zm2.77.513a7.021 7.021 0 0 0 3.617-.935l-.655-1.122a5.723 5.723 0 0 1 -2.959.756zm3.617-.935a8.833 8.833 0 0 0 2.566-2.231l-1.03-.793a7.538 7.538 0 0 1 -2.193 1.9zm1.65-2.122.751.595.807-1.019-.751-.595zm.647-.31a8.776 8.776 0 0 1 -2.509 2.187l.659 1.12a10.075 10.075 0 0 0 2.876-2.509zm-2.5 2.182a6.827 6.827 0 0 1 -3.442.828v1.3a8.121 8.121 0 0 0 4.078-.993zm8.081-14.682v-.65a.65.65 0 0 0 -.65.65zm1 0h.65a.65.65 0 0 0 -.65-.65zm0 3.757h-.65a.65.65 0 0 0 1.251.246zm.782-1.409.534.371.007-.011zm1.253-1.346.4.51.013-.01zm1.753-1 .228.609zm5.041.125-.252.6zm2.035 1.44-.491.426.015.017zm1.284 2.192-.615.21zm.438 12.023v.65a.65.65 0 0 0 .65-.65zm-1 0h-.65a.65.65 0 0 0 .65.65zm-1.44-13.526-.495.422zm-6.544-1.19.263.595h.007zm-1.878 1.315-.469-.451-.008.009zm-1.722 13.4v.65a.65.65 0 0 0 .65-.65zm-1 0h-.65a.65.65 0 0 0 .65.65zm0-15.13h1v-1.3h-1zm.352-.65v3.757h1.3v-3.758zm1.251 4a6.7 6.7 0 0 1 .715-1.284l-1.067-.742a8.009 8.009 0 0 0 -.853 1.535zm.722-1.294a5.213 5.213 0 0 1 1.115-1.2l-.807-1.019a6.489 6.489 0 0 0 -1.389 1.5zm1.128-1.208a5.359 5.359 0 0 1 1.564-.889l-.456-1.217a6.651 6.651 0 0 0 -1.941 1.111zm1.564-.889a5.837 5.837 0 0 1 2.058-.334v-1.3a7.126 7.126 0 0 0 -2.514.417zm2.058-.334a6.412 6.412 0 0 1 2.5.45l.5-1.2a7.7 7.7 0 0 0 -3.007-.552zm2.508.452a4.666 4.666 0 0 1 1.791 1.265l.982-.851a5.96 5.96 0 0 0 -2.279-1.616zm1.806 1.282a5.38 5.38 0 0 1 1.145 1.959l1.23-.42a6.682 6.682 0 0 0 -1.423-2.424zm1.146 1.964a7.736 7.736 0 0 1 .4 2.572h1.3a9.035 9.035 0 0 0 -.475-3zm.4 2.572v9.234h1.3v-9.236zm.65 8.586h-1v1.3h1zm-.352.65v-9.082h-1.3v9.08zm0-9.08a7.263 7.263 0 0 0 -1.6-4.868l-.99.843a5.975 5.975 0 0 1 1.285 4.025zm-1.6-4.868a5.851 5.851 0 0 0 -4.691-1.919v1.3a4.561 4.561 0 0 1 3.7 1.462zm-4.685-1.924a6.23 6.23 0 0 0 -2.618.56l.54 1.182a4.934 4.934 0 0 1 2.078-.442zm-2.61.556a6.532 6.532 0 0 0 -2.085 1.459l.937.9a5.223 5.223 0 0 1 1.673-1.171zm-2.093 1.468a7.162 7.162 0 0 0 -1.378 2.2l1.205.488a5.871 5.871 0 0 1 1.127-1.806zm-1.378 2.2a7.251 7.251 0 0 0 -.517 2.749h1.3a5.941 5.941 0 0 1 .422-2.261zm-.517 2.749v8.897h1.3v-8.892zm.65 8.242h-1v1.3h1zm-.352.65v-15.775h-1.3v15.78zm31.046-8.422v.65a.651.651 0 0 0 .65-.682zm-.5-2.5-.616.206a.075.075 0 0 0 0 .014zm-1.189-2.16-.514.4.014.018zm-1.91-1.534-.3.575.019.01zm-5.1-.063.264.594h.008zm-1.978 1.409-.476-.443zm-1.347 2.16.6.241zm-.563 2.693-.65-.028a.65.65 0 0 0 .65.678zm3.694 8.235-.252.6.016.007zm-2.473-1.66-.466.453.006.007zm-1.691-2.63-.6.246zm-.062-6.7.608.228zm1.565-2.6-.479-.439zm2.411-1.753.269.592zm6.137.094-.307.573.011.006zm2.254 1.847-.512.4.007.008zm1.378 2.661-.624.182v.016zm.469 3.413v.65a.65.65 0 0 0 .65-.65zm-13.682 0v-.65a.65.65 0 0 0 -.65.676zm.626 2.912-.6.256.007.017zm1.5 2.192-.46.46.008.008zm2.1 1.378-.253.6.019.008zm5.823-.376.329.561zm2.38-2.066.4-.51a.649.649 0 0 0 -.918.113zm.751.595.513.4a.65.65 0 0 0 -.109-.909zm-2.692 2.348.321.565h.008zm2.747-7.922a9.263 9.263 0 0 0 -.539-2.693l-1.223.439a7.972 7.972 0 0 1 .463 2.317zm-.534-2.679a7.261 7.261 0 0 0 -1.307-2.371l-1 .832a5.933 5.933 0 0 1 1.073 1.95zm-1.291-2.352a5.971 5.971 0 0 0 -2.14-1.721l-.569 1.169a4.669 4.669 0 0 1 1.681 1.348zm-2.121-1.711a6.132 6.132 0 0 0 -2.9-.67v1.3a4.835 4.835 0 0 1 2.295.52zm-2.9-.67a6.575 6.575 0 0 0 -2.776.592l.543 1.181a5.274 5.274 0 0 1 2.233-.473zm-2.769.588a6.645 6.645 0 0 0 -2.184 1.56l.951.886a5.355 5.355 0 0 1 1.761-1.258zm-2.184 1.56a7.527 7.527 0 0 0 -1.474 2.362l1.207.483a6.244 6.244 0 0 1 1.218-1.959zm-1.474 2.362a8.806 8.806 0 0 0 -.61 2.906l1.3.056a7.505 7.505 0 0 1 .518-2.479zm.04 3.584h12.586v-1.298h-12.587zm6.731 7.5a7.609 7.609 0 0 1 -2.8-.519l-.473 1.211a8.908 8.908 0 0 0 3.273.608zm-2.784-.512a7.057 7.057 0 0 1 -2.267-1.52l-.919.919a8.342 8.342 0 0 0 2.681 1.8zm-2.26-1.514a7.5 7.5 0 0 1 -1.555-2.423l-1.2.491a8.8 8.8 0 0 0 1.827 2.837zm-1.555-2.423a8.3 8.3 0 0 1 -.578-3.167h-1.3a9.606 9.606 0 0 0 .674 3.658zm-.578-3.167v-.063h-1.3v.063zm0-.063a8.47 8.47 0 0 1 .522-3l-1.217-.456a9.76 9.76 0 0 0 -.605 3.453zm.522-3a7.274 7.274 0 0 1 1.437-2.388l-.96-.877a8.576 8.576 0 0 0 -1.694 2.809zm1.436-2.388a6.746 6.746 0 0 1 2.2-1.6l-.538-1.184a8.034 8.034 0 0 0 -2.621 1.906zm2.2-1.6a6.53 6.53 0 0 1 2.737-.568v-1.3a7.828 7.828 0 0 0 -3.275.684zm2.737-.568a5.89 5.89 0 0 1 2.824.643l.613-1.146a7.185 7.185 0 0 0 -3.437-.8zm2.835.649a6.047 6.047 0 0 1 2.038 1.67l1.024-.8a7.365 7.365 0 0 0 -2.47-2.025zm2.045 1.678a6.883 6.883 0 0 1 1.259 2.434l1.248-.364a8.187 8.187 0 0 0 -1.5-2.889zm1.263 2.45a9.381 9.381 0 0 1 .439 2.871h1.3a10.685 10.685 0 0 0 -.5-3.266zm.439 2.871v.344h1.3v-.344zm.65-.306h-13.682v1.3h13.682zm-14.332.676a8.79 8.79 0 0 0 .679 3.142l1.194-.512a7.492 7.492 0 0 1 -.574-2.681zm.686 3.16a8.228 8.228 0 0 0 1.633 2.378l.919-.919a6.893 6.893 0 0 1 -1.372-2.005zm1.641 2.386a7.441 7.441 0 0 0 2.3 1.509l.5-1.2a6.135 6.135 0 0 1 -1.9-1.246zm2.316 1.517a7.658 7.658 0 0 0 2.77.513v-1.3a6.353 6.353 0 0 1 -2.3-.426zm2.77.513a7.02 7.02 0 0 0 3.616-.935l-.658-1.121a5.722 5.722 0 0 1 -2.958.756zm3.616-.935a8.832 8.832 0 0 0 2.566-2.231l-1.03-.793a7.541 7.541 0 0 1 -2.194 1.9zm1.647-2.117.752.595.807-1.019-.752-.595zm.642-.314a8.766 8.766 0 0 1 -2.509 2.187l.659 1.12a10.07 10.07 0 0 0 2.876-2.509zm-2.5 2.182a6.824 6.824 0 0 1 -3.436.823v1.3a8.124 8.124 0 0 0 4.077-.996zm8.087-14.683v-.65a.65.65 0 0 0 -.65.65zm1 0h.65a.65.65 0 0 0 -.65-.65zm0 4.822h-.65a.65.65 0 0 0 1.264.211zm.97-1.941-.541-.361zm3.382-2.787.232.607h.009zm2.348-.407h.65a.65.65 0 0 0 -.634-.65zm0 1.033v.65a.65.65 0 0 0 .65-.65zm-2.818.658.3.575zm-2.066 1.691-.5-.413zm-1.347 2.411-.611-.222v.012zm-.469 10.3v.65a.65.65 0 0 0 .65-.65zm-1 0h-.65a.65.65 0 0 0 .65.65zm0-15.13h1v-1.3h-1zm.352-.65v4.822h1.3v-4.822zm1.264 5.033a7.843 7.843 0 0 1 .9-1.792l-1.082-.721a9.111 9.111 0 0 0 -1.044 2.09zm.9-1.792a7.347 7.347 0 0 1 1.352-1.525l-.843-.99a8.662 8.662 0 0 0 -1.591 1.794zm1.352-1.525a5.85 5.85 0 0 1 1.721-1.015l-.464-1.214a7.161 7.161 0 0 0 -2.1 1.239zm1.73-1.019a5.213 5.213 0 0 1 2.091-.361l.032-1.3a6.513 6.513 0 0 0 -2.606.453zm1.456-1.01v1.033h1.3v-1.033zm.65.383h-.157v1.3h.157zm-.157 0a6.173 6.173 0 0 0 -2.969.735l.616 1.145a4.878 4.878 0 0 1 2.353-.58zm-2.964.732a7.355 7.355 0 0 0 -2.265 1.853l1 .826a6.047 6.047 0 0 1 1.868-1.529zm-2.266 1.854a8.833 8.833 0 0 0 -1.455 2.6l1.222.444a7.553 7.553 0 0 1 1.239-2.221zm-1.463 2.613a9.322 9.322 0 0 0 -.5 3.028h1.3a8.008 8.008 0 0 1 .435-2.608zm-.5 3.028v7.483h1.3v-7.483zm.65 6.833h-1v1.3h1zm-.352.65v-15.78h-1.3v15.78zm18.021-.971.21.615h.009zm3.475-2.818.574.306v-.008zm.5-3.976h.65a.65.65 0 0 0 -.449-.618zm-2.536-.626-.116.64zm-5.573.031.149.633h.013zm-1.847.783.36.541h.005zm-1.19 1.284.561.328.006-.01zm-.032 3.507-.571.31.006.01zm1.1 1.221-.382.526zm1.566.752-.179.625h.006zm-.376.877.179-.625h-.013zm-1.91-.877-.387.522.013.009zm-1.346-1.534-.569.314zm.031-4.321.566.32v-.008zm1.44-1.6.369.535zm2.223-.971.154.632h.015zm5.855-.094-.113.64zm2.568.626-.2.618a.65.65 0 0 0 .851-.618zm-1.5-5.072-.433.485h.005zm-6.857-.939.177.626h.01zm-2.411.939-.6.256a.65.65 0 0 0 .888.325zm-.376-.877-.279-.587a.65.65 0 0 0 -.318.843zm2.631-1-.175-.626zm7.946 1.347.469-.45-.009-.009zm1.159 1.91-.612.221v.006zm.407 12.4v.65a.65.65 0 0 0 .65-.65zm-1 0h-.65a.65.65 0 0 0 .65.65zm0-3.288h.65a.65.65 0 0 0 -1.237-.279zm-.877 1.315.483.435.011-.012zm-1.409 1.159-.346-.55-.009.006zm-1.91.845-.178-.625h-.017zm-2.379.055a8.732 8.732 0 0 0 2.84-.442l-.421-1.23a7.43 7.43 0 0 1 -2.419.372zm2.849-.445a7.628 7.628 0 0 0 2.291-1.268l-.825-1a6.342 6.342 0 0 1 -1.9 1.049zm2.291-1.268a6.127 6.127 0 0 0 1.539-1.856l-1.147-.612a4.819 4.819 0 0 1 -1.217 1.463zm1.543-1.864a5.032 5.032 0 0 0 .573-2.333h-1.3a3.737 3.737 0 0 1 -.428 1.737zm.573-2.333v-1.942h-1.3v1.941zm-.449-2.56a20.261 20.261 0 0 0 -2.621-.647l-.232 1.279a18.944 18.944 0 0 1 2.452.6zm-2.621-.647a18.465 18.465 0 0 0 -3.278-.261v1.3a17.176 17.176 0 0 1 3.046.24zm-3.278-.261a10.321 10.321 0 0 0 -2.573.3l.324 1.259a9.023 9.023 0 0 1 2.249-.261zm-2.56.3a6.138 6.138 0 0 0 -2.064.878l.725 1.073a4.845 4.845 0 0 1 1.631-.687zm-2.059.875a4.33 4.33 0 0 0 -1.4 1.507l1.134.635a3.043 3.043 0 0 1 .986-1.062zm-1.391 1.5a4.01 4.01 0 0 0 -.527 2.05h1.3a2.713 2.713 0 0 1 .35-1.395zm-.527 2.05v.063h1.3v-.067zm0 .063a4.2 4.2 0 0 0 .486 2.032l1.143-.619a2.913 2.913 0 0 1 -.329-1.412zm.492 2.042a4.469 4.469 0 0 0 1.279 1.427l.765-1.051a3.177 3.177 0 0 1 -.913-1.015zm1.279 1.427a5.6 5.6 0 0 0 1.769.851l.357-1.25a4.293 4.293 0 0 1 -1.361-.652zm1.775.852a7.8 7.8 0 0 0 2.083.274v-1.3a6.5 6.5 0 0 1 -1.737-.227zm2.02-.087a7.4 7.4 0 0 1 -2.044-.288l-.357 1.25a8.7 8.7 0 0 0 2.4.338zm-2.057-.291a5.276 5.276 0 0 1 -1.7-.78l-.748 1.063a6.576 6.576 0 0 0 2.118.973zm-1.689-.771a4.083 4.083 0 0 1 -1.164-1.326l-1.138.628a5.385 5.385 0 0 0 1.528 1.742zm-1.164-1.326a3.62 3.62 0 0 1 -.42-1.784h-1.3a4.913 4.913 0 0 0 .582 2.412zm-.42-1.784v-.063h-1.3v.063zm0-.063a3.653 3.653 0 0 1 .448-1.84l-1.131-.641a4.956 4.956 0 0 0 -.617 2.481zm.452-1.848a3.951 3.951 0 0 1 1.239-1.374l-.738-1.07a5.256 5.256 0 0 0 -1.641 1.819zm1.243-1.377a5.888 5.888 0 0 1 2-.872l-.308-1.263a7.179 7.179 0 0 0 -2.441 1.07zm2.019-.875a10.078 10.078 0 0 1 2.618-.322v-1.3a11.377 11.377 0 0 0 -2.955.367zm2.618-.322a16.927 16.927 0 0 1 2.955.24l.227-1.28a18.2 18.2 0 0 0 -3.182-.261zm2.955.24a18.6 18.6 0 0 1 2.48.6l.4-1.237a19.909 19.909 0 0 0 -2.654-.648zm3.331-.014v-1.07h-1.3v1.064zm0-1.064a5.684 5.684 0 0 0 -1.725-4.5l-.856.978a4.41 4.41 0 0 1 1.281 3.519zm-1.72-4.492a6.629 6.629 0 0 0 -4.566-1.48v1.3a5.354 5.354 0 0 1 3.7 1.15zm-4.566-1.48a10.1 10.1 0 0 0 -2.911.4l.374 1.245a8.79 8.79 0 0 1 2.537-.348zm-2.9.4a14.337 14.337 0 0 0 -2.525.984l.581 1.163a13.042 13.042 0 0 1 2.3-.9zm-1.637 1.309-.376-.877-1.195.512.376.877zm-.694-.034a16.28 16.28 0 0 1 2.529-.964l-.357-1.25a17.567 17.567 0 0 0 -2.731 1.04zm2.525-.963a10.283 10.283 0 0 1 2.769-.352v-1.3a11.57 11.57 0 0 0 -3.118.4zm2.769-.352a6.15 6.15 0 0 1 4.55 1.532l.919-.919a7.426 7.426 0 0 0 -5.469-1.912zm4.54 1.522a4.666 4.666 0 0 1 1.016 1.681l1.223-.441a5.982 5.982 0 0 0 -1.3-2.139zm1.018 1.686a6.708 6.708 0 0 1 .367 2.341h1.3a8.012 8.012 0 0 0 -.448-2.794zm.367 2.341v9.827h1.3v-9.831zm.65 9.181h-1v1.3h1zm-.352.65v-3.292h-1.3v3.288zm-1.242-3.574a5.37 5.37 0 0 1 -.783 1.172l.987.846a6.677 6.677 0 0 0 .97-1.459zm-.773 1.16a5.989 5.989 0 0 1 -1.272 1.043l.693 1.1a7.267 7.267 0 0 0 1.545-1.274zm-1.281 1.049a6.328 6.328 0 0 1 -1.733.764l.357 1.25a7.61 7.61 0 0 0 2.087-.923zm-1.75.769a7.465 7.465 0 0 1 -2.247.315v1.3a8.765 8.765 0 0 0 2.637-.374zm12.886-.194-.453.466.014.013zm-1.127-14.084h.65a.65.65 0 0 0 -.65-.65zm-2.411 0h-.65a.65.65 0 0 0 .65.65zm0-.908v-.65a.65.65 0 0 0 -.65.65zm2.411 0v.65a.65.65 0 0 0 .65-.65zm0-5.291v-.65a.65.65 0 0 0 -.65.65zm1 0h.65a.65.65 0 0 0 -.65-.65zm0 5.291h-.65a.65.65 0 0 0 .65.65zm5.73 0h.65a.65.65 0 0 0 -.65-.65zm0 .908v.65a.65.65 0 0 0 .65-.65zm-5.73 0v-.65a.65.65 0 0 0 -.65.65zm.846 13.369-.468.451.016.017zm4.821.282h.65a.649.649 0 0 0 -.922-.59zm0 .971.284.585a.65.65 0 0 0 .366-.585zm-2.473-.118a3.714 3.714 0 0 1 -2.629-.893l-.879.957a5 5 0 0 0 3.508 1.236zm-2.616-.881a3.71 3.71 0 0 1 -.93-2.79h-1.3a4.985 4.985 0 0 0 1.324 3.722zm-.93-2.79v-10.833h-1.3v10.831zm-.65-11.483h-2.411v1.3h2.411zm-1.761.65v-.91h-1.3v.91zm-.65-.258h2.411v-1.3h-2.411zm3.061-.65v-5.292h-1.3v5.29zm-.65-4.641h1v-1.3h-1zm.352-.65v5.289h1.3v-5.29zm.65 5.941h5.73v-1.3h-5.73zm5.08-.65v.908h1.3v-.91zm.65.258h-5.73v1.3h5.73zm-6.38.65v10.737h1.3v-10.737zm0 10.739a4.287 4.287 0 0 0 1.028 3.081l.935-.9a3.025 3.025 0 0 1 -.663-2.179zm1.044 3.1a4.018 4.018 0 0 0 2.894 1.028v-1.3a2.73 2.73 0 0 1 -1.991-.663zm2.894 1.028a6.308 6.308 0 0 0 2.652-.623l-.545-1.18a5.01 5.01 0 0 1 -2.107.5zm1.729-1.214v.971h1.3v-.971zm.366.386a4.939 4.939 0 0 1 -2.189.467v1.3a6.234 6.234 0 0 0 2.757-.6zm4.974-14.945v-.65a.65.65 0 0 0 -.65.65zm1.033 0h.65a.65.65 0 0 0 -.65-.65zm0 15.78v.65a.65.65 0 0 0 .65-.65zm-1.033 0h-.65a.65.65 0 0 0 .65.65zm-.156-22.042v-.65a.65.65 0 0 0 -.65.65zm1.346 0h.65a.65.65 0 0 0 -.65-.65zm0 1.91v.65a.65.65 0 0 0 .65-.65zm-1.346 0h-.65a.65.65 0 0 0 .65.65zm.156 5h1.033v-1.3h-1.033zm.383-.65v15.778h1.3v-15.78zm.65 15.13h-1.033v1.3h1.033zm-.383.65v-15.782h-1.3v15.78zm-.806-21.392h1.346v-1.3h-1.346zm.7-.65v1.91h1.3v-1.91zm.65 1.26h-1.346v1.3h1.346zm-.7.65v-1.91h-1.3v1.91zm16.49 19.005.261.6h.007zm2.254-1.6-.474-.444zm1.441-2.317-.6-.244-.005.013zm0-5.7-.6.244zm-1.5-2.317-.474.445.007.008zm-2.255-1.565-.267.592.011.005zm-5.729 0 .261.6h.007zm-2.223 1.565-.475-.445-.007.008zm-1.441 2.317-.6-.244-.005.013zm.032 5.7.6-.244zm1.471 2.317-.474.445.008.008zm2.255 1.6-.274.59.018.008zm-3.1-.939-.475.444.007.007zm-1.659-2.6-.6.239zm1.659-9.017-.466-.453-.007.007zm2.6-1.785.26.6h.006zm6.637-.031-.265.593zm2.568 1.785-.48.442.007.007zm1.691 2.63-.6.239zm0 6.356-.6-.239zm-1.691 2.63-.466-.453-.007.007zm-2.568 1.816.261.6h.01zm-3.287.368a7.658 7.658 0 0 0 3.11-.618l-.522-1.19a6.369 6.369 0 0 1 -2.588.509zm3.117-.621a7.676 7.676 0 0 0 2.458-1.746l-.949-.889a6.365 6.365 0 0 1 -2.051 1.449zm2.458-1.746a7.641 7.641 0 0 0 1.573-2.53l-1.214-.461a6.328 6.328 0 0 1 -1.307 2.1zm1.568-2.518a8.089 8.089 0 0 0 .58-3.062h-1.3a6.782 6.782 0 0 1 -.485 2.574zm.58-3.062v-.063h-1.3v.063zm0-.063a8.089 8.089 0 0 0 -.58-3.062l-1.205.488a6.782 6.782 0 0 1 .485 2.574zm-.58-3.062a7.8 7.8 0 0 0 -1.638-2.525l-.934.9a6.5 6.5 0 0 1 1.367 2.109zm-1.631-2.518a7.281 7.281 0 0 0 -2.472-1.718l-.513 1.195a5.988 5.988 0 0 1 2.037 1.413zm-2.461-1.713a7.478 7.478 0 0 0 -3.117-.653v1.3a6.184 6.184 0 0 1 2.582.537zm-3.116-.655a7.555 7.555 0 0 0 -3.148.653l.536 1.185a6.253 6.253 0 0 1 2.612-.537zm-3.142.65a7.353 7.353 0 0 0 -2.435 1.716l.948.889a6.062 6.062 0 0 1 2.01-1.415zm-2.443 1.724a8.391 8.391 0 0 0 -1.561 2.509l1.205.488a7.11 7.11 0 0 1 1.319-2.124zm-1.566 2.526a8.5 8.5 0 0 0 -.543 3.049h1.3a7.2 7.2 0 0 1 .458-2.586zm-.543 3.049v.063h1.3v-.063zm0 .063a8.089 8.089 0 0 0 .579 3.062l1.205-.488a6.8 6.8 0 0 1 -.484-2.574zm.579 3.062a8.077 8.077 0 0 0 1.6 2.518l.949-.889a6.777 6.777 0 0 1 -1.344-2.116zm1.608 2.526a8.144 8.144 0 0 0 2.447 1.734l.547-1.18a6.86 6.86 0 0 1 -2.061-1.459zm2.465 1.742a7.8 7.8 0 0 0 3.105.616v-1.3a6.506 6.506 0 0 1 -2.593-.511zm3.074.255a7.546 7.546 0 0 1 -3.059-.6l-.521 1.191a8.843 8.843 0 0 0 3.58.712zm-3.059-.6a7.47 7.47 0 0 1 -2.393-1.642l-.932.906a8.78 8.78 0 0 0 2.8 1.927zm-2.386-1.635a7.6 7.6 0 0 1 -1.53-2.4l-1.205.487a8.908 8.908 0 0 0 1.788 2.801zm-1.528-2.392a7.856 7.856 0 0 1 -.549-2.923h-1.3a9.175 9.175 0 0 0 .64 3.4zm-.549-2.923v-.067h-1.3v.063zm0-.063a7.856 7.856 0 0 1 .549-2.923l-1.209-.478a9.174 9.174 0 0 0 -.64 3.4zm.549-2.923a7.5 7.5 0 0 1 1.528-2.423l-.947-.897a8.833 8.833 0 0 0 -1.791 2.837zm1.521-2.416a7.469 7.469 0 0 1 2.393-1.642l-.521-1.191a8.78 8.78 0 0 0 -2.8 1.927zm2.4-1.645a7.438 7.438 0 0 1 3.084-.632v-1.3a8.732 8.732 0 0 0 -3.616.746zm3.084-.632a7.319 7.319 0 0 1 3.022.6l.531-1.187a8.624 8.624 0 0 0 -3.553-.714zm3.027.6a7.108 7.108 0 0 1 2.349 1.632l.945-.893a8.414 8.414 0 0 0 -2.779-1.934zm2.362 1.642a7.256 7.256 0 0 1 1.552 2.416l1.209-.479a8.551 8.551 0 0 0 -1.829-2.844zm1.554 2.421a7.622 7.622 0 0 1 .547 2.887h1.3a8.911 8.911 0 0 0 -.643-3.375zm.547 2.887v.063h1.3v-.063zm0 .063a7.857 7.857 0 0 1 -.549 2.923l1.209.478a9.154 9.154 0 0 0 .641-3.4zm-.549 2.923a7.255 7.255 0 0 1 -1.552 2.416l.932.906a8.55 8.55 0 0 0 1.829-2.844zm-1.565 2.422a7.507 7.507 0 0 1 -2.36 1.674l.541 1.182a8.8 8.8 0 0 0 2.769-1.961zm-2.355 1.667a7.541 7.541 0 0 1 -3.058.6v1.3a8.839 8.839 0 0 0 3.579-.712zm9.8-14.9v-.65a.65.65 0 0 0 -.65.65zm1 0h.65a.65.65 0 0 0 -.65-.65zm0 3.757h-.65a.65.65 0 0 0 1.251.246zm.783-1.409.533.371.007-.011zm1.252-1.346.4.51.013-.01zm1.753-1 .229.609zm5.041.125-.252.6h.006zm2.035 1.44-.491.426.016.017zm1.284 2.192-.615.21zm.438 12.023v.65a.65.65 0 0 0 .65-.65zm-1 0h-.65a.65.65 0 0 0 .65.65zm-1.431-13.531-.495.422zm-6.543-1.19.262.595h.008zm-1.879 1.315-.468-.451-.009.009zm-1.722 13.4v.65a.65.65 0 0 0 .65-.65zm-1 0h-.65a.65.65 0 0 0 .65.65zm0-15.13h1v-1.3h-1zm.352-.65v3.757h1.3v-3.756zm1.251 4a6.758 6.758 0 0 1 .715-1.284l-1.067-.742a8.063 8.063 0 0 0 -.855 1.537zm.722-1.294a5.236 5.236 0 0 1 1.115-1.2l-.806-1.019a6.516 6.516 0 0 0 -1.39 1.5zm1.128-1.208a5.364 5.364 0 0 1 1.566-.893l-.457-1.217a6.651 6.651 0 0 0 -1.941 1.111zm1.566-.893a5.831 5.831 0 0 1 2.057-.334v-1.3a7.126 7.126 0 0 0 -2.514.417zm2.057-.334a6.408 6.408 0 0 1 2.5.45l.505-1.2a7.705 7.705 0 0 0 -3.008-.552zm2.509.452a4.67 4.67 0 0 1 1.79 1.265l.983-.851a5.971 5.971 0 0 0 -2.28-1.616zm1.806 1.282a5.378 5.378 0 0 1 1.144 1.959l1.23-.42a6.668 6.668 0 0 0 -1.423-2.424zm1.146 1.964a7.762 7.762 0 0 1 .4 2.572h1.3a9.061 9.061 0 0 0 -.474-3zm.4 2.572v9.24h1.3v-9.236zm.65 8.586h-1v1.3h1zm-.351.65v-9.076h-1.3v9.08zm0-9.08a7.264 7.264 0 0 0 -1.6-4.868l-.99.843a5.975 5.975 0 0 1 1.286 4.025zm-1.6-4.868a5.85 5.85 0 0 0 -4.692-1.918v1.3a4.56 4.56 0 0 1 3.7 1.462zm-4.692-1.918a6.231 6.231 0 0 0 -2.619.56l.541 1.182a4.927 4.927 0 0 1 2.078-.442zm-2.611.556a6.517 6.517 0 0 0 -2.084 1.459l.936.9a5.233 5.233 0 0 1 1.673-1.171zm-2.089 1.472a7.162 7.162 0 0 0 -1.378 2.2l1.205.488a5.871 5.871 0 0 1 1.127-1.806zm-1.378 2.2a7.251 7.251 0 0 0 -.517 2.749h1.3a5.96 5.96 0 0 1 .422-2.261zm-.517 2.749v8.893h1.3v-8.892zm.65 8.242h-1v1.3h1zm-.352.65v-15.779h-1.3v15.78z" fill="#18f0b8" transform="translate(.321 7.117)"/>
        </g>
    </g>
</svg>