<svg width="85" height="124" viewBox="0 0 85 124" fill="none" xmlns="http://www.w3.org/2000/svg">
<rect width="85" height="124" fill="#007DBC"/>
<path fill-rule="evenodd" clip-rule="evenodd" d="M10.7163 102.964H11.3344C11.9115 102.964 12.344 102.85 12.6308 102.621C12.9175 102.393 13.0609 102.062 13.0609 101.625C13.0609 101.185 12.9404 100.86 12.6995 100.65C12.4597 100.439 12.0826 100.334 11.5706 100.334H10.7163V102.964ZM14.9573 101.558C14.9573 102.511 14.6597 103.24 14.0633 103.745C13.4681 104.25 12.6212 104.503 11.5212 104.503H10.7163V107.653H8.83682V98.7957H11.6669C12.7416 98.7957 13.5585 99.0258 14.1187 99.4884C14.6778 99.9523 14.9573 100.641 14.9573 101.558ZM19.6465 100.752C19.8971 100.752 20.1043 100.77 20.2706 100.806L20.1308 102.539C19.9522 102.496 19.7688 102.475 19.585 102.479C18.9959 102.479 18.5368 102.631 18.2067 102.933C17.8778 103.237 17.7139 103.661 17.7139 104.206V107.653H15.8657V100.879H17.2645L17.538 102.017H17.6284C17.838 101.639 18.1224 101.333 18.479 101.1C18.8368 100.868 19.226 100.752 19.6465 100.752ZM22.4248 104.255C22.4248 104.926 22.5344 105.433 22.7549 105.776C22.9742 106.119 23.3332 106.29 23.8296 106.29C24.3224 106.29 24.6778 106.12 24.8934 105.779C25.1091 105.437 25.2175 104.928 25.2175 104.255C25.2175 103.584 25.1091 103.081 24.891 102.745C24.673 102.411 24.3151 102.243 23.8187 102.243C23.3248 102.243 22.9694 102.41 22.7513 102.743C22.5332 103.075 22.4248 103.58 22.4248 104.255ZM27.1079 104.255C27.1079 105.357 26.8175 106.22 26.2356 106.841C25.6537 107.464 24.844 107.775 23.8055 107.775C23.1561 107.775 22.5826 107.633 22.085 107.347C21.5887 107.063 21.1895 106.635 20.9392 106.121C20.673 105.587 20.5404 104.966 20.5404 104.255C20.5404 103.147 20.8284 102.287 21.4067 101.673C21.9838 101.06 22.7959 100.752 23.8428 100.752C24.4934 100.752 25.0669 100.893 25.5633 101.176C26.0597 101.46 26.4416 101.866 26.7079 102.394C26.9754 102.923 27.1079 103.544 27.1079 104.255ZM29.4621 103.097C29.4621 103.466 29.5453 103.756 29.7139 103.97C29.8814 104.184 30.1368 104.291 30.4802 104.291C30.8272 104.291 31.0814 104.184 31.2428 103.97C31.4043 103.756 31.485 103.466 31.485 103.097C31.485 102.281 31.1501 101.873 30.4802 101.873C29.8007 101.873 29.4621 102.281 29.4621 103.097ZM28.7898 108.611C28.7898 108.866 28.9115 109.066 29.1561 109.211C29.4007 109.356 29.7428 109.429 30.1826 109.429C30.8453 109.429 31.3645 109.339 31.7404 109.156C32.1163 108.975 32.3031 108.727 32.3031 108.411C32.3031 108.156 32.1922 107.981 31.9706 107.885C31.7489 107.787 31.4043 107.739 30.9404 107.739H29.9826C29.6428 107.739 29.3597 107.819 29.132 107.979C29.0255 108.046 28.938 108.139 28.8781 108.25C28.8182 108.361 28.7878 108.485 28.7898 108.611ZM34.0187 100.879V101.819L32.9573 102.091C33.1525 102.394 33.2489 102.733 33.2489 103.11C33.2489 103.837 32.9959 104.403 32.4886 104.809C31.9814 105.215 31.2778 105.419 30.3766 105.419L30.044 105.399L29.7718 105.369C29.5814 105.515 29.4862 105.676 29.4862 105.853C29.4862 106.121 29.8248 106.253 30.5043 106.253H31.6549C32.3983 106.253 32.9645 106.414 33.3549 106.733C33.7453 107.051 33.9392 107.521 33.9392 108.139C33.9392 108.931 33.6103 109.545 32.9489 109.981C32.2886 110.416 31.3404 110.635 30.1043 110.635C29.1585 110.635 28.4368 110.47 27.938 110.141C27.4392 109.811 27.1898 109.35 27.1898 108.756C27.1898 108.347 27.3163 108.006 27.5718 107.733C27.826 107.458 28.1995 107.262 28.6922 107.144C28.4945 107.058 28.3232 106.921 28.1959 106.747C28.0607 106.583 27.9859 106.376 27.9838 106.163C27.9838 105.904 28.0585 105.69 28.2079 105.519C28.3573 105.346 28.573 105.178 28.8561 105.013C28.5034 104.861 28.2074 104.602 28.0103 104.273C27.7964 103.91 27.6883 103.494 27.6983 103.073C27.6983 102.333 27.938 101.763 28.42 101.358C28.9007 100.955 29.5874 100.752 30.4802 100.752C30.6693 100.752 30.8947 100.769 31.1549 100.804C31.4163 100.838 31.5826 100.863 31.6549 100.879H34.0187ZM38.4019 100.752C38.6525 100.752 38.8597 100.77 39.026 100.806L38.8862 102.539C38.708 102.496 38.525 102.476 38.3416 102.479C37.7525 102.479 37.2922 102.631 36.9633 102.933C36.6332 103.237 36.4694 103.661 36.4694 104.206V107.653H34.6212V100.879H36.02L36.2934 102.017H36.3838C36.5947 101.639 36.8778 101.333 37.2356 101.1C37.5814 100.872 37.9872 100.75 38.4019 100.752ZM43.3453 104.515L42.6308 104.539C42.0922 104.556 41.6922 104.652 41.4308 104.829C41.1681 105.008 41.0368 105.279 41.0368 105.641C41.0368 106.163 41.3356 106.425 41.9332 106.425C42.3621 106.425 42.7043 106.3 42.9609 106.053C43.2175 105.808 43.3453 105.48 43.3453 105.073V104.515ZM43.891 107.653L43.5332 106.733H43.485C43.173 107.125 42.8537 107.396 42.5248 107.547C42.1947 107.699 41.7657 107.775 41.2368 107.775C40.5862 107.775 40.0742 107.588 39.7007 107.217C39.3272 106.845 39.1404 106.317 39.1404 105.629C39.1404 104.911 39.391 104.38 39.8947 104.039C40.3971 103.698 41.1561 103.509 42.1694 103.472L43.3453 103.437V103.139C43.3453 102.453 42.9947 102.11 42.291 102.11C41.7501 102.11 41.1139 102.273 40.3826 102.6L39.7706 101.352C40.5716 100.939 41.462 100.729 42.3633 100.74C43.2718 100.74 43.9694 100.938 44.4537 101.334C44.9392 101.729 45.1814 102.332 45.1814 103.139V107.653H43.891ZM52.5621 107.653H50.7139V103.697C50.7139 103.209 50.632 102.841 50.4693 102.597C50.3055 102.353 50.0477 102.231 49.6959 102.231C49.2236 102.231 48.8802 102.404 48.6657 102.752C48.4513 103.099 48.3453 103.672 48.3453 104.467V107.653H46.4971V100.879H47.9091L48.1573 101.746H48.2597C48.4416 101.434 48.7043 101.192 49.0477 101.015C49.391 100.84 49.785 100.752 50.2296 100.752C51.2428 100.752 51.9308 101.084 52.2898 101.746H52.4537C52.6344 101.431 52.9031 101.186 53.2561 101.014C53.6091 100.839 54.0079 100.752 54.4525 100.752C55.22 100.752 55.8019 100.95 56.1947 101.343C56.5886 101.737 56.785 102.369 56.785 103.237V107.653H54.932V103.697C54.932 103.209 54.8501 102.841 54.6862 102.597C54.5224 102.353 54.2657 102.231 53.9139 102.231C53.4609 102.231 53.1224 102.392 52.8983 102.716C52.6742 103.038 52.5621 103.551 52.5621 104.255V107.653ZM64.1669 107.653H62.3188V103.697C62.3188 103.209 62.2368 102.841 62.073 102.597C61.9103 102.353 61.6525 102.231 61.3007 102.231C60.8284 102.231 60.485 102.404 60.2706 102.752C60.0561 103.099 59.9501 103.672 59.9501 104.467V107.653H58.1019V100.879H59.5127L59.7621 101.746H59.8645C60.0465 101.434 60.3091 101.192 60.6525 101.015C60.9959 100.84 61.3898 100.752 61.8344 100.752C62.8477 100.752 63.5344 101.084 63.8947 101.746H64.0573C64.2392 101.431 64.5067 101.186 64.8609 101.014C65.2139 100.839 65.6127 100.752 66.0573 100.752C66.8248 100.752 67.4055 100.95 67.7995 101.343C68.1934 101.737 68.3898 102.369 68.3898 103.237V107.653H66.5368V103.697C66.5368 103.209 66.4549 102.841 66.2898 102.597C66.1272 102.353 65.8694 102.231 65.5175 102.231C65.0657 102.231 64.7272 102.392 64.5031 102.716C64.279 103.038 64.1669 103.551 64.1669 104.255V107.653ZM72.5525 102.067C72.1609 102.067 71.8537 102.191 71.632 102.439C71.4103 102.688 71.2826 103.04 71.2501 103.497H73.8441C73.8356 103.04 73.7163 102.688 73.4862 102.439C73.2561 102.191 72.9453 102.067 72.5525 102.067ZM72.8139 107.775C71.7224 107.775 70.8706 107.474 70.2561 106.873C69.6416 106.27 69.3356 105.419 69.3356 104.315C69.3356 103.18 69.6187 102.303 70.1862 101.682C70.7537 101.062 71.5392 100.752 72.5404 100.752C73.4983 100.752 74.2441 101.025 74.7766 101.569C75.3091 102.116 75.5766 102.869 75.5766 103.829V104.727H71.2079C71.2284 105.252 71.3838 105.662 71.6742 105.957C71.9645 106.252 72.373 106.399 72.8983 106.399C73.3055 106.399 73.6922 106.357 74.0549 106.273C74.4187 106.187 74.7983 106.052 75.1947 105.867V107.296C74.8662 107.46 74.518 107.582 74.1585 107.657C73.7157 107.743 73.265 107.783 72.8139 107.775ZM17.6693 93.9932H15.5308L14.3308 89.3402C14.2862 89.174 14.2103 88.8318 14.1043 88.3125C14.027 87.9673 13.9651 87.6187 13.9187 87.2679C13.8959 87.486 13.8344 87.8366 13.738 88.3185C13.6708 88.6648 13.5957 89.0095 13.5127 89.3523L12.32 93.9932H10.1874L7.92718 85.1354H9.77537L10.9079 89.9692C11.1055 90.8631 11.2489 91.6366 11.338 92.2908C11.3621 92.0607 11.4175 91.7041 11.5043 91.2222C11.5922 90.739 11.673 90.3643 11.7489 90.0981L13.0404 85.1354H14.8151L16.1067 90.0981C16.1633 90.3198 16.2332 90.6595 16.3187 91.1161C16.4043 91.5728 16.4669 91.9643 16.5127 92.2908C16.5537 91.9752 16.6187 91.5824 16.7067 91.1125C16.7959 90.6414 16.8754 90.2619 16.9489 89.9692L18.0754 85.1354H19.9248L17.6693 93.9932ZM21.9898 90.5945C21.9898 91.2655 22.0995 91.7728 22.32 92.1161C22.5392 92.4583 22.8983 92.6306 23.3947 92.6306C23.8886 92.6306 24.244 92.4595 24.4585 92.1185C24.6754 91.7764 24.7838 91.2692 24.7838 90.5945C24.7838 89.9234 24.6742 89.421 24.4561 89.0848C24.238 88.7511 23.8802 88.5824 23.3838 88.5824C22.891 88.5824 22.5356 88.7499 22.3175 89.0824C22.0983 89.4149 21.9898 89.9198 21.9898 90.5945ZM26.6742 90.5945C26.6742 91.6969 26.3826 92.5595 25.8019 93.1812C25.22 93.8041 24.4091 94.1149 23.3718 94.1149C22.7212 94.1149 22.1477 93.9728 21.6501 93.6872C21.1541 93.4025 20.7553 92.9752 20.5055 92.4607C20.238 91.9282 20.1055 91.3053 20.1055 90.5945C20.1055 89.4872 20.3934 88.627 20.9718 88.0125C21.5489 87.3993 22.3621 87.092 23.4079 87.092C24.0585 87.092 24.632 87.233 25.1284 87.5161C25.626 87.7993 26.0067 88.2053 26.2742 88.7342C26.5404 89.2643 26.6742 89.8836 26.6742 90.5945ZM31.7477 87.092C31.9983 87.092 32.2055 87.1101 32.3718 87.1463L32.232 88.8788C32.0534 88.8354 31.87 88.8152 31.6862 88.8186C31.0971 88.8186 30.638 88.9704 30.3091 89.2728C29.979 89.5764 29.8151 90.0005 29.8151 90.5463V93.9932H27.9657V87.2185H29.3669L29.6392 88.3583H29.7296C29.9392 87.9788 30.2236 87.6728 30.5802 87.4402C30.938 87.2077 31.3272 87.092 31.7477 87.092ZM33.3453 93.9932H35.1934V84.5655H33.3453V93.9932ZM39.744 92.6426C40.2163 92.6426 40.5621 92.5053 40.7826 92.2294C41.0031 91.9559 41.1224 91.4884 41.1441 90.8306V90.6306C41.1441 89.9041 41.0308 89.3824 40.8079 89.0667C40.5826 88.7523 40.2175 88.5944 39.7127 88.5944C39.5208 88.5891 39.3308 88.6348 39.1623 88.7268C38.9938 88.8189 38.8528 88.9541 38.7537 89.1186C38.5248 89.4679 38.4103 89.9764 38.4103 90.6426C38.4103 91.3101 38.526 91.8089 38.7549 92.1426C38.9862 92.4764 39.3151 92.6426 39.744 92.6426ZM39.0959 94.1149C38.2995 94.1149 37.6742 93.8053 37.22 93.1872C36.7657 92.5704 36.5392 91.7137 36.5392 90.6185C36.5392 89.5077 36.7693 88.6426 37.232 88.0222C37.6947 87.4029 38.332 87.092 39.144 87.092C39.9959 87.092 40.6465 87.4234 41.0947 88.086H41.1561C41.0687 87.6405 41.0216 87.1881 41.0151 86.7342V84.5655H42.8706V93.9932H41.4525L41.0947 93.1149H41.0151C40.5959 93.7824 39.9561 94.1149 39.0959 94.1149ZM49.4489 93.9932H47.6007V85.1354H52.679V86.674H49.4489V88.9583H52.4561V90.4908H49.4489V93.9932ZM55.491 90.5945C55.491 91.2655 55.6019 91.7728 55.8224 92.1161C56.0416 92.4583 56.4007 92.6306 56.8971 92.6306C57.3898 92.6306 57.7441 92.4595 57.9609 92.1185C58.1766 91.7764 58.2838 91.2692 58.2838 90.5945C58.2838 89.9234 58.1766 89.421 57.9573 89.0848C57.7392 88.7511 57.3826 88.5824 56.885 88.5824C56.3922 88.5824 56.0368 88.7499 55.8188 89.0824C55.6007 89.4149 55.491 89.9198 55.491 90.5945ZM60.1754 90.5945C60.1754 91.6969 59.885 92.5595 59.3031 93.1812C58.7212 93.8041 57.9115 94.1149 56.873 94.1149C56.2236 94.1149 55.6489 93.9728 55.1525 93.6872C54.6559 93.4029 54.2566 92.9755 54.0067 92.4607C53.7404 91.9282 53.6079 91.3053 53.6079 90.5945C53.6079 89.4872 53.8959 88.627 54.473 88.0125C55.0513 87.3993 55.8633 87.092 56.9091 87.092C57.5597 87.092 58.1332 87.233 58.6308 87.5161C59.1272 87.7993 59.5091 88.2053 59.7754 88.7342C60.0416 89.2643 60.1754 89.8836 60.1754 90.5945ZM62.9802 90.5945C62.9802 91.2655 63.0898 91.7728 63.3091 92.1161C63.5296 92.4583 63.8886 92.6306 64.385 92.6306C64.8778 92.6306 65.2332 92.4595 65.4489 92.1185C65.6657 91.7764 65.773 91.2692 65.773 90.5945C65.773 89.9234 65.6633 89.421 65.4465 89.0848C65.2272 88.7511 64.8694 88.5824 64.373 88.5824C63.8802 88.5824 63.5248 88.7499 63.3079 89.0824C63.0886 89.4149 62.9802 89.9198 62.9802 90.5945ZM67.6645 90.5945C67.6645 91.6969 67.373 92.5595 66.791 93.1812C66.2103 93.8041 65.3995 94.1149 64.3621 94.1149C63.7103 94.1149 63.138 93.9728 62.6404 93.6872C62.1441 93.4026 61.7449 92.9752 61.4947 92.4607C61.2284 91.9282 61.0947 91.3053 61.0947 90.5945C61.0947 89.4872 61.3838 88.627 61.9609 88.0125C62.5392 87.3993 63.3525 87.092 64.3983 87.092C65.0489 87.092 65.6212 87.233 66.1188 87.5161C66.6151 87.7993 66.9971 88.2053 67.2645 88.7342C67.5296 89.2643 67.6645 89.8836 67.6645 90.5945ZM71.8163 92.6426C72.2886 92.6426 72.6356 92.5053 72.8561 92.2294C73.0766 91.9559 73.1971 91.4884 73.2163 90.8306V90.6306C73.2163 89.9041 73.1043 89.3824 72.8802 89.0667C72.6561 88.7523 72.2922 88.5944 71.7862 88.5944C71.5941 88.5889 71.4039 88.6344 71.2352 88.7265C71.0664 88.8186 70.9252 88.9539 70.826 89.1186C70.5971 89.4679 70.4826 89.9764 70.4826 90.6426C70.4826 91.3101 70.5983 91.8089 70.8296 92.1426C71.0597 92.4764 71.3886 92.6426 71.8163 92.6426ZM71.1681 94.1149C70.373 94.1149 69.7477 93.8053 69.2922 93.1872C68.838 92.5704 68.6115 91.7137 68.6115 90.6185C68.6115 89.5077 68.8428 88.6426 69.3055 88.0222C69.7681 87.4029 70.4043 87.092 71.2175 87.092C72.0694 87.092 72.72 87.4234 73.1681 88.086H73.2284C73.1417 87.6405 73.0954 87.1881 73.0898 86.7342V84.5655H74.9441V93.9932H73.526L73.1681 93.1149H73.0898C72.6694 93.7824 72.0296 94.1149 71.1681 94.1149ZM50.8513 13.0631H51.5115C52.1284 13.0631 52.5898 12.9414 52.8959 12.6981C53.2019 12.4547 53.3561 12.0993 53.3561 11.633C53.3561 11.1631 53.2272 10.8161 52.9706 10.5921C52.7139 10.368 52.3115 10.2547 51.7633 10.2547H50.8513V13.0631ZM55.3814 11.5619C55.3814 12.58 55.0633 13.3595 54.426 13.8981C53.7898 14.4378 52.8862 14.7077 51.7115 14.7077H50.8513V18.0728H48.8453V8.61133H51.8669C53.0151 8.61133 53.8874 8.85832 54.485 9.35229C55.0826 9.84747 55.3814 10.5824 55.3814 11.5619ZM43.8922 18.0728H41.9187V8.61133H47.3404V10.2547H43.8922V12.6957H47.1019V14.3318H43.8922V18.0728ZM38.4392 18.0728H36.1549L34.8742 13.1017C34.826 12.9258 34.7453 12.5595 34.632 12.0053C34.5485 11.6368 34.4826 11.2644 34.4344 10.8896C34.4079 11.1234 34.3428 11.4969 34.2404 12.0125C34.1368 12.527 34.0561 12.8957 34.0007 13.1149L32.726 18.0728H30.4489L28.0344 8.61133H30.0079L31.2187 13.7752C31.4296 14.7282 31.5826 15.5547 31.6766 16.2535C31.7031 16.0077 31.7621 15.627 31.8549 15.1125C31.9229 14.7081 32.0106 14.3072 32.1175 13.9113L33.4959 8.61133H35.391L36.7706 13.9113C36.8308 14.1487 36.9055 14.5113 36.9971 14.9981C37.0874 15.486 37.1561 15.9041 37.2031 16.2535C37.2465 15.9174 37.3163 15.4969 37.4103 14.9945C37.5055 14.4933 37.5922 14.086 37.6706 13.7752L38.873 8.61133H40.8465L38.4392 18.0728ZM33.5332 50.9788C29.8573 50.9788 27.4971 51.8523 26.8537 52.1222C26.8151 52.139 26.7838 52.0848 26.8139 52.0559C30.8525 47.8559 35.5826 48.0884 36.72 48.0884H50.1681C50.8453 48.0884 51.3947 48.7354 51.3947 49.5342C51.3947 50.3318 50.8453 50.9788 50.1681 50.9788H33.5332ZM36.5621 54.6957C32.6019 54.6957 31.4477 52.4451 25.4513 53.9306C25.4103 53.9414 25.3826 53.8848 25.4175 53.8619C28.7609 51.568 32.3959 51.7764 33.8645 51.7764H50.1681C50.8453 51.7764 51.3947 52.4234 51.3947 53.221C51.3947 54.0198 50.8453 54.6667 50.1681 54.6667C50.1681 54.6667 39.6983 54.6957 36.5621 54.6957ZM36.844 58.3547C32.7778 58.3547 32.4525 55.3547 26.426 54.6788C26.3838 54.6752 26.379 54.6125 26.42 54.6017C31.3718 53.3643 33.2127 55.4643 36.1031 55.4643H50.1681C50.8453 55.4643 51.3947 56.1113 51.3947 56.9089C51.3947 57.7077 50.8453 58.3547 50.1681 58.3547H36.844ZM35.9609 47.292C32.6886 47.292 29.9754 48.7186 29.3404 49.0788C29.3055 49.0993 29.2693 49.0559 29.2922 49.0234C29.8236 48.2427 32.6898 44.4005 37.6187 44.4005H50.1681C50.8453 44.4005 51.3947 45.0475 51.3947 45.8463C51.3947 46.6439 50.8453 47.292 50.1681 47.292H35.9609ZM53.9621 39.3101C53.8172 39.1699 53.6291 39.0828 53.4284 39.0631C53.2807 39.0428 53.1302 39.0602 52.991 39.1137C53.0489 38.9957 53.0959 38.868 53.1151 38.7173C53.1459 38.5058 53.1105 38.29 53.0139 38.0993C52.6091 37.2125 53.7657 35.439 53.6212 35.3583C53.4814 35.2824 52.8236 37.2378 52.185 38.0294C52.0496 38.1979 51.9663 38.4022 51.9453 38.6173C51.9191 38.8291 51.9551 39.0438 52.0489 39.2354C52.138 39.3957 52.2742 39.5077 52.432 39.5173C52.475 39.5233 52.5187 39.5212 52.5609 39.5113C52.5515 39.5339 52.5442 39.5573 52.5392 39.5812C52.5285 39.6671 52.5385 39.7543 52.5682 39.8356C52.598 39.9169 52.6467 39.99 52.7103 40.0487C52.8525 40.1919 53.0407 40.2802 53.2416 40.2981C53.4464 40.3279 53.6554 40.2889 53.8356 40.1872C54.7019 39.7125 56.4983 39.2451 56.4597 39.0788C56.4248 38.9125 54.673 39.9402 53.9621 39.3101ZM55.2874 38.0161C55.1594 37.8782 54.9846 37.7927 54.7971 37.7764C54.6871 37.77 54.5769 37.7872 54.4742 37.827C54.491 37.7728 54.5127 37.7246 54.5187 37.6704C54.5418 37.4759 54.4985 37.2793 54.3959 37.1125C53.9561 36.2969 55.1031 34.7571 54.9549 34.68C54.8067 34.6029 54.1778 36.3282 53.538 37.0101C53.4016 37.1483 53.3181 37.3299 53.3019 37.5234C53.2814 37.718 53.3231 37.9142 53.4212 38.0836C53.4661 38.1556 53.5257 38.2172 53.596 38.2646C53.6664 38.3119 53.746 38.3439 53.8296 38.3583C53.9024 38.3627 53.9754 38.3541 54.0453 38.333C54.0404 38.3427 54.032 38.3559 54.0356 38.3643C54.0288 38.4517 54.0401 38.5395 54.069 38.6223C54.0978 38.705 54.1435 38.7809 54.2031 38.8451C54.3311 38.9802 54.5044 39.0634 54.6898 39.0788C54.8753 39.0994 55.0617 39.049 55.2115 38.9378C55.9573 38.4005 57.6645 38.08 57.6212 37.9077C57.579 37.7402 55.9453 38.6439 55.2874 38.0161ZM56.4477 36.8186C56.3127 36.7195 56.1453 36.6751 55.979 36.6945C55.8972 36.6993 55.817 36.7198 55.7428 36.7547C55.7549 36.7198 55.7778 36.6908 55.7898 36.6547C55.8349 36.4833 55.8248 36.302 55.7609 36.1366C55.4826 35.3366 56.7163 34.1523 56.5959 34.0559C56.4754 33.9667 55.6766 35.4005 55.0187 35.9065C54.8804 36.0131 54.7822 36.1634 54.7404 36.333C54.6889 36.5022 54.6978 36.6841 54.7657 36.8475C54.7931 36.919 54.836 36.9836 54.8911 37.0367C54.9463 37.0898 55.0125 37.1301 55.085 37.1547C55.1936 37.1842 55.3093 37.173 55.4103 37.1234C55.3863 37.1888 55.3764 37.2586 55.3814 37.3282C55.3971 37.4908 55.4766 37.6294 55.6067 37.7246C55.7296 37.821 55.8971 37.8692 56.0718 37.8559C56.2396 37.8407 56.3965 37.7659 56.5139 37.6451C57.1055 37.0463 58.579 36.486 58.5187 36.3414C58.4561 36.1981 57.1308 37.2631 56.4477 36.8186ZM58.7308 34.2475C58.6079 34.0655 57.5766 35.1957 56.8139 35.3041C56.6513 35.3298 56.5003 35.4046 56.3814 35.5186C56.2501 35.6328 56.1572 35.7846 56.1151 35.9535C56.0962 36.0196 56.0924 36.089 56.1039 36.1568C56.1153 36.2246 56.1418 36.2889 56.1814 36.3451C56.2257 36.3956 56.2821 36.4342 56.3452 36.4572C56.4084 36.4801 56.4764 36.4867 56.5428 36.4764C56.7088 36.4519 56.8627 36.3756 56.9826 36.2583C57.1081 36.143 57.1979 35.9941 57.2416 35.8294C57.4718 35.0547 58.8224 34.3667 58.7308 34.2475ZM37.4127 35.7776C37.3814 35.8908 37.1597 36.7607 37.1597 36.7607C37.0971 36.7969 36.8308 36.739 36.7609 36.7318C36.2525 36.6836 35.7971 36.2427 35.9934 35.7137C36.1525 35.2824 36.479 35.2366 36.8947 35.2186C37.0657 35.2101 37.3754 35.2511 37.5308 35.3583C37.5308 35.3583 37.4694 35.5571 37.4127 35.7776ZM36.8272 38.4065L36.7802 38.7041C36.4645 38.5065 36.2778 38.0511 36.4296 37.692C36.5465 37.421 36.8356 37.3487 37.0489 37.3366C36.9717 37.6926 36.8978 38.0492 36.8272 38.4065ZM36.373 41.6559C36.3332 41.8788 36.0308 41.9089 35.8248 41.9704C35.2284 42.1487 34.6621 42.0728 34.479 41.3583C34.279 40.5933 34.8585 40.2728 35.4778 40.1222C35.8163 40.0427 36.1284 40.1101 36.3597 40.3945C36.4187 40.4655 36.4862 40.5294 36.5019 40.5969C36.5019 40.5969 36.4103 41.4463 36.373 41.6559ZM34.491 37.8945C34.9525 37.7824 35.4296 37.6089 35.7838 38.0643C36.1573 38.5402 36.0344 39.3065 35.4332 39.5077C35.038 39.6414 34.5609 39.7571 34.2224 39.4342C33.7802 39.0113 33.8115 38.0511 34.491 37.8945ZM34.0392 35.4161C34.526 35.2981 35.0284 35.1186 35.4019 35.5957C35.791 36.0957 35.6609 36.9017 35.032 37.1125C34.6151 37.2511 34.1115 37.3728 33.7573 37.033C33.2922 36.5908 33.3272 35.5824 34.0392 35.4161ZM33.5862 40.7716C33.4597 41.2173 33.0934 41.2848 32.7079 41.3776C32.4549 41.0667 31.7766 40.2824 31.7633 40.1896C31.7599 40.1529 31.7648 40.1158 31.7778 40.0812C31.8091 39.9884 31.9175 39.8981 31.9959 39.8475C32.2272 39.6969 32.72 39.5848 32.9862 39.639C33.4633 39.7414 33.7127 40.3246 33.5862 40.7716ZM31.1718 38.4836C30.8224 37.2511 32.891 36.7125 33.2103 37.9234C33.5392 39.1655 31.4525 39.6933 31.1718 38.4836ZM30.8681 36.0222C30.5139 34.7957 32.591 34.2571 32.9103 35.4607C33.2392 36.7065 31.1489 37.2342 30.8681 36.0222ZM30.5766 33.6017C30.238 32.4583 32.1886 31.9523 32.4862 33.08C32.7934 34.239 30.8428 34.7378 30.5766 33.6017ZM30.3778 38.2595C30.2814 38.3161 30.2453 38.3463 30.2139 38.3463L29.285 37.3366C29.2959 37.3089 29.5838 37.1005 29.679 37.0463C30.4501 36.6174 31.0862 37.8427 30.3778 38.2595ZM28.6163 35.986C28.1573 34.974 29.8272 33.8764 30.3332 34.968C30.7971 35.974 29.1284 37.0908 28.6163 35.986ZM30.02 32.7824C30.5477 33.7198 28.9573 34.7667 28.5019 33.7583C28.0971 32.8872 29.5115 31.8728 30.02 32.7824ZM28.6862 30.5957C28.92 30.3884 29.191 30.2752 29.4694 30.4089C29.9163 30.6246 29.9284 31.2933 29.5392 31.5583C29.3621 31.6812 29.0621 31.8306 28.844 31.7764C28.3657 31.6547 28.2754 30.9583 28.6862 30.5957ZM28.7453 28.5848C28.9392 28.4547 29.1947 28.3378 29.4163 28.4282C29.8187 28.592 29.8055 29.1764 29.479 29.4101C29.3308 29.5161 29.0621 29.6475 28.8814 29.5993C28.4742 29.4969 28.3742 28.8366 28.7453 28.5848ZM29.8151 25.7198C30.0537 25.5896 30.3995 25.5366 30.6151 25.7776C30.6737 25.8418 30.7167 25.9186 30.7407 26.0022C30.7647 26.0857 30.769 26.1737 30.7534 26.2592C30.7378 26.3447 30.7026 26.4254 30.6506 26.4951C30.5986 26.5647 30.5312 26.6214 30.4537 26.6607C30.1971 26.7896 29.8525 26.8366 29.6501 26.5993C29.595 26.5337 29.5551 26.4568 29.5334 26.374C29.5116 26.2912 29.5085 26.2046 29.5243 26.1204C29.5401 26.0363 29.5744 25.9567 29.6247 25.8874C29.675 25.8181 29.74 25.7609 29.8151 25.7198ZM29.6248 27.8957C29.432 27.1788 30.6404 26.8402 30.8356 27.5692C31.0537 28.2776 29.8175 28.6294 29.6248 27.8957ZM31.573 29.1487C31.8537 29.9234 30.5416 30.3619 30.2862 29.5969C30.0236 28.8222 31.3416 28.38 31.573 29.1487ZM31.7368 25.374C31.9874 25.2728 32.3079 25.1655 32.5874 25.374C32.9356 25.6342 32.8597 26.2186 32.4609 26.4017C32.1983 26.5198 31.8633 26.5993 31.6296 26.3921C31.332 26.1258 31.3163 25.5427 31.7368 25.374ZM31.5055 31.8571C31.1513 31.939 30.7826 32.0812 30.4886 31.7764C30.1115 31.3884 30.22 30.7101 30.7284 30.5246C31.0573 30.4005 31.4754 30.3294 31.7441 30.6041C32.0874 30.9571 32.0501 31.7258 31.5055 31.8571ZM31.5127 27.8993C31.285 27.1318 32.5368 26.7378 32.7778 27.4836C33.0236 28.2487 31.7272 28.6547 31.5127 27.8993ZM33.6091 29.3077C33.9031 30.1848 32.42 30.6535 32.1477 29.7884C31.873 28.9053 33.3657 28.4378 33.6091 29.3077ZM33.6874 26.9583C33.9489 26.8884 34.226 26.9137 34.4248 27.1282C34.7284 27.4547 34.6236 28.0113 34.1754 28.0945C33.9633 28.133 33.6368 28.1174 33.473 27.9728C33.1754 27.7113 33.1898 27.092 33.6874 26.9583ZM34.9525 28.7993C35.4296 28.7993 35.6706 29.5005 35.3922 29.8499C35.2248 30.0607 34.8633 30.074 34.6175 30.0354C34.1621 29.9643 33.8718 29.3788 34.1778 28.9812C34.3645 28.7414 34.6838 28.7993 34.9525 28.7993ZM32.6597 31.6872C32.3657 30.6788 34.0802 30.227 34.3428 31.2294C34.6079 32.2475 32.885 32.6957 32.6597 31.6872ZM33.7103 32.9776C34.1778 32.9294 34.6645 32.8198 34.9525 33.3101C35.2537 33.8282 35.0284 34.5487 34.4212 34.6704C34.0236 34.7535 33.5392 34.792 33.2549 34.4402C32.8814 33.9728 33.0308 33.0402 33.7103 32.9776ZM36.0898 30.7306C36.6669 30.9692 36.8621 31.6523 36.4549 32.033C36.2368 32.2318 35.838 32.192 35.5694 32.1378C35.032 32.033 34.6802 31.2246 35.1525 30.8414C35.3934 30.6451 35.826 30.6222 36.0898 30.7306ZM36.9983 33.1631C37.3621 33.6077 37.226 34.3945 36.591 34.4342C36.2585 34.4523 35.8248 34.4149 35.6007 34.1427C35.2404 33.7065 35.3766 32.8908 36.0115 32.868C36.344 32.8559 36.7742 32.8908 36.9983 33.1631ZM39.4561 25.133C39.4389 25.107 39.4138 25.0872 39.3846 25.0763C39.3554 25.0655 39.3234 25.0643 39.2934 25.0728C39.2175 25.0981 39.1669 25.1824 39.1959 25.2559C40.6477 29.1547 38.7947 31.0752 38.02 33.8065C37.0898 31.5872 40.1694 29.5005 38.5826 25.4571C38.5729 25.4312 38.5567 25.4082 38.5356 25.3903C38.5146 25.3724 38.4893 25.3601 38.4621 25.3547C38.3838 25.3451 38.3079 25.3776 38.2947 25.4824C38.2537 25.768 38.0669 28.0089 36.2489 29.321C36.0551 28.8569 35.7666 28.4383 35.4019 28.092C35.2344 27.3366 34.7416 26.2993 33.7043 25.9921C33.5489 25.6017 33.2356 25.0402 32.6344 24.7402C32.0693 24.4583 31.4151 24.4836 30.6874 24.8137C29.8079 24.9161 29.2043 25.2583 28.885 25.8318C28.585 26.3728 28.638 26.9619 28.7392 27.3619C27.9995 28.1523 27.9645 29.3246 27.9838 29.7824C27.544 30.8378 27.791 32.0716 27.9296 32.5836C27.4055 34.0173 27.9175 35.4101 28.1224 35.8716C28.1224 35.9957 28.1296 36.1149 28.1356 36.233C26.4151 34.3499 22.5007 32.0198 21.0055 31.1306C20.9715 31.1099 20.9316 31.1011 20.8921 31.1057C20.8526 31.1103 20.8157 31.128 20.7874 31.1559C20.7694 31.1723 20.7548 31.1921 20.7446 31.2142C20.7343 31.2363 20.7286 31.2603 20.7277 31.2846C20.7268 31.309 20.7307 31.3332 20.7393 31.356C20.748 31.3788 20.761 31.3997 20.7778 31.4173C24.1139 34.6704 27.0886 38.6848 29.9477 47.0149C31.3742 45.533 33.9501 43.5824 37.6187 43.5824H41.9091C39.1826 33.4282 43.1525 29.7945 39.4561 25.133ZM59.7392 30.3836C58.9549 30.1788 53.9465 29.292 48.3344 39.6161C49.1525 35.7716 51.6416 31.1198 52.3248 29.7692V29.7595C52.3441 29.7212 52.3496 29.6774 52.3403 29.6355C52.3311 29.5936 52.3078 29.5561 52.2742 29.5294C52.2566 29.517 52.2367 29.5082 52.2157 29.5036C52.1947 29.4989 52.1729 29.4985 52.1518 29.5023C52.1306 29.5061 52.1104 29.5141 52.0923 29.5258C52.0742 29.5375 52.0586 29.5526 52.0465 29.5704C48.3368 35.7559 47.0344 39.3186 46.2657 43.5824H48.5898C48.985 39.4728 54.1778 29.7884 59.7103 30.5089H59.7163C59.7489 30.5149 59.7766 30.4896 59.7802 30.4607C59.7832 30.453 59.7844 30.4447 59.7839 30.4365C59.7834 30.4282 59.7812 30.4201 59.7773 30.4128C59.7734 30.4055 59.768 30.3991 59.7614 30.3941C59.7549 30.389 59.7473 30.3855 59.7392 30.3836ZM48.5802 64.3993L47.3248 59.1511H45.1874C45.526 60.4836 46.0091 61.8378 46.6356 63.0246C46.6778 63.0957 46.7537 63.1378 46.8296 63.1246C46.8551 63.1202 46.8795 63.1108 46.9014 63.097C46.9232 63.0832 46.9422 63.0652 46.957 63.044C46.9719 63.0229 46.9825 62.999 46.9881 62.9737C46.9938 62.9485 46.9943 62.9224 46.9898 62.8969C46.844 61.786 46.6706 60.7137 46.5067 59.6451C46.9585 61.3246 47.5681 62.9667 48.391 64.4788C48.4127 64.5258 48.4609 64.5487 48.5043 64.533C48.5645 64.5198 48.5959 64.4571 48.5802 64.3993ZM50.7404 62.0161C50.5224 61.1402 50.2947 60.0631 50.0983 59.1511H49.2862C49.6019 60.1246 50.0284 61.2101 50.4079 62.139C50.4465 62.2282 50.532 62.2728 50.6139 62.2511C50.6611 62.2355 50.7005 62.2025 50.724 62.1588C50.7475 62.1151 50.7534 62.0641 50.7404 62.0161ZM51.0115 65.1029L51.0055 65.0896C50.7428 64.3571 50.3802 63.7005 50.0922 62.9969C49.7798 62.3024 49.496 61.5954 49.2416 60.8776C49.0238 60.3094 48.8264 59.7335 48.6501 59.1511H47.8657C48.0874 59.8077 48.3754 60.5149 48.644 61.1499C49.2356 62.58 49.9187 63.9824 50.7874 65.2366C50.8036 65.2595 50.8271 65.2761 50.8541 65.2838C50.881 65.2915 50.9098 65.2897 50.9356 65.2788C51.0055 65.2535 51.0368 65.1728 51.0115 65.1029ZM52.185 39.921C52.1248 39.8318 51.9802 39.8125 51.9103 39.886C50.8787 40.9905 50.0078 42.2348 49.3236 43.5824H50.1718C50.5947 42.5872 51.5501 40.8294 52.1633 40.1969L52.1694 40.1896C52.2018 40.1532 52.2211 40.1068 52.2239 40.058C52.2267 40.0093 52.213 39.961 52.185 39.921ZM45.7344 32.6378C46.5187 31.3511 47.6826 30.3643 48.6693 29.174C48.6863 29.1513 48.6946 29.1233 48.6929 29.0951C48.6911 29.0668 48.6794 29.0401 48.6597 29.0198C48.6506 29.0102 48.6396 29.0026 48.6275 28.9973C48.6154 28.992 48.6024 28.9891 48.5891 28.9889C48.5759 28.9887 48.5628 28.9911 48.5505 28.9959C48.5382 29.0008 48.527 29.0081 48.5175 29.0174C48.2921 29.2542 48.0591 29.4836 47.8188 29.7053C47.7151 29.6535 47.4489 29.7559 47.1802 29.968C46.9681 30.1342 46.8163 30.3198 46.7621 30.4535C46.6272 30.4222 46.3706 30.5824 46.1392 30.8776C45.9501 31.1234 45.8392 31.3836 45.8428 31.5427C45.6971 31.5559 45.485 31.7414 45.3055 32.0354C45.1998 32.2008 45.1255 32.3841 45.0862 32.5764C44.9362 32.6937 44.8099 32.8384 44.7139 33.0029C44.5525 33.2716 44.4706 33.5439 44.4959 33.7005C44.4573 33.768 44.42 33.8318 44.3874 33.8993L44.4067 33.739C44.638 31.9173 44.973 30.1113 45.4814 28.3704C45.9947 26.6354 46.6079 24.8848 47.6609 23.4788L47.6669 23.4728C47.6935 23.4349 47.7061 23.389 47.7026 23.3428C47.699 23.2967 47.6796 23.2532 47.6477 23.2198C47.6323 23.2022 47.6135 23.1881 47.5923 23.1784C47.5712 23.1686 47.5483 23.1633 47.525 23.163C47.5017 23.1627 47.4786 23.1672 47.4572 23.1764C47.4358 23.1855 47.4165 23.1991 47.4007 23.2161C47.0368 23.6029 46.7308 24.0354 46.4561 24.48C46.3356 24.4161 46.0826 24.6535 45.8898 25.0246C45.7127 25.3607 45.6501 25.6716 45.7163 25.7908C45.7163 25.7908 45.7127 25.7993 45.7067 25.7969C45.5802 25.7414 45.3465 26.0234 45.2043 26.4017C45.0645 26.7571 45.0392 27.0836 45.1344 27.192C45.1284 27.1981 45.1284 27.2017 45.1248 27.2077C44.9826 27.1571 44.7513 27.48 44.6091 27.9378C44.4922 28.3258 44.479 28.6619 44.5645 28.7969C44.5718 28.8017 44.5645 28.8186 44.5585 28.8149C44.4127 28.7643 44.1922 29.0969 44.0621 29.5511C43.932 29.9896 43.9416 30.3776 44.0657 30.4535C43.9236 30.4378 43.7236 30.7716 43.62 31.2222C43.5248 31.6125 43.5344 31.9499 43.626 32.0836C43.4862 32.1258 43.332 32.4523 43.2525 32.874C43.1766 33.2872 43.2151 33.6306 43.3163 33.739C43.1862 33.8065 43.0537 34.1427 43.0055 34.5583C42.9585 34.9716 43.0187 35.3113 43.126 35.4198C43.0187 35.5414 42.9151 35.8294 42.8706 36.1752C42.826 36.5041 42.8537 36.7896 42.9175 36.9499C42.8007 37.0499 42.7127 37.3824 42.7091 37.7824C42.6995 38.1029 42.7465 38.374 42.8296 38.5318C42.7657 38.6908 42.7212 38.9258 42.7212 39.1848C42.7151 39.521 42.7694 39.8089 42.8537 39.9595C42.8296 41.1402 42.8453 42.3993 42.9079 43.5824H45.4597C45.4804 42.6344 45.5375 41.6875 45.6308 40.7439C45.8115 39.1174 46.0802 37.4655 46.8922 36.0764L46.8983 36.0667C46.9113 36.0424 46.9168 36.0147 46.914 35.9872C46.9112 35.9598 46.9003 35.9337 46.8826 35.9125C46.8356 35.8716 46.7681 35.8716 46.7248 35.9222C45.6212 37.2029 45.1368 38.9414 44.8525 40.6089C44.8019 40.9354 44.7609 41.2655 44.7236 41.592C44.7922 40.2535 44.9163 38.9222 45.2224 37.6547C45.5742 36.1113 46.2754 34.6414 47.6127 33.8186C47.6342 33.8045 47.6505 33.7839 47.6592 33.7598C47.6679 33.7356 47.6685 33.7093 47.6609 33.6848C47.6441 33.6234 47.5814 33.5884 47.5272 33.6041C47.4416 33.6306 47.3633 33.6752 47.2814 33.7101C47.1922 33.6017 46.8669 33.6812 46.532 33.8957C46.2127 34.1041 46.0007 34.3595 46.0224 34.5005C46.0224 34.5077 46.0067 34.5173 46.0067 34.5041C46.0043 34.4884 46.0007 34.4716 45.991 34.4631C45.8706 34.3631 45.5489 34.5872 45.2766 34.968C45.0019 35.3487 44.8934 35.7463 45.0103 35.8487C45.0175 35.8511 45.0139 35.8619 45.0079 35.8619C44.8657 35.8041 44.6284 36.127 44.479 36.5788C44.3718 36.8957 44.3465 37.1872 44.385 37.3535C44.385 37.3595 44.3778 37.3655 44.3778 37.3655C44.2681 37.7318 44.1754 38.0993 44.091 38.474C44.1224 37.9451 44.1694 37.4137 44.2453 36.8896C44.4706 35.3776 44.926 33.8993 45.7344 32.6378ZM53.7633 28.4246C53.5788 28.344 53.3724 28.3283 53.1778 28.38C53.0332 28.417 52.8991 28.4871 52.7862 28.5848C52.8052 28.4461 52.7978 28.3051 52.7645 28.1692C52.723 27.9607 52.6162 27.7708 52.4597 27.627C51.7706 26.939 52.2453 24.868 52.0838 24.8427C51.926 24.8198 51.9826 26.8848 51.6573 27.8511C51.5874 28.0567 51.5794 28.2783 51.6344 28.4884C51.6825 28.697 51.7916 28.8866 51.9477 29.033C52.0838 29.1511 52.2489 29.2053 52.4031 29.1571C52.4455 29.1497 52.4855 29.1323 52.52 29.1065C52.52 29.1318 52.52 29.1571 52.5236 29.1836C52.5585 29.3523 52.679 29.4848 52.8428 29.5607C53.0274 29.6448 53.2357 29.6606 53.4308 29.6053C53.6325 29.5607 53.8139 29.4505 53.9465 29.292C54.5947 28.5402 56.1188 27.4667 56.0272 27.3234C55.9356 27.1824 54.6477 28.7643 53.7633 28.4246ZM56.7103 25.8149C56.6115 25.6752 55.3922 27.0993 54.5597 26.7439C54.3907 26.6603 54.1969 26.6418 54.0151 26.692C53.9111 26.7261 53.8148 26.7806 53.732 26.8523C53.7284 26.7945 53.732 26.7439 53.7188 26.692C53.6748 26.5018 53.5667 26.3325 53.4127 26.2125C52.7163 25.6041 53.2633 23.7535 53.0995 23.7342C52.932 23.7149 52.9344 25.5559 52.5742 26.421C52.4939 26.5975 52.4781 26.7966 52.5296 26.9836C52.5743 27.1748 52.6826 27.3452 52.8368 27.4667C52.9032 27.5185 52.98 27.5554 53.0619 27.575C53.1438 27.5945 53.2289 27.5962 53.3115 27.58C53.3814 27.5589 53.4468 27.525 53.5043 27.48C53.5043 27.4896 53.5007 27.5029 53.5043 27.5125C53.5549 27.6884 53.6742 27.8258 53.8296 27.9065C53.9975 27.9855 54.1883 28.0014 54.3669 27.9511C54.5468 27.9037 54.7031 27.7923 54.8067 27.6378C55.3212 26.8655 56.8079 25.9631 56.7103 25.8149ZM57.0103 24.033C56.9031 23.921 56.0272 25.386 55.2332 25.2101C55.0725 25.1664 54.9013 25.1836 54.7525 25.2583C54.677 25.2925 54.6083 25.3403 54.5501 25.3993C54.5501 25.3643 54.5597 25.3294 54.5597 25.2908C54.5452 25.1145 54.4732 24.9477 54.3549 24.8161C53.82 24.1631 54.5633 22.6174 54.42 22.5692C54.2754 22.527 54.0224 24.1547 53.5802 24.8619C53.4855 25.0091 53.4451 25.1846 53.4657 25.3583C53.4775 25.5356 53.5488 25.7038 53.6681 25.8354C53.7826 25.9535 53.9212 26.0174 54.073 26.0077C54.1858 25.9988 54.291 25.9471 54.3669 25.8631C54.3669 25.9282 54.379 25.9981 54.4115 26.0655C54.4814 26.2125 54.6043 26.3149 54.7561 26.3571C54.9043 26.4053 55.0814 26.3921 55.2404 26.3149C55.3915 26.2409 55.5121 26.1165 55.5814 25.9631C55.9284 25.1908 57.1151 24.1451 57.0103 24.033ZM56.485 21.9957C56.3055 21.868 55.7332 23.2933 55.0525 23.6643C54.9088 23.7468 54.7933 23.8706 54.7212 24.0198C54.64 24.1727 54.6069 24.3465 54.626 24.5186C54.6428 24.6692 54.7115 24.7981 54.8224 24.8619C54.8804 24.8946 54.946 24.9114 55.0126 24.9108C55.0792 24.9102 55.1445 24.8921 55.2019 24.8583C55.3489 24.7768 55.4672 24.6518 55.5404 24.5005C55.6187 24.347 55.6514 24.1743 55.6344 24.0029C55.5838 23.1969 56.6115 22.0764 56.485 21.9957ZM44.0055 59.1511H36.844C36.3991 59.1542 35.9548 59.1179 35.5163 59.0427C36.6922 60.7908 38.5356 62.1161 40.4043 63.0065C40.6922 64.6005 41.0525 66.0752 41.1814 66.1908C41.3139 66.3065 43.1477 65.7776 43.2055 65.6089C43.2585 65.439 42.4561 62.7077 42.4561 62.7077C43.4212 61.0523 43.7175 60.0764 44.0055 59.1511ZM62.0224 71.4029C60.2139 72.1173 57.8549 72.1776 55.9284 71.6655C51.5175 70.2921 46.62 67.6896 41.9187 69.8499C37.2163 67.6896 32.3187 70.2921 27.9079 71.6655C25.9826 72.1776 23.6236 72.1173 21.8151 71.4029C21.8048 71.3996 21.7936 71.3999 21.7834 71.404C21.7733 71.408 21.7649 71.4154 21.7596 71.4249C21.7544 71.4344 21.7526 71.4455 21.7546 71.4562C21.7566 71.4669 21.7622 71.4766 21.7706 71.4836C24.373 73.4969 28.0187 74.4222 31.3007 73.2378C34.4537 72.2547 37.1187 68.9161 40.8525 70.3402C37.8971 71.4957 35.1332 73.6282 32.9983 75.6414L34.5513 76.9149C36.4898 74.6583 38.6718 72.4017 41.1404 71.0294C41.479 70.8306 41.6814 70.7499 41.9187 70.7378C42.1561 70.7499 42.3585 70.8306 42.6934 71.0294C45.1657 72.4017 47.3477 74.6583 49.2862 76.9149L50.838 75.6414C48.7043 73.6282 45.9404 71.4957 42.9838 70.3402C46.7175 68.9161 49.3838 72.2547 52.5356 73.2378C55.8187 74.4222 59.4633 73.4969 62.0669 71.4836C62.1079 71.4475 62.073 71.3848 62.0224 71.4029ZM32.9513 68.3619C28.3404 67.2439 27.0802 62.9222 23.2248 61.0475C23.1838 61.0246 23.1404 61.0728 23.1657 61.1101C24.379 63.1089 25.0368 66.1692 28.5368 68.0547C28.5657 68.0704 28.5501 68.1161 28.5175 68.1053C23.4971 67.139 21.3874 68.4824 16.126 66.1053C16.0826 66.0848 16.0356 66.133 16.0633 66.1752C17.7934 68.6848 21.8971 70.4005 27.5187 69.9282C29.5428 69.7547 31.0103 68.9029 32.9513 68.4487C32.9983 68.4354 32.9983 68.3716 32.9513 68.3619ZM23.2947 65.7113C21.5428 63.4149 22.0428 58.5149 18.0874 54.0294C18.0549 53.9945 17.9983 54.0234 18.0079 54.068C18.7633 57.3716 18.5392 61.1234 20.6067 63.8728C20.626 63.9029 20.5971 63.9306 20.5694 63.9125C16.4898 60.7005 12.2983 59.7342 10.432 57.1354C10.4031 57.0993 10.3465 57.1186 10.3525 57.1631C10.8151 60.5282 17.2778 65.7716 23.2597 65.7812C23.2947 65.7812 23.3175 65.7402 23.2947 65.7113ZM17.1693 59.6089C15.2922 56.127 17.5368 50.8113 15.4055 45.6475C15.3838 45.5933 15.3019 45.6065 15.3019 45.6643C15.238 48.4848 13.4862 52.6945 14.5453 55.874C14.5585 55.9017 14.52 55.9186 14.5043 55.892C11.8067 51.9523 9.66694 51.1282 7.8826 47.521C7.85851 47.4667 7.77658 47.4824 7.77296 47.5402C7.65851 49.992 8.74284 51.9896 9.96694 53.8463C11.886 56.2947 14.3262 58.285 17.1103 59.6728C17.1513 59.6933 17.1886 59.6499 17.1693 59.6089ZM15.8959 38.3969C15.8922 38.339 15.8163 38.3198 15.7886 38.3716C14.3561 41.0511 11.8043 43.1824 11.7224 46.721C11.7187 46.7559 11.6802 46.7583 11.6742 46.727C11.2103 43.9957 8.89224 40.9354 8.79104 36.9812C8.79104 36.921 8.70549 36.9053 8.68381 36.9631C6.77658 42.1041 9.51754 46.98 12.4368 51.0077C12.4681 51.0487 12.5308 51.0234 12.5308 50.968C12.4115 46.7005 16.1115 43.5161 15.8959 38.3969ZM17.7175 31.7439C16.3645 33.6234 13.3187 34.9523 12.2055 37.6631C12.1898 37.7029 12.1428 37.692 12.1489 37.6475C12.591 34.6101 11.4187 31.0812 12.5187 27.0451C12.5344 26.9872 12.4621 26.9487 12.4272 26.9933C10.7645 29.039 10.2007 31.4366 10.1091 34.027C9.99586 37.2089 11.1151 39.5306 11.6681 41.6884C11.6802 41.739 11.7465 41.7354 11.7597 41.6848C12.5561 38.8547 16.5561 37.1523 17.8091 31.7896C17.8248 31.7318 17.7513 31.6969 17.7175 31.7439ZM21.3874 25.4246C19.1621 27.1692 15.7621 28.8499 15.0332 30.0643C15.02 30.0896 14.9826 30.0704 14.9886 30.0451L15.8127 26.0848C16.1838 24.4041 16.5031 22.7933 17.432 21.2884C17.4609 21.2439 17.4067 21.1921 17.3657 21.2246C13.1296 24.58 13.7489 29.433 13.5621 33.4065C13.5585 33.4475 13.6091 33.4667 13.638 33.4378C16.1332 30.733 20.1995 29.1571 21.4573 25.48C21.473 25.4354 21.426 25.3957 21.3874 25.4246ZM24.5404 19.3427C20.7971 19.4607 18.0465 22.6137 16.8669 26.6282C16.8597 26.6511 16.8922 26.6704 16.9103 26.6571C22.0681 22.8764 21.7802 21.2571 24.5718 19.4583C24.6224 19.4258 24.6007 19.3427 24.5404 19.3427ZM67.7067 66.1053C62.4489 68.4824 60.3368 67.139 55.3151 68.1053C55.2838 68.1161 55.2681 68.0704 55.2959 68.0547C58.7971 66.1692 59.4549 63.1089 60.6681 61.1101C60.6934 61.0728 60.6501 61.0246 60.6091 61.0475C56.7573 62.9222 55.4959 67.2439 50.8826 68.3619C50.8344 68.3716 50.8344 68.4354 50.8826 68.4487C52.8236 68.9029 54.291 69.7547 56.3151 69.9282C61.9368 70.4005 66.044 68.6848 67.7706 66.1752C67.7995 66.133 67.7513 66.0848 67.7067 66.1053ZM73.4019 57.1354C71.5356 59.7342 67.3441 60.7005 63.2645 63.9125C63.2392 63.9306 63.2079 63.9029 63.2296 63.8728C65.2947 61.1234 65.0706 57.3716 65.826 54.068C65.8356 54.0234 65.779 53.9945 65.7465 54.0294C61.7947 58.5149 62.291 63.4149 60.5416 65.7113C60.5367 65.7178 60.5336 65.7255 60.5328 65.7336C60.532 65.7418 60.5335 65.7499 60.5372 65.7572C60.5408 65.7645 60.5465 65.7707 60.5534 65.7749C60.5604 65.7791 60.5684 65.7813 60.5766 65.7812C66.5597 65.7716 73.0188 60.5282 73.4814 57.1631C73.4874 57.1186 73.4308 57.0993 73.4019 57.1354ZM76.0609 47.5402C76.0585 47.4824 75.9754 47.4667 75.9501 47.521C74.1669 51.1282 72.026 51.9523 69.332 55.892C69.3139 55.9186 69.279 55.9017 69.2886 55.874C70.3477 52.6945 68.5983 48.4848 68.532 45.6643C68.532 45.6065 68.4501 45.5933 68.4284 45.6475C66.2971 50.8113 68.5416 56.127 66.6669 59.6089C66.6453 59.6499 66.6826 59.6933 66.7236 59.6728C69.5077 58.285 71.9479 56.2947 73.8669 53.8463C75.0898 51.9896 76.1754 49.992 76.0609 47.5402ZM75.1501 36.9631C75.1284 36.9053 75.0428 36.921 75.0428 36.9812C74.9416 40.9354 72.6236 43.9957 72.1597 46.727C72.1525 46.7583 72.1151 46.7559 72.1151 46.721C72.0332 43.1824 69.4778 41.0511 68.0453 38.3716C68.0401 38.36 68.031 38.3506 68.0196 38.345C68.0082 38.3394 67.9952 38.338 67.9829 38.341C67.9706 38.344 67.9597 38.3513 67.9522 38.3615C67.9446 38.3717 67.9409 38.3842 67.9416 38.3969C67.726 43.5161 71.4224 46.7005 71.3019 50.968C71.3019 51.0234 71.3681 51.0487 71.4007 51.0077C74.3151 46.98 77.0573 42.1041 75.1501 36.9631ZM73.7248 34.027C73.6332 31.4366 73.0694 29.039 71.4067 26.9933C71.3718 26.9487 71.3019 26.9872 71.3151 27.0451C72.4151 31.0812 71.2416 34.6101 71.6874 37.6475C71.6947 37.692 71.644 37.7029 71.6284 37.6631C70.5151 34.9523 67.4694 33.6234 66.1175 31.7439C66.085 31.6969 66.0127 31.7318 66.0248 31.7896C67.2766 37.1523 71.2766 38.8547 72.0742 41.6848C72.0862 41.7354 72.1525 41.739 72.1657 41.6884C72.7187 39.5306 73.838 37.2089 73.7248 34.027ZM66.4669 21.2246C66.426 21.1921 66.373 21.2439 66.4007 21.2884C67.3308 22.7933 67.6501 24.4041 68.02 26.0848L68.8453 30.0451C68.8513 30.0704 68.8139 30.0896 68.8007 30.0643C68.0706 28.8499 64.6754 27.1692 62.4465 25.4246C62.4103 25.3957 62.3609 25.4354 62.3754 25.48C63.6344 29.1571 67.7007 30.733 70.1959 33.4378C70.2248 33.4667 70.2754 33.4475 70.2718 33.4065C70.085 29.433 70.7055 24.58 66.4669 21.2246ZM59.2934 19.3427C59.2332 19.3427 59.2151 19.4258 59.2609 19.4583C62.0537 21.2571 61.7657 22.8764 66.9224 26.6571C66.9453 26.6704 66.973 26.6511 66.9669 26.6282C65.7874 22.6137 63.0368 19.4607 59.2934 19.3427Z" fill="white"/>
</svg>
